<?xml version="1.0" encoding="utf-8"?>
<!-- Generator: Adobe Illustrator 14.0.0, SVG Export Plug-In . SVG Version: 6.00 Build 43363)  -->
<!DOCTYPE svg PUBLIC "-//W3C//DTD SVG 1.1//EN" "http://www.w3.org/Graphics/SVG/1.1/DTD/svg11.dtd">
<svg version="1.1"
	 id="Calque_1" xmlns:inkscape="http://www.inkscape.org/namespaces/inkscape" xmlns:sodipodi="http://sodipodi.sourceforge.net/DTD/sodipodi-0.dtd"
	 xmlns="http://www.w3.org/2000/svg" xmlns:xlink="http://www.w3.org/1999/xlink" x="0px" y="0px" width="600px" height="660px"
	 viewBox="0 0 600 660" enable-background="new 0 0 600 660" xml:space="preserve">
<path id="shield_3_" fill="#5AB532" stroke="#000000" stroke-width="3" d="M1.5,1.555h597v258.5
	c0,286.2-298.5,398.391-298.5,398.391S1.5,546.255,1.5,260.055V1.555z"/>
<g>
	<path fill="#2B5DF2" stroke="#000000" stroke-width="3" d="M300.421,1.555H300H1.5V41.25V82.5v0v41.25V165v41.25V247.5v0v12.555
		c0,9.77,0.36,19.329,1.032,28.695c1.019,14.206,2.771,27.958,5.199,41.25h0.002c3.467,18.99,8.291,37.054,14.222,54.223
		c4.043,11.705,8.597,22.997,13.596,33.875c2.659,5.785,5.454,11.443,8.353,16.996c0.721,1.381,1.444,2.761,2.178,4.129
		c9.564,17.815,20.287,34.423,31.769,49.88c17.765-10.806,36.346-20.329,55.685-28.509c52.793-22.33,108.801-33.652,166.465-33.652
		c57.664,0,113.672,11.322,166.465,33.652c19.344,8.182,37.932,17.709,55.7,28.519c12.362-16.643,23.83-34.637,33.934-54.018
		c3.063-5.876,6.008-11.872,8.805-18.006c12.111-26.561,21.598-55.554,27.358-87.089c3.204-21.924,5.251-44.833,5.956-68.751
		c0.182-6.162,0.282-12.385,0.282-18.681V220v-27.5V165v-55V55V1.555H300.421z"/>
</g>
<g>
	<path fill="#FCEF3C" stroke="#000000" stroke-width="3" d="M568.5,31.555v145.713v30.013v52.774
		c0,18.232-1.334,36.351-3.966,53.855c-1.565,10.416-3.635,20.873-6.153,31.082c-11.227,45.531-32.025,88.687-61.818,128.268
		c-24.197,32.146-54.376,62.081-89.699,88.977c-45.332,34.515-87.785,55.224-106.862,63.683
		c-19.087-8.464-61.488-29.148-106.775-63.615c-35.304-26.867-65.473-56.773-89.67-88.886
		c-29.794-39.541-50.608-82.651-61.866-128.134c-2.545-10.284-4.637-20.829-6.219-31.343c-2.634-17.515-3.97-35.645-3.97-53.886
		V207.28v-30.013V31.555H568.5 M598.5,1.555H1.5v175.713v30.013v52.774c0,20.32,1.508,39.761,4.304,58.348
		c1.76,11.7,4.034,23.059,6.764,34.087C66.578,570.707,300,658.445,300,658.445s233.645-87.823,287.508-306.271
		c2.698-10.94,4.949-22.206,6.692-33.807c2.793-18.577,4.299-38.006,4.299-58.313V207.28v-30.013V1.555L598.5,1.555z"/>
</g>
<path id="shield_2_" fill="none" stroke="#000000" stroke-width="3" d="M1.5,1.555h597v258.5c0,286.2-298.5,398.391-298.5,398.391
	S1.5,546.255,1.5,260.055V1.555z"/>
<g>
	
		<rect x="302.174" y="335.717" transform="matrix(0.0872 -0.9962 0.9962 0.0872 48.8881 730.0477)" fill="#A04D4D" stroke="#000000" stroke-width="3" width="241.253" height="5.261"/>
	<path fill="#FFFFFF" stroke="#000000" stroke-width="3" d="M430.691,217.952l2.715-31.033c0,0,91.864,10.366,129.795,52.273
		c0,0-46.604-25.702-119.261-33.057c0,0-2.664-9.277-6.793-1.592l-1.212,13.866L430.691,217.952z"/>
</g>
<g>
	<polygon fill="#FFFFFF" stroke="#000000" stroke-width="3" points="200.376,199.245 188.99,222.676 187.164,222.386 
		195.23,199.696 	"/>
	<polygon fill="#FFFFFF" stroke="#000000" stroke-width="3" points="191.955,199.981 180.572,223.413 178.746,223.123 
		186.808,200.432 	"/>
	<polygon fill="#FFFFFF" stroke="#000000" stroke-width="3" points="183.53,200.718 172.15,224.15 170.325,223.86 178.389,201.168 	
		"/>
	<polygon fill="#FFFFFF" stroke="#000000" stroke-width="3" points="175.114,201.455 163.729,224.886 161.903,224.596 
		169.966,201.905 	"/>
	<polygon fill="#FFFFFF" stroke="#000000" stroke-width="3" points="166.695,202.192 155.307,225.625 153.483,225.333 
		161.548,202.642 	"/>
	<polygon fill="#FFFFFF" stroke="#000000" stroke-width="3" points="158.27,202.929 146.891,226.359 145.062,226.07 153.13,203.378 
			"/>
	<polygon fill="#FFFFFF" stroke="#000000" stroke-width="3" points="149.853,203.666 138.466,227.097 136.64,226.806 
		144.704,204.116 	"/>
	<polygon fill="#FFFFFF" stroke="#000000" stroke-width="3" points="141.431,204.402 130.049,227.833 128.224,227.542 
		136.288,204.852 	"/>
	<polygon fill="#FFFFFF" stroke="#000000" stroke-width="3" points="133.011,205.138 121.63,228.57 119.802,228.279 
		127.868,205.588 	"/>
	<g>
		<polygon fill="#A04D4D" stroke="#000000" stroke-width="3" points="121.098,200.946 202.711,193.805 203.166,199.001 
			164.958,202.344 187.35,458.291 182.154,458.744 159.761,202.797 121.552,206.141 		"/>
	</g>
	
		<rect x="121.319" y="200.794" transform="matrix(-0.9962 0.087 -0.087 -0.9962 263.1363 395.3324)" fill="#A04D4D" stroke="#000000" stroke-width="3" width="3.266" height="5.215"/>
</g>
<g id="Garb" transform="translate(-162.4471,-273.8614)">
	<path id="path6015_5_" fill="#FCEF3C" stroke="#000000" stroke-width="3" d="M380.691,709.343
		c31.347-85.296,39.388-149.404-6.28-239.067c74.951-73.403,130.278-49.787,180.323,0c-47.126,90.642-34.442,154.181-7.045,235.927
		C488.84,738.661,437.443,738.928,380.691,709.343z"/>
	<path id="path7531_1_" fill="#FCEF3C" stroke="#000000" stroke-width="3" d="M462.706,423.709c-1.53,0.053-3.096,0.16-4.661,0.302
		c5.657,102.73,1.601,204.857,1.05,307.027c2.099,0.036,4.18,0.018,6.262-0.045c-0.747-102.739,4.82-202.41-2.313-307.284
		C462.919,423.709,462.812,423.709,462.706,423.709z"/>
	<path id="path7559_1_" fill="#FCEF3C" stroke="#000000" stroke-width="3" d="M476.991,424.456
		c-12.934,93.898-17.506,188.614-13.876,306.582c1.832-0.018,3.683-0.08,5.532-0.169c-1.191-116.456,2.509-211.217,13.557-305.523
		C480.478,424.99,478.735,424.696,476.991,424.456z"/>
	<g id="g7546">
		<path id="path5862" fill="#FCEF3C" stroke="#000000" stroke-width="3" d="M502.165,325.942
			c-13.343,14.997-20.654,15.033-13.895,37.698C503.001,353.25,502.591,344.916,502.165,325.942z"/>
		<path id="path5864" fill="#FCEF3C" stroke="#000000" stroke-width="3" d="M472.526,336.456
			c8.77,9.002,21.562,13.485,13.538,38.446C470.088,361.522,472.152,360.082,472.526,336.456z"/>
		<path id="path5866" fill="#FCEF3C" stroke="#000000" stroke-width="3" d="M469.911,361.825c11.6,8.104,22.185,9.634,14.339,31.427
			C474.074,381.368,469.714,382.516,469.911,361.825z"/>
		<path id="path5868" fill="#FCEF3C" stroke="#000000" stroke-width="3" d="M466.797,375.39
			c8.806,8.833,21.579,13.227,13.592,37.671C464.396,399.941,466.46,398.536,466.797,375.39z"/>
		<path id="path5870" fill="#FCEF3C" stroke="#000000" stroke-width="3" d="M461.763,395.128
			c10.265,8.655,25.102,13.05,16.118,36.631C460.144,417.277,468.861,413.595,461.763,395.128z"/>
		<path id="path5872" fill="#FCEF3C" stroke="#000000" stroke-width="3" d="M459.858,415.027
			c9.661,8.353,24.782,13.049,16.279,35.865C462.456,438.671,460.695,436.758,459.858,415.027z"/>
		<path id="path5874" fill="#FCEF3C" stroke="#000000" stroke-width="3" d="M511.06,346.463c-6.938,5.933-22.95,5.746-23.555,30.484
			C507.253,365.169,507.021,367.331,511.06,346.463z"/>
		<path id="path5876" fill="#FCEF3C" stroke="#000000" stroke-width="3" d="M510.081,364.084c-7.4,5.515-24.567,5.221-25.013,28.438
			C506.114,381.608,505.9,383.627,510.081,364.084z"/>
		<path id="path5878" fill="#FCEF3C" stroke="#000000" stroke-width="3" d="M507.609,380.042
			c-7.651,5.959-25.405,5.693-25.922,30.733C503.463,398.962,503.25,401.133,507.609,380.042z"/>
		<path id="path5880" fill="#FCEF3C" stroke="#000000" stroke-width="3" d="M506.38,401.96c-8.094,3.149-26.935-2.321-26.988,28.714
			C495.529,426.004,494.372,416.611,506.38,401.96z"/>
		<path id="path5882" fill="#FCEF3C" stroke="#000000" stroke-width="3" d="M497.45,421.067
			c-11.226,4.955-17.576,4.181-19.569,29.141C494.177,438.867,493.981,440.921,497.45,421.067z"/>
	</g>
	<path id="path7615_2_" fill="#FCEF3C" stroke="#000000" stroke-width="3" d="M509.85,435.486
		c-28.109,82.014-33.802,159.215-30.493,294.413c2.313-0.284,4.625-0.613,6.938-1.014c-1.938-134.104,2.918-208.433,28.714-290.526
		C513.301,437.345,511.576,436.394,509.85,435.486z"/>
	<g id="g7602">
		<path id="path5888" fill="#FCEF3C" stroke="#000000" stroke-width="3" d="M555.926,344.809
			c-16.225,11.813-23.375,10.292-21.579,33.881C550.963,371.663,552.316,363.435,555.926,344.809z"/>
		<path id="path5890" fill="#FCEF3C" stroke="#000000" stroke-width="3" d="M524.723,348.775
			c6.67,10.674,18.217,17.764,5.069,40.447C517.019,372.748,519.35,371.788,524.723,348.775z"/>
		<path id="path5892" fill="#FCEF3C" stroke="#000000" stroke-width="3" d="M516.806,373.024
			c9.589,10.372,19.622,14.108,7.329,33.749C516.716,392.994,512.216,393.189,516.806,373.024z"/>
		<path id="path5894" fill="#FCEF3C" stroke="#000000" stroke-width="3" d="M510.864,385.611
			c6.726,10.505,18.289,17.506,5.284,39.699C503.302,409.094,505.616,408.16,510.864,385.611z"/>
		<path id="path5896" fill="#FCEF3C" stroke="#000000" stroke-width="3" d="M501.754,403.828
			c8.202,10.639,21.759,18.084,7.971,39.228C495.476,425.132,504.78,423.389,501.754,403.828z"/>
		<path id="path5898" fill="#FCEF3C" stroke="#000000" stroke-width="3" d="M495.67,422.882
			c7.668,10.211,21.438,18.004,8.291,38.498C493.181,446.534,491.864,444.292,495.67,422.882z"/>
		<path id="path5900" fill="#FCEF3C" stroke="#000000" stroke-width="3" d="M560.268,366.744
			c-8.042,4.324-23.661,0.739-29.497,24.783C552.565,384.205,551.888,386.269,560.268,366.744z"/>
		<path id="path5902" fill="#FCEF3C" stroke="#000000" stroke-width="3" d="M555.571,383.743
			c-8.396,3.825-25.119-0.106-30.492,22.478C547.975,400.039,547.335,401.969,555.571,383.743z"/>
		<path id="path5904" fill="#FCEF3C" stroke="#000000" stroke-width="3" d="M549.753,398.82
			c-8.717,4.208-26.026,0.169-31.845,24.533C541.712,416.424,541.018,418.505,549.753,398.82z"/>
		<path id="path5906" fill="#FCEF3C" stroke="#000000" stroke-width="3" d="M543.901,419.982
			c-8.575,1.37-25.813-7.988-32.468,22.327C528.192,441.17,529.064,431.75,543.901,419.982z"/>
		<path id="path5908" fill="#FCEF3C" stroke="#000000" stroke-width="3" d="M531.128,436.758
			c-12.026,2.455-18.058,0.347-25.298,24.319C524.135,453.454,523.513,455.42,531.128,436.758z"/>
	</g>
	<path id="path7671" fill="#FCEF3C" stroke="#000000" stroke-width="3" d="M536.625,453.739
		c-36.667,74.835-44.28,142.768-25.422,268.777c2.687-0.916,5.407-1.903,8.13-2.953C500.564,599.31,507.519,531.545,541.179,457.6
		C539.667,456.274,538.155,454.993,536.625,453.739z"/>
	<g id="g7658">
		<path id="path5914" fill="#FCEF3C" stroke="#000000" stroke-width="3" d="M597.93,363.844
			c-17.612,9.616-24.533,7.196-25.796,30.813C589.515,389.845,591.935,381.857,597.93,363.844z"/>
		<path id="path5916" fill="#FCEF3C" stroke="#000000" stroke-width="3" d="M566.477,363.755c5.23,11.43,15.744,19.961-0.214,40.758
			C555.731,386.527,558.151,385.869,566.477,363.755z"/>
		<path id="path5918_2_" fill="#FCEF3C" stroke="#000000" stroke-width="3" d="M555.464,386.758
			c8.184,11.537,17.63,16.536,2.899,34.424C552.795,406.55,548.294,406.167,555.464,386.758z"/>
		<path id="path5920" fill="#FCEF3C" stroke="#000000" stroke-width="3" d="M547.975,398.482
			c5.301,11.279,15.852,19.729,0.089,40.046C537.424,420.783,539.844,420.151,547.975,398.482z"/>
		<path id="path5922" fill="#FCEF3C" stroke="#000000" stroke-width="3" d="M536.571,415.365
			c6.742,11.608,19.232,20.744,2.812,39.922C527.569,435.673,537.033,435.139,536.571,415.365z"/>
		<path id="path5924" fill="#FCEF3C" stroke="#000000" stroke-width="3" d="M528.049,433.467
			c6.279,11.119,18.946,20.619,3.256,39.246C522.535,456.594,521.521,454.211,528.049,433.467z"/>
		<path id="path5926_2_" fill="#FCEF3C" stroke="#000000" stroke-width="3" d="M599.388,386.162
			c-8.521,3.247-23.571-2.321-32.449,20.771C589.48,402.485,588.554,404.442,599.388,386.162z"/>
		<path id="path5928_2_" fill="#FCEF3C" stroke="#000000" stroke-width="3" d="M592.503,402.423
			c-8.806,2.686-24.87-3.371-33.107,18.333C582.879,417.58,581.991,419.413,592.503,402.423z"/>
		<path id="path5930" fill="#FCEF3C" stroke="#000000" stroke-width="3" d="M584.801,416.611
			c-9.197,3.033-25.813-3.193-34.763,20.201C574.536,433.031,573.592,435.006,584.801,416.611z"/>
		<path id="path5932_2_" fill="#FCEF3C" stroke="#000000" stroke-width="3" d="M576.261,436.829
			c-8.682,0.267-24.55-11.261-35.082,17.951C557.938,455.803,560.018,446.579,576.261,436.829z"/>
		<path id="path5934_2_" fill="#FCEF3C" stroke="#000000" stroke-width="3" d="M561.407,451.818
			c-12.24,0.89-17.933-1.993-28.215,20.841C552.334,467.464,551.461,469.324,561.407,451.818z"/>
	</g>
	<path id="path7503_1_" fill="#FCEF3C" stroke="#000000" stroke-width="3" d="M442.905,426.698c-1.69,0.462-3.38,0.988-5.088,1.539
		c12.524,93.39,20.708,187.75,19.605,302.756c1.565,0.045,3.131,0.063,4.696,0.045C465.729,613.684,457.155,519.857,442.905,426.698
		z"/>
	<g id="g7490">
		<path id="path5741_2_" fill="#FCEF3C" stroke="#000000" stroke-width="3" d="M416.842,325.942
			c13.343,14.997,20.655,15.033,13.894,37.698C415.988,353.25,416.415,344.916,416.842,325.942z"/>
		<path id="path5743_2_" fill="#FCEF3C" stroke="#000000" stroke-width="3" d="M446.481,336.456
			c-8.789,9.002-21.562,13.485-13.539,38.446C448.918,361.522,446.854,360.082,446.481,336.456z"/>
		<path id="path5745_2_" fill="#FCEF3C" stroke="#000000" stroke-width="3" d="M449.096,361.825
			c-11.599,8.104-22.185,9.634-14.339,31.427C444.933,381.368,449.292,382.516,449.096,361.825z"/>
		<path id="path5747_2_" fill="#FCEF3C" stroke="#000000" stroke-width="3" d="M452.209,375.39
			c-8.806,8.833-21.58,13.227-13.592,37.671C454.611,399.941,452.547,398.536,452.209,375.39z"/>
		<path id="path5749_1_" fill="#FCEF3C" stroke="#000000" stroke-width="3" d="M457.226,395.128
			c-10.248,8.655-25.085,13.05-16.101,36.631C458.862,417.277,450.145,413.595,457.226,395.128z"/>
		<path id="path5751_1_" fill="#FCEF3C" stroke="#000000" stroke-width="3" d="M459.148,415.027
			c-9.66,8.353-24.783,13.049-16.279,35.865C456.55,438.671,458.311,436.758,459.148,415.027z"/>
		<path id="path5753" fill="#FCEF3C" stroke="#000000" stroke-width="3" d="M407.929,346.463
			c6.956,5.933,22.967,5.746,23.572,30.484C411.753,365.169,411.985,367.331,407.929,346.463z"/>
		<path id="path5755" fill="#FCEF3C" stroke="#000000" stroke-width="3" d="M408.925,364.084c7.382,5.515,24.55,5.221,25.013,28.438
			C412.893,381.608,413.106,383.627,408.925,364.084z"/>
		<path id="path5757" fill="#FCEF3C" stroke="#000000" stroke-width="3" d="M411.398,380.042c7.632,5.959,25.404,5.693,25.92,30.733
			C415.543,398.962,415.756,401.133,411.398,380.042z"/>
		<path id="path5759_2_" fill="#FCEF3C" stroke="#000000" stroke-width="3" d="M412.626,401.96
			c8.094,3.149,26.917-2.321,26.988,28.714C423.478,426.004,424.634,416.611,412.626,401.96z"/>
		<path id="path5761" fill="#FCEF3C" stroke="#000000" stroke-width="3" d="M421.556,421.067
			c11.226,4.955,17.559,4.181,19.552,29.141C424.83,438.867,425.025,440.921,421.556,421.067z"/>
	</g>
	<path id="path7447_1_" fill="#FCEF3C" stroke="#000000" stroke-width="3" d="M411.629,440.512
		c-1.672,1.014-3.344,2.117-5.035,3.229c26.597,80.235,36.613,154.724,34.745,285.937c2.046,0.283,4.074,0.524,6.12,0.72
		C450.679,597.646,440.343,520.783,411.629,440.512z"/>
	<g id="g7434">
		<path id="path5767_2_" fill="#FCEF3C" stroke="#000000" stroke-width="3" d="M363.079,344.809
			c16.225,11.813,23.376,10.292,21.58,33.881C368.043,371.663,366.69,363.435,363.079,344.809z"/>
		<path id="path5769_2_" fill="#FCEF3C" stroke="#000000" stroke-width="3" d="M394.284,348.775
			c-6.672,10.674-18.218,17.764-5.071,40.447C401.986,372.748,399.638,371.788,394.284,348.775z"/>
		<path id="path5771_2_" fill="#FCEF3C" stroke="#000000" stroke-width="3" d="M402.2,373.024
			c-9.589,10.372-19.623,14.108-7.33,33.749C402.29,392.994,406.79,393.189,402.2,373.024z"/>
		<path id="path5773_2_" fill="#FCEF3C" stroke="#000000" stroke-width="3" d="M408.142,385.611
			c-6.725,10.505-18.289,17.506-5.301,39.699C415.703,409.094,413.373,408.16,408.142,385.611z"/>
		<path id="path5775_2_" fill="#FCEF3C" stroke="#000000" stroke-width="3" d="M417.233,403.828
			c-8.184,10.639-21.74,18.084-7.953,39.228C423.531,425.132,414.227,423.389,417.233,403.828z"/>
		<path id="path5777_2_" fill="#FCEF3C" stroke="#000000" stroke-width="3" d="M423.335,422.882
			c-7.667,10.211-21.437,18.004-8.308,38.498C425.808,446.534,427.125,444.292,423.335,422.882z"/>
		<path id="path5779_2_" fill="#FCEF3C" stroke="#000000" stroke-width="3" d="M358.738,366.744
			c8.041,4.324,23.661,0.739,29.496,24.783C366.441,384.205,367.118,386.269,358.738,366.744z"/>
		<path id="path5781_2_" fill="#FCEF3C" stroke="#000000" stroke-width="3" d="M363.435,383.743
			c8.397,3.825,25.12-0.106,30.492,22.478C371.031,400.039,371.672,401.969,363.435,383.743z"/>
		<path id="path5783_2_" fill="#FCEF3C" stroke="#000000" stroke-width="3" d="M369.252,398.82
			c8.718,4.208,26.027,0.169,31.845,24.533C377.294,416.424,377.987,418.505,369.252,398.82z"/>
		<path id="path5785_2_" fill="#FCEF3C" stroke="#000000" stroke-width="3" d="M375.106,419.982
			c8.557,1.37,25.814-7.988,32.467,22.327C390.815,441.17,389.943,431.75,375.106,419.982z"/>
		<path id="path5787_2_" fill="#FCEF3C" stroke="#000000" stroke-width="3" d="M387.879,436.758
			c12.026,2.455,18.04,0.347,25.298,24.319C394.853,453.454,395.493,455.42,387.879,436.758z"/>
	</g>
	<path id="path7366" fill="#FCEF3C" stroke="#000000" stroke-width="3" d="M385.423,460.073c-1.37,1.192-2.722,2.401-4.092,3.656
		c33.749,74.239,39.441,138.392,28.981,258.139l1.53,0.836c1.744,0.588,3.487,1.139,5.23,1.663
		C429.028,602.849,422.677,537.416,385.423,460.073z"/>
	<g id="g7353">
		<path id="path5793" fill="#FCEF3C" stroke="#000000" stroke-width="3" d="M321.076,363.844
			c17.613,9.616,24.533,7.196,25.796,30.813C329.491,389.845,327.071,381.857,321.076,363.844z"/>
		<path id="path5795" fill="#FCEF3C" stroke="#000000" stroke-width="3" d="M352.529,363.755
			c-5.23,11.43-15.762,19.961,0.196,40.758C363.275,386.527,360.837,385.869,352.529,363.755z"/>
		<path id="path5797" fill="#FCEF3C" stroke="#000000" stroke-width="3" d="M363.542,386.758
			c-8.184,11.537-17.648,16.536-2.9,34.424C366.21,406.55,370.693,406.167,363.542,386.758z"/>
		<path id="path5799" fill="#FCEF3C" stroke="#000000" stroke-width="3" d="M371.049,398.482
			c-5.319,11.279-15.869,19.729-0.106,40.046C381.581,420.783,379.161,420.151,371.049,398.482z"/>
		<path id="path5801" fill="#FCEF3C" stroke="#000000" stroke-width="3" d="M382.435,415.365
			c-6.743,11.608-19.231,20.744-2.811,39.922C391.437,435.673,381.972,435.139,382.435,415.365z"/>
		<path id="path5803" fill="#FCEF3C" stroke="#000000" stroke-width="3" d="M390.939,433.467
			c-6.28,11.119-18.929,20.619-3.237,39.246C396.471,456.594,397.486,454.211,390.939,433.467z"/>
		<path id="path5805" fill="#FCEF3C" stroke="#000000" stroke-width="3" d="M319.617,386.162c8.522,3.247,23.555-2.321,32.45,20.771
			C329.526,402.485,330.452,404.442,319.617,386.162z"/>
		<path id="path5807" fill="#FCEF3C" stroke="#000000" stroke-width="3" d="M326.502,402.423
			c8.807,2.686,24.871-3.371,33.126,18.333C336.127,417.58,336.998,419.413,326.502,402.423z"/>
		<path id="path5809" fill="#FCEF3C" stroke="#000000" stroke-width="3" d="M334.188,416.611c9.215,3.033,25.832-3.193,34.78,20.201
			C344.47,433.031,345.414,435.006,334.188,416.611z"/>
		<path id="path5811" fill="#FCEF3C" stroke="#000000" stroke-width="3" d="M342.744,436.829
			c8.665,0.267,24.551-11.261,35.083,17.951C361.069,455.803,358.987,446.579,342.744,436.829z"/>
		<path id="path5813" fill="#FCEF3C" stroke="#000000" stroke-width="3" d="M357.582,451.818
			c12.258,0.89,17.951-1.993,28.233,20.841C366.673,467.464,367.544,469.324,357.582,451.818z"/>
	</g>
	<g id="g7518">
		<path id="path1900" fill="#FCEF3C" stroke="#000000" stroke-width="3" d="M443.812,323.753
			c12.471,15.718,19.783,16.163,11.759,38.418C441.428,350.973,442.317,342.674,443.812,323.753z"/>
		<path id="path2789_2_" fill="#FCEF3C" stroke="#000000" stroke-width="3" d="M472.81,335.904
			c-9.27,8.504-22.291,12.258-15.673,37.627C473.842,361.069,471.867,359.513,472.81,335.904z"/>
		<path id="path3677" fill="#FCEF3C" stroke="#000000" stroke-width="3" d="M473.985,361.38
			c-12.009,7.445-22.684,8.37-16.065,30.573C468.737,380.656,473.042,382.053,473.985,361.38z"/>
		<path id="path3679" fill="#FCEF3C" stroke="#000000" stroke-width="3" d="M476.333,375.105
			c-9.269,8.326-22.273,11.991-15.673,36.844C477.365,399.754,475.39,398.224,476.333,375.105z"/>
		<path id="path3681" fill="#FCEF3C" stroke="#000000" stroke-width="3" d="M480.265,395.102
			c-10.728,8.059-25.779,11.609-18.147,35.661C480.638,417.295,472.134,413.132,480.265,395.102z"/>
		<path id="path3683" fill="#FCEF3C" stroke="#000000" stroke-width="3" d="M481.046,415.081
			c-10.104,7.792-25.458,11.617-18.271,34.887C477.133,438.528,479.001,436.731,481.046,415.081z"/>
		<path id="path3685" fill="#FCEF3C" stroke="#000000" stroke-width="3" d="M433.778,343.741
			c6.583,6.316,22.594,7.027,21.793,31.756C436.553,362.626,436.643,364.787,433.778,343.741z"/>
		<path id="path4592_2_" fill="#FCEF3C" stroke="#000000" stroke-width="3" d="M433.778,361.38
			c7.044,5.916,24.212,6.591,23.358,29.799C436.749,379.091,436.838,381.137,433.778,361.38z"/>
		<path id="path4594_2_" fill="#FCEF3C" stroke="#000000" stroke-width="3" d="M435.344,377.454
			c7.294,6.387,25.031,7.116,24.159,32.147C438.403,396.569,438.511,398.758,435.344,377.454z"/>
		<path id="path4596_2_" fill="#FCEF3C" stroke="#000000" stroke-width="3" d="M435.344,399.398
			c7.899,3.629,27.005-0.8,25.333,30.199C444.826,424.029,446.516,414.716,435.344,399.398z"/>
		<path id="path4598_1_" fill="#FCEF3C" stroke="#000000" stroke-width="3" d="M443.171,419.004
			c10.923,5.559,17.31,5.15,17.897,30.172C445.449,436.954,445.52,439.008,443.171,419.004z"/>
	</g>
	<path id="path7475_3_" fill="#FCEF3C" stroke="#000000" stroke-width="3" d="M428.263,431.831
		c-1.833,0.774-3.647,1.636-5.498,2.544c23.608,94.574,29.372,182.227,27.825,296.291c0.658,0.063,1.316,0.088,1.957,0.133
		l2.65-0.552C458.222,628.414,454.468,529.091,428.263,431.831z"/>
	<g id="g7462">
		<path id="path5503" fill="#FCEF3C" stroke="#000000" stroke-width="3" d="M388.164,337.764
			c15.424,12.827,22.665,11.768,19.374,35.198C391.401,364.894,390.565,356.585,388.164,337.764z"/>
		<path id="path5505" fill="#FCEF3C" stroke="#000000" stroke-width="3" d="M419.03,343.724c-7.33,10.22-19.302,16.554-7.65,40.046
			C425.185,368.149,422.926,367.029,419.03,343.724z"/>
		<path id="path5507" fill="#FCEF3C" stroke="#000000" stroke-width="3" d="M425.399,368.417
			c-10.229,9.749-20.495,12.844-9.482,33.223C424.207,388.359,428.69,388.849,425.399,368.417z"/>
		<path id="path5509" fill="#FCEF3C" stroke="#000000" stroke-width="3" d="M430.505,381.368
			c-7.366,10.051-19.356,16.313-7.81,39.272C436.553,405.287,434.294,404.193,430.505,381.368z"/>
		<path id="path5511" fill="#FCEF3C" stroke="#000000" stroke-width="3" d="M438.44,400.146
			c-8.86,10.078-22.861,16.643-10.461,38.623C443.35,421.797,434.17,419.457,438.44,400.146z"/>
		<path id="path5513" fill="#FCEF3C" stroke="#000000" stroke-width="3" d="M443.278,419.537
			c-8.291,9.696-22.541,16.59-10.728,37.875C444.257,443.305,445.715,441.144,443.278,419.537z"/>
		<path id="path5515" fill="#FCEF3C" stroke="#000000" stroke-width="3" d="M382.417,359.388
			c7.739,4.821,23.573,2.242,27.842,26.614C389,377.312,389.533,379.393,382.417,359.388z"/>
		<path id="path5517" fill="#FCEF3C" stroke="#000000" stroke-width="3" d="M386.029,376.653c8.13,4.341,25.066,1.495,28.98,24.382
			C392.558,393.394,393.074,395.351,386.029,376.653z"/>
		<path id="path5519" fill="#FCEF3C" stroke="#000000" stroke-width="3" d="M390.85,392.06c8.451,4.768,25.974,1.841,30.226,26.526
			C397.77,410.144,398.322,412.27,390.85,392.06z"/>
		<path id="path5521" fill="#FCEF3C" stroke="#000000" stroke-width="3" d="M395.351,413.551
			c8.451,1.921,26.259-6.315,30.956,24.364C409.672,435.7,409.405,426.244,395.351,413.551z"/>
		<path id="path5523" fill="#FCEF3C" stroke="#000000" stroke-width="3" d="M407.021,431.119
			c11.849,3.22,17.986,1.512,23.679,25.885C412.928,448.224,413.426,450.217,407.021,431.119z"/>
	</g>
	<path id="path7338" fill="#FCEF3C" stroke="#000000" stroke-width="3" d="M376.546,468.238c-0.729,0.676-1.424,1.361-2.135,2.055
		c27.807,54.607,35.723,99.724,30.546,145.935c0,0.017,0,0.044,0,0.062c-0.872,30.226-5.337,62.773-12.916,98.603
		c1.957,0.89,3.914,1.727,5.871,2.544l1.121,0.268C420.346,615.188,418.016,539.845,376.546,468.238z"/>
	<path id="path7394" fill="#FCEF3C" stroke="#000000" stroke-width="3" d="M399.887,448.447c-1.708,1.254-3.433,2.553-5.177,3.905
		c31.88,83.543,36.541,161.154,32.432,274.559l4.181,1.06c0.605,0.124,1.21,0.239,1.797,0.346
		C438.706,612.856,434.507,532.337,399.887,448.447z"/>
	<g id="g7381_2_">
		<path id="path5529_2_" fill="#FCEF3C" stroke="#000000" stroke-width="3" d="M342.478,354.229
			c17.186,10.39,24.195,8.272,24.426,31.916C349.736,380.585,347.69,372.499,342.478,354.229z"/>
		<path id="path5531_2_" fill="#FCEF3C" stroke="#000000" stroke-width="3" d="M373.914,355.518
			c-5.729,11.208-16.616,19.258-1.584,40.741C383.645,378.752,381.243,377.987,373.914,355.518z"/>
		<path id="path5533_2_" fill="#FCEF3C" stroke="#000000" stroke-width="3" d="M383.894,379.002
			c-8.664,11.154-18.342,15.744-4.412,34.255C385.69,398.9,390.209,398.695,383.894,379.002z"/>
		<path id="path5535_2_" fill="#FCEF3C" stroke="#000000" stroke-width="3" d="M390.885,391.037
			c-5.799,11.039-16.723,19.009-1.868,40.002C400.421,413.782,398.037,413.044,390.885,391.037z"/>
		<path id="path5537_2_" fill="#FCEF3C" stroke="#000000" stroke-width="3" d="M401.524,408.418
			c-7.258,11.297-20.138,19.863-4.59,39.753C409.601,429.091,400.208,428.139,401.524,408.418z"/>
		<path id="path5539_2_" fill="#FCEF3C" stroke="#000000" stroke-width="3" d="M409.21,426.857
			c-6.742,10.835-19.819,19.774-4.963,39.068C413.728,450.217,414.831,447.869,409.21,426.857z"/>
		<path id="path5541_2_" fill="#FCEF3C" stroke="#000000" stroke-width="3" d="M340.041,376.466
			c8.379,3.62,23.644-1.281,31.507,22.167C349.22,393.198,350.074,395.2,340.041,376.466z"/>
		<path id="path5543_2_" fill="#FCEF3C" stroke="#000000" stroke-width="3" d="M346.196,393.012
			c8.682,3.086,24.996-2.259,32.29,19.783C355.162,408.587,355.945,410.446,346.196,393.012z"/>
		<path id="path5545_2_" fill="#FCEF3C" stroke="#000000" stroke-width="3" d="M353.259,407.529
			c9.073,3.433,25.956-2.055,33.837,21.713C362.812,424.376,363.666,426.396,353.259,407.529z"/>
		<path id="path5547_2_" fill="#FCEF3C" stroke="#000000" stroke-width="3" d="M360.909,428.112
			c8.646,0.631,25.031-10.176,34.264,19.462C378.397,447.869,376.707,438.564,360.909,428.112z"/>
		<path id="path5549_2_" fill="#FCEF3C" stroke="#000000" stroke-width="3" d="M375.087,443.732
			c12.187,1.423,18.004-1.201,27.291,22.06C383.467,459.771,384.25,461.674,375.087,443.732z"/>
	</g>
	<g id="g7325_2_">
		<path id="path5555_2_" fill="#FCEF3C" stroke="#000000" stroke-width="3" d="M299.176,380.229
			c18.715,7.267,25.245,3.958,29.55,27.229C310.882,404.922,307.449,397.317,299.176,380.229z"/>
		<path id="path5557_2_" fill="#FCEF3C" stroke="#000000" stroke-width="3" d="M330.362,376.075
			c-3.718,12.017-13.058,21.829,5.462,40.393C343.937,397.264,341.463,396.935,330.362,376.075z"/>
		<path id="path5559_2_" fill="#FCEF3C" stroke="#000000" stroke-width="3" d="M344.239,397.477
			c-6.618,12.48-15.353,18.671,1.565,34.496C349.451,416.753,353.846,415.792,344.239,397.477z"/>
		<path id="path5561_2_" fill="#FCEF3C" stroke="#000000" stroke-width="3" d="M353.188,408.116
			c-3.79,11.884-13.165,21.625,5.088,39.735C366.53,428.868,364.04,428.557,353.188,408.116z"/>
		<path id="path5563_2_" fill="#FCEF3C" stroke="#000000" stroke-width="3" d="M366.673,423.398
			c-5.195,12.382-16.385,23.038,2.366,39.948C378.219,442.362,368.772,443.065,366.673,423.398z"/>
		<path id="path5565_2_" fill="#FCEF3C" stroke="#000000" stroke-width="3" d="M377.436,440.236
			c-4.786,11.831-16.1,22.896,1.868,39.344C385.922,462.474,386.598,459.966,377.436,440.236z"/>
		<path id="path5567_2_" fill="#FCEF3C" stroke="#000000" stroke-width="3" d="M300.617,402.547
			c8.868,2.126,23.056-5.346,34.851,16.394C312.545,417.447,313.711,419.27,300.617,402.547z"/>
		<path id="path5569_2_" fill="#FCEF3C" stroke="#000000" stroke-width="3" d="M309.53,417.785
			c9.073,1.53,24.23-6.556,35.225,13.903C321.04,431.572,322.144,433.271,309.53,417.785z"/>
		<path id="path5571_2_" fill="#FCEF3C" stroke="#000000" stroke-width="3" d="M318.994,430.861
			c9.518,1.823,25.191-6.511,37.093,15.548C331.305,445.805,332.498,447.646,318.994,430.861z"/>
		<path id="path5573_2_" fill="#FCEF3C" stroke="#000000" stroke-width="3" d="M330.078,449.807
			c8.646-0.872,22.896-14.348,37.11,13.254C350.715,466.255,347.46,457.368,330.078,449.807z"/>
		<path id="path5575_2_" fill="#FCEF3C" stroke="#000000" stroke-width="3" d="M346.748,462.75
			c12.24-0.703,17.523-4.288,30.67,17.017C357.759,477.089,358.863,478.833,346.748,462.75z"/>
	</g>
	<path id="path7587_1_" fill="#FCEF3C" stroke="#000000" stroke-width="3" d="M497.326,429.722
		c-26.49,97.999-29.87,198.798-26.864,301.049c2.064-0.143,4.128-0.32,6.21-0.551c-1.584-115.132,2.65-202.802,26.222-298.15
		C501.044,431.243,499.193,430.434,497.326,429.722z"/>
	<g id="g7574">
		<path id="path5581_2_" fill="#FCEF3C" stroke="#000000" stroke-width="3" d="M536.75,337.764
			c-15.443,12.827-22.684,11.768-19.375,35.198C533.494,364.894,534.329,356.585,536.75,337.764z"/>
		<path id="path5583_2_" fill="#FCEF3C" stroke="#000000" stroke-width="3" d="M505.865,343.724
			c7.33,10.22,19.303,16.554,7.649,40.046C499.709,368.149,501.969,367.029,505.865,343.724z"/>
		<path id="path5585" fill="#FCEF3C" stroke="#000000" stroke-width="3" d="M499.496,368.417
			c10.248,9.749,20.495,12.844,9.482,33.223C500.688,388.359,496.205,388.849,499.496,368.417z"/>
		<path id="path5587" fill="#FCEF3C" stroke="#000000" stroke-width="3" d="M494.39,381.368c7.364,10.051,19.356,16.313,7.81,39.272
			C488.341,405.287,490.583,404.193,494.39,381.368z"/>
		<path id="path5589" fill="#FCEF3C" stroke="#000000" stroke-width="3" d="M486.456,400.146
			c8.859,10.078,22.878,16.643,10.46,38.623C481.545,421.797,490.708,419.457,486.456,400.146z"/>
		<path id="path5591" fill="#FCEF3C" stroke="#000000" stroke-width="3" d="M481.598,419.537c8.309,9.696,22.56,16.59,10.746,37.875
			C480.638,443.305,479.179,441.144,481.598,419.537z"/>
		<path id="path5593_2_" fill="#FCEF3C" stroke="#000000" stroke-width="3" d="M542.46,359.388
			c-7.722,4.821-23.555,2.242-27.823,26.614C535.895,377.312,535.361,379.393,542.46,359.388z"/>
		<path id="path5595_2_" fill="#FCEF3C" stroke="#000000" stroke-width="3" d="M538.866,376.653
			c-8.111,4.341-25.066,1.495-28.98,24.382C532.336,393.394,531.821,395.351,538.866,376.653z"/>
		<path id="path5597" fill="#FCEF3C" stroke="#000000" stroke-width="3" d="M534.045,392.06
			c-8.451,4.768-25.957,1.841-30.227,26.526C527.125,410.144,526.573,412.27,534.045,392.06z"/>
		<path id="path5599" fill="#FCEF3C" stroke="#000000" stroke-width="3" d="M529.544,413.551
			c-8.468,1.921-26.259-6.315-30.973,24.364C515.222,435.7,515.49,426.244,529.544,413.551z"/>
		<path id="path5601_2_" fill="#FCEF3C" stroke="#000000" stroke-width="3" d="M517.873,431.119
			c-11.83,3.22-17.985,1.512-23.678,25.885C511.967,448.224,511.468,450.217,517.873,431.119z"/>
	</g>
	<path id="path7643" fill="#FCEF3C" stroke="#000000" stroke-width="3" d="M525.452,445.155
		c-36.647,84.344-41.291,165.157-32.236,282.352c2.776-0.613,5.552-1.29,8.326-2.055c-9.98-118.52-5.515-194.619,28.43-276.988
		C528.476,447.326,526.964,446.231,525.452,445.155z"/>
	<g id="g7630">
		<path id="path5607_2_" fill="#FCEF3C" stroke="#000000" stroke-width="3" d="M582.399,354.229
			c-17.149,10.39-24.158,8.272-24.408,31.916C575.14,380.585,577.222,372.499,582.399,354.229z"/>
		<path id="path5609_2_" fill="#FCEF3C" stroke="#000000" stroke-width="3" d="M550.999,355.518
			c5.711,11.208,16.617,19.258,1.584,40.741C541.25,378.752,543.652,377.987,550.999,355.518z"/>
		<path id="path5611" fill="#FCEF3C" stroke="#000000" stroke-width="3" d="M541.001,379.002
			c8.682,11.154,18.343,15.744,4.431,34.255C539.204,398.9,534.704,398.695,541.001,379.002z"/>
		<path id="path5613" fill="#FCEF3C" stroke="#000000" stroke-width="3" d="M534.027,391.037
			c5.782,11.039,16.705,19.009,1.85,40.002C524.474,413.782,526.858,413.044,534.027,391.037z"/>
		<path id="path5615_2_" fill="#FCEF3C" stroke="#000000" stroke-width="3" d="M523.371,408.418
			c7.258,11.297,20.139,19.863,4.571,39.753C515.294,429.091,524.705,428.139,523.371,408.418z"/>
		<path id="path5617_2_" fill="#FCEF3C" stroke="#000000" stroke-width="3" d="M515.685,426.857
			c6.761,10.835,19.818,19.774,4.964,39.068C511.184,450.217,510.063,447.869,515.685,426.857z"/>
		<path id="path5619_2_" fill="#FCEF3C" stroke="#000000" stroke-width="3" d="M584.854,376.466
			c-8.379,3.62-23.644-1.281-31.506,22.167C575.674,393.198,574.821,395.2,584.854,376.466z"/>
		<path id="path5621_2_" fill="#FCEF3C" stroke="#000000" stroke-width="3" d="M578.699,393.012
			c-8.682,3.086-24.995-2.259-32.271,19.783C569.75,408.587,568.95,410.446,578.699,393.012z"/>
		<path id="path5623_2_" fill="#FCEF3C" stroke="#000000" stroke-width="3" d="M571.636,407.529
			c-9.073,3.433-25.938-2.055-33.854,21.713C562.1,424.376,561.247,426.396,571.636,407.529z"/>
		<path id="path5625_2_" fill="#FCEF3C" stroke="#000000" stroke-width="3" d="M563.987,428.112
			c-8.665,0.631-25.032-10.176-34.265,19.462C546.516,447.869,548.188,438.564,563.987,428.112z"/>
		<path id="path5627_2_" fill="#FCEF3C" stroke="#000000" stroke-width="3" d="M549.807,443.732
			c-12.187,1.423-18.004-1.201-27.29,22.06C541.428,459.771,540.645,461.674,549.807,443.732z"/>
	</g>
	<path id="path7699" fill="#FCEF3C" stroke="#000000" stroke-width="3" d="M550.537,466.157
		c-42.857,76.587-38.872,156.938-20.762,249.029c2.188-0.986,4.412-2.037,6.618-3.121c-7.757-39.771-12.773-76.349-12.756-111.111
		c0-0.053,0-0.115,0-0.16c-2.384-40.367,5.604-81.454,31.116-130.501C553.348,468.897,551.942,467.509,550.537,466.157z"/>
	<g id="g7686">
		<path id="path5633_2_" fill="#FCEF3C" stroke="#000000" stroke-width="3" d="M625.718,380.229
			c-18.697,7.267-25.244,3.958-29.549,27.229C614.012,404.922,617.446,397.317,625.718,380.229z"/>
		<path id="path5635_2_" fill="#FCEF3C" stroke="#000000" stroke-width="3" d="M594.549,376.075
			c3.701,12.017,13.041,21.829-5.479,40.393C580.941,397.264,583.449,396.935,594.549,376.075z"/>
		<path id="path5637_2_" fill="#FCEF3C" stroke="#000000" stroke-width="3" d="M580.656,397.477
			c6.618,12.48,15.354,18.671-1.565,34.496C575.461,416.753,571.048,415.792,580.656,397.477z"/>
		<path id="path5639_2_" fill="#FCEF3C" stroke="#000000" stroke-width="3" d="M571.708,408.116
			c3.807,11.884,13.164,21.625-5.07,39.735C558.381,428.868,560.855,428.557,571.708,408.116z"/>
		<path id="path5641_2_" fill="#FCEF3C" stroke="#000000" stroke-width="3" d="M558.222,423.398
			c5.177,12.382,16.402,23.038-2.366,39.948C546.694,442.362,556.123,443.065,558.222,423.398z"/>
		<path id="path5643_2_" fill="#FCEF3C" stroke="#000000" stroke-width="3" d="M547.459,440.236
			c4.785,11.831,16.101,22.896-1.868,39.344C538.991,462.474,538.297,459.966,547.459,440.236z"/>
		<path id="path5645_2_" fill="#FCEF3C" stroke="#000000" stroke-width="3" d="M624.278,402.547
			c-8.859,2.126-23.057-5.346-34.852,16.394C612.358,417.447,611.184,419.27,624.278,402.547z"/>
		<path id="path5647" fill="#FCEF3C" stroke="#000000" stroke-width="3" d="M615.382,417.785
			c-9.091,1.53-24.248-6.556-35.225,13.903C603.872,431.572,602.752,433.271,615.382,417.785z"/>
		<path id="path5649" fill="#FCEF3C" stroke="#000000" stroke-width="3" d="M605.901,430.861
			c-9.519,1.823-25.191-6.511-37.075,15.548C593.607,445.805,592.397,447.646,605.901,430.861z"/>
		<path id="path5651" fill="#FCEF3C" stroke="#000000" stroke-width="3" d="M594.817,449.807
			c-8.628-0.872-22.896-14.348-37.11,13.254C574.198,466.255,577.454,457.368,594.817,449.807z"/>
		<path id="path5653" fill="#FCEF3C" stroke="#000000" stroke-width="3" d="M578.165,462.75
			c-12.258-0.703-17.541-4.288-30.688,17.017C567.118,477.089,566.032,478.833,578.165,462.75z"/>
	</g>
	<g>
		<path fill="#E20909" stroke="#000000" stroke-width="3" d="M528.474,574.785c-0.021-0.021-0.042-0.042-0.063-0.063
			c-0.272-0.259-0.551-0.501-0.836-0.728c-0.074-0.059-0.148-0.116-0.224-0.173c-0.251-0.188-0.504-0.368-0.764-0.531
			c-0.119-0.075-0.24-0.143-0.361-0.212c-0.23-0.132-0.461-0.26-0.697-0.371c-0.166-0.078-0.335-0.141-0.503-0.208
			c-0.205-0.081-0.407-0.166-0.616-0.23c-0.227-0.07-0.457-0.117-0.688-0.168c-0.162-0.036-0.321-0.083-0.485-0.108
			c-0.401-0.063-0.808-0.099-1.219-0.099h-7.543h-17.737h-17.559h-17.755h-17.559h-17.737h-17.595h-5.675
			c-5.453,0-10.086,5.612-11.812,13.44h142.81C532.874,580.896,530.952,577.177,528.474,574.785z"/>
		<path fill="#5AB532" stroke="#000000" stroke-width="3" d="M395.062,607.817l-0.013,0.034c2.152,2.744,4.839,4.367,7.792,4.367
			h8.166l0.005-0.015h17.737l-0.005,0.015h17.559l0.005-0.015h17.755l-0.006,0.015h17.577l0.006-0.015h17.719l-0.006,0.015h17.595
			l0.006-0.015h5.064c5.466,0,10.103-5.612,11.829-13.427h-142.81C391.832,602.365,393.24,605.489,395.062,607.817z"/>
		<path fill="#FFFFFF" stroke="#000000" stroke-width="3" d="M533.856,585.334h-142.81c-0.464,2.107-0.73,4.365-0.73,6.729
			c0,2.356,0.256,4.614,0.721,6.714h142.81c0.465-2.103,0.73-4.356,0.73-6.714C534.578,589.7,534.321,587.437,533.856,585.334z"/>
	</g>
</g>
<radialGradient id="shield_4_" cx="96.655" cy="614.2304" r="405.0019" gradientTransform="matrix(1 0 0 -1 123.3452 834.285)" gradientUnits="userSpaceOnUse">
	<stop  offset="0" style="stop-color:#FFFFFF;stop-opacity:0.31"/>
	<stop  offset="0.19" style="stop-color:#FFFFFF;stop-opacity:0.25"/>
	<stop  offset="0.6" style="stop-color:#6B6B6B;stop-opacity:0.125"/>
	<stop  offset="1" style="stop-color:#000000;stop-opacity:0.125"/>
</radialGradient>
<path id="shield_1_" fill="url(#shield_4_)" d="M1.5,1.555h597v258.5c0,286.2-298.5,398.391-298.5,398.391S1.5,546.255,1.5,260.055
	V1.555z"/>
</svg>
