<?xml version="1.0" encoding="UTF-8" standalone="no"?>
<!-- Created with Inkscape (http://www.inkscape.org/) -->

<svg
   xmlns:dc="http://purl.org/dc/elements/1.1/"
   xmlns:cc="http://creativecommons.org/ns#"
   xmlns:rdf="http://www.w3.org/1999/02/22-rdf-syntax-ns#"
   xmlns:svg="http://www.w3.org/2000/svg"
   xmlns="http://www.w3.org/2000/svg"
   xmlns:sodipodi="http://sodipodi.sourceforge.net/DTD/sodipodi-0.dtd"
   xmlns:inkscape="http://www.inkscape.org/namespaces/inkscape"
   sodipodi:docname="HUN Alcsútdoboz címer.svg"
   inkscape:version="0.92.3 (2405546, 2018-03-11)"
   id="svg8"
   version="1.1"
   viewBox="0 0 169.16178 198.6797"
   height="198.6797mm"
   width="169.1618mm">
  <sodipodi:namedview
     inkscape:snap-text-baseline="true"
     inkscape:lockguides="false"
     inkscape:object-paths="true"
     inkscape:snap-bbox-midpoints="true"
     inkscape:snap-bbox-edge-midpoints="true"
     inkscape:bbox-nodes="true"
     inkscape:bbox-paths="true"
     showborder="false"
     fit-margin-bottom="0"
     fit-margin-right="0"
     fit-margin-left="0"
     fit-margin-top="0"
     inkscape:window-maximized="1"
     inkscape:window-y="27"
     inkscape:window-x="67"
     inkscape:window-height="1025"
     inkscape:window-width="1853"
     inkscape:snap-intersection-paths="true"
     inkscape:snap-center="true"
     inkscape:snap-object-midpoints="true"
     inkscape:snap-bbox="true"
     inkscape:snap-global="false"
     inkscape:guide-bbox="true"
     showguides="true"
     showgrid="false"
     inkscape:document-units="mm"
     inkscape:cy="191.71221"
     inkscape:cx="748.20506"
     inkscape:zoom="0.70710678"
     inkscape:pageshadow="2"
     inkscape:pageopacity="0.0"
     borderopacity="1.0"
     bordercolor="#666666"
     pagecolor="#ffffff"
     id="base"
     inkscape:snap-smooth-nodes="true"
     inkscape:snap-others="true"
     inkscape:current-layer="layer3"
     inkscape:snap-midpoints="true" />
  <defs
     id="defs2">
    <inkscape:path-effect
       is_visible="true"
       id="path-effect867"
       effect="ellipse_5pts" />
    <inkscape:path-effect
       effect="ellipse_5pts"
       id="path-effect863"
       is_visible="true" />
    <filter
       id="filter959"
       inkscape:label="Invert"
       style="color-interpolation-filters:sRGB">
      <feColorMatrix
         id="feColorMatrix957"
         result="color2"
         values="1 0 0 0 0 0 1 0 0 0 0 0 1 0 0 -0.21 -0.72 -0.07 2 0 " />
    </filter>
    <clipPath
       clipPathUnits="userSpaceOnUse"
       id="clipPath989">
      <path
         style="opacity:1;vector-effect:none;fill:none;fill-opacity:1;stroke:#ff00ff;stroke-width:0.13229166;stroke-linecap:butt;stroke-linejoin:miter;stroke-miterlimit:4;stroke-dasharray:none;stroke-dashoffset:0;stroke-opacity:1"
         d="m 1186.1458,1798.9297 8.0367,11.2779 h 63.3016 l 2.3812,-7.9706 c -32.8293,2.7366 -53.4927,2.3895 -67.9488,-2.7348 z"
         id="path991"
         inkscape:connector-curvature="0"
         sodipodi:nodetypes="cccccc" />
    </clipPath>
    <inkscape:path-effect
       effect="ellipse_5pts"
       id="path-effect867-5"
       is_visible="true" />
    <inkscape:path-effect
       is_visible="true"
       id="path-effect863-3"
       effect="ellipse_5pts" />
    <filter
       style="color-interpolation-filters:sRGB"
       inkscape:label="Invert"
       id="filter959-5">
      <feColorMatrix
         values="1 0 0 0 0 0 1 0 0 0 0 0 1 0 0 -0.21 -0.72 -0.07 2 0 "
         result="color2"
         id="feColorMatrix957-6" />
    </filter>
  </defs>
  <metadata
     id="metadata5">
    <rdf:RDF>
      <cc:Work
         rdf:about="">
        <dc:format>image/svg+xml</dc:format>
        <dc:type
           rdf:resource="http://purl.org/dc/dcmitype/StillImage" />
        <dc:title></dc:title>
      </cc:Work>
    </rdf:RDF>
  </metadata>
  <g
     inkscape:groupmode="layer"
     id="layer3"
     inkscape:label="RASZTER"
     transform="translate(-1734.641,-2619.435)" />
  <g
     inkscape:label="1. réteg"
     inkscape:groupmode="layer"
     id="layer1"
     transform="translate(-1734.641,-2619.435)">
    <g
       id="g1594"
       inkscape:transform-center-x="5.5480433"
       inkscape:transform-center-y="-4.3549132" />
    <path
       style="opacity:1;vector-effect:none;fill:none;fill-opacity:1;stroke:none;stroke-width:0.13229166;stroke-linecap:butt;stroke-linejoin:miter;stroke-miterlimit:4;stroke-dasharray:none;stroke-dashoffset:0;stroke-opacity:1"
       d="m 276.40061,568.16563 c 50.13735,17.98393 99.22735,13.50689 147.87762,-0.40021"
       id="path857"
       inkscape:connector-curvature="0"
       sodipodi:nodetypes="cc" />
    <path
       sodipodi:nodetypes="cc"
       inkscape:connector-curvature="0"
       id="path994"
       d="m 284.73208,996.77639 c 26.91694,22.70701 63.31382,20.68781 88.93963,0"
       style="opacity:1;vector-effect:none;fill:none;fill-opacity:1;stroke:#ff00ff;stroke-width:0;stroke-linecap:butt;stroke-linejoin:miter;stroke-miterlimit:4;stroke-dasharray:none;stroke-dashoffset:0;stroke-opacity:1" />
    <path
       sodipodi:nodetypes="cc"
       inkscape:connector-curvature="0"
       id="path912"
       d="m 464.2129,1069.5549 c 17.45605,6.3769 34.54642,5.0957 51.45463,0"
       style="opacity:1;vector-effect:none;fill:none;fill-opacity:1;stroke:#ff00ff;stroke-width:0;stroke-linecap:butt;stroke-linejoin:miter;stroke-miterlimit:4;stroke-dasharray:none;stroke-dashoffset:0;stroke-opacity:1" />
    <path
       sodipodi:nodetypes="cc"
       inkscape:connector-curvature="0"
       id="path857-7"
       d="m 1744.7689,1701.5888 c 50.1374,17.984 99.2274,13.5069 147.8776,-0.4002"
       style="opacity:1;vector-effect:none;fill:none;fill-opacity:1;stroke:none;stroke-width:0.13229166;stroke-linecap:butt;stroke-linejoin:miter;stroke-miterlimit:4;stroke-dasharray:none;stroke-dashoffset:0;stroke-opacity:1" />
    <path
       style="opacity:1;vector-effect:none;fill:none;fill-opacity:1;stroke:#ff00ff;stroke-width:0;stroke-linecap:butt;stroke-linejoin:miter;stroke-miterlimit:4;stroke-dasharray:none;stroke-dashoffset:0;stroke-opacity:1"
       d="m 1753.1004,2130.1996 c 26.9169,22.707 63.3138,20.6878 88.9396,0"
       id="path994-0"
       inkscape:connector-curvature="0"
       sodipodi:nodetypes="cc" />
    <rect
       style="opacity:1;vector-effect:none;fill:none;fill-opacity:1;fill-rule:evenodd;stroke:#ff00ff;stroke-width:0.05291667;stroke-linecap:butt;stroke-linejoin:miter;stroke-miterlimit:4;stroke-dasharray:none;stroke-dashoffset:0;stroke-opacity:1"
       id="rect951"
       width="10.476966"
       height="16.83798"
       x="1835.28"
       y="2576.4675" />
    <g
       id="g1430">
      <g
         id="g866">
        <path
           style="opacity:1;vector-effect:none;fill:#005ca1;fill-opacity:1;fill-rule:evenodd;stroke:#000000;stroke-width:3.17499995;stroke-linecap:butt;stroke-linejoin:miter;stroke-miterlimit:4;stroke-dasharray:none;stroke-dashoffset:0;stroke-opacity:1"
           d="m 1819.2221,2623.8516 c 44.2391,0 80.2282,36.8673 80.2282,83.1461 v 23.5546 c 0,46.2788 -35.9891,83.1462 -80.2282,83.1462 -44.239,0 -80.2281,-36.8674 -80.2281,-83.1462 v -23.5546 c 0,-46.2788 35.9891,-83.1461 80.2281,-83.1461 z"
           id="rect842"
           inkscape:connector-curvature="0"
           sodipodi:nodetypes="sssssss" />
        <path
           sodipodi:nodetypes="sssssss"
           inkscape:connector-curvature="0"
           id="path856"
           d="m 1819.2221,2623.8516 c 44.2391,0 80.2282,36.8673 80.2282,83.1461 v 23.5546 c 0,46.2788 -35.9891,83.1462 -80.2282,83.1462 -44.239,0 -80.2281,-36.8674 -80.2281,-83.1462 v -23.5546 c 0,-46.2788 35.9891,-83.1461 80.2281,-83.1461 z"
           style="opacity:1;vector-effect:none;fill:none;fill-opacity:1;fill-rule:evenodd;stroke:#da251c;stroke-width:2.3812499;stroke-linecap:butt;stroke-linejoin:miter;stroke-miterlimit:4;stroke-dasharray:none;stroke-dashoffset:0;stroke-opacity:1" />
      </g>
      <path
         sodipodi:nodetypes="sssssss"
         inkscape:connector-curvature="0"
         id="rect1736"
         d="m 1819.4094,2648.4181 c 32.7904,0 56.3682,27.449 56.0121,59.7576 l -0.2646,24.005 c -0.3544,32.1557 -22.9571,56.9508 -55.7475,56.9508 -32.7905,0 -55.3931,-24.7951 -55.7475,-56.9508 l -0.2646,-24.005 c -0.3561,-32.3086 23.2216,-59.7576 56.0121,-59.7576 z"
         style="opacity:1;vector-effect:none;fill:#d7d7d7;fill-opacity:1;fill-rule:evenodd;stroke:#000000;stroke-width:0.39687499;stroke-linecap:butt;stroke-linejoin:miter;stroke-miterlimit:4;stroke-dasharray:none;stroke-dashoffset:0;stroke-opacity:1" />
      <g
         id="g854">
        <path
           sodipodi:nodetypes="sssssss"
           inkscape:connector-curvature="0"
           id="path845"
           d="m 1819.2219,2621.0225 c 45.5575,0 82.9934,37.7501 82.9934,85.6238 v 24.2569 c 0,47.8737 -37.4359,85.624 -82.9934,85.624 -45.5573,0 -82.9934,-37.7503 -82.9934,-85.624 v -24.2569 c 0,-47.8737 37.4361,-85.6238 82.9934,-85.6238 z"
           style="opacity:1;vector-effect:none;fill:none;fill-opacity:1;fill-rule:evenodd;stroke:#000000;stroke-width:3.17499995;stroke-linecap:butt;stroke-linejoin:miter;stroke-miterlimit:4;stroke-dasharray:none;stroke-dashoffset:0;stroke-opacity:1" />
        <path
           style="opacity:1;vector-effect:none;fill:none;fill-opacity:1;fill-rule:evenodd;stroke:#d7d7d7;stroke-width:2.3812499;stroke-linecap:butt;stroke-linejoin:miter;stroke-miterlimit:4;stroke-dasharray:none;stroke-dashoffset:0;stroke-opacity:1"
           d="m 1819.2219,2621.0225 c 45.5575,0 82.9934,37.7501 82.9934,85.6238 v 24.2569 c 0,47.8737 -37.4359,85.624 -82.9934,85.624 -45.5573,0 -82.9934,-37.7503 -82.9934,-85.624 v -24.2569 c 0,-47.8737 37.4361,-85.6238 82.9934,-85.6238 z"
           id="path850"
           inkscape:connector-curvature="0"
           sodipodi:nodetypes="sssssss" />
      </g>
      <path
         inkscape:connector-curvature="0"
         id="path957"
         d="m 1760.9093,2709.744 c -0.2,-0.5237 -0.8023,-1.1227 -1.5614,-1.5527 -0.3227,-0.1828 -2.8599,-1.3987 -5.6382,-2.702 -5.9524,-2.7924 -7.1707,-3.3878 -7.1892,-3.5137 -0.014,-0.096 1.6742,-0.8313 7.1892,-3.1297 6.6616,-2.7762 7.1644,-3.0372 7.4889,-3.8871 0.1038,-0.2717 0.217,-0.4199 0.3207,-0.4199 0.1479,0 0.1576,0.1782 0.1258,2.3152 -0.053,3.5507 -0.1214,4.7941 -0.2651,4.7941 -0.08,0 -0.1447,-0.2017 -0.1884,-0.5846 -0.159,-1.3893 -0.381,-1.4321 -2.6877,-0.5179 l -1.1927,0.4727 v 2.0785 c 0,1.1432 -0.026,2.3272 -0.058,2.6311 l -0.058,0.5524 1.0634,0.4585 c 0.8403,0.3623 1.1749,0.4599 1.5953,0.4653 0.7983,0.01 1.0545,-0.3004 1.2457,-1.5102 0.04,-0.2504 0.1118,-0.3976 0.195,-0.3976 0.1101,0 0.132,0.3794 0.132,2.2842 0,1.2563 -0.025,2.3508 -0.057,2.4322 -0.1031,0.2687 -0.2996,0.1542 -0.4611,-0.2688 z m -4.4893,-4.1435 c 0.035,-0.09 0.088,-1.0583 0.1178,-2.1515 0.047,-1.748 0.036,-1.9879 -0.09,-1.9879 -0.2124,0 -4.9363,1.9321 -4.9363,2.019 0,0.094 4.5316,2.2758 4.7374,2.2813 0.059,0 0.1359,-0.071 0.1712,-0.1609 z"
         style="opacity:1;fill:#d7d7d7;fill-opacity:1;stroke:#d7d7d7;stroke-width:0.05291667;stroke-linecap:butt;stroke-linejoin:miter;stroke-miterlimit:4;stroke-dasharray:none;stroke-opacity:1" />
      <path
         inkscape:connector-curvature="0"
         id="path959"
         d="m 1762.1295,2691.079 c -0.031,-0.051 -0.013,-0.2507 0.041,-0.4444 0.1428,-0.5139 0.1206,-1.168 -0.048,-1.4082 -0.2189,-0.3126 -0.7127,-0.5305 -2.6893,-1.1866 -3.2539,-1.0803 -8.8976,-2.8594 -9.2492,-2.9157 -0.5328,-0.085 -0.938,0.2149 -1.2872,0.9539 -0.1642,0.3474 -0.3445,0.6031 -0.4254,0.6031 -0.077,0 -0.1405,-0.032 -0.1405,-0.071 0,-0.039 0.5262,-1.7061 1.1693,-3.7044 0.6432,-1.9982 1.1694,-3.65 1.1694,-3.6706 0,-0.021 0.089,-0.037 0.197,-0.037 0.1305,0 0.1802,0.044 0.1469,0.1308 -0.141,0.3676 -0.2656,1.3025 -0.2117,1.5895 0.1135,0.605 0.3291,0.7018 4.8982,2.1987 7.287,2.3875 7.1465,2.351 7.567,1.9643 0.2998,-0.2757 0.5808,-0.8913 0.9581,-2.0981 0.2429,-0.7772 0.2889,-1.0745 0.2881,-1.8638 -8e-4,-0.7901 -0.036,-1.0147 -0.2222,-1.4144 -0.2596,-0.5575 -1.1539,-1.5438 -2.0453,-2.2558 -0.6591,-0.5263 -0.8308,-0.8472 -0.395,-0.7378 0.4316,0.1083 4.3082,1.8811 4.5146,2.0645 0.042,0.037 -3.7494,11.7694 -3.9375,12.1853 -0.102,0.2255 -0.2064,0.2668 -0.2983,0.1182 z"
         style="opacity:1;fill:#d7d7d7;fill-opacity:1;stroke:#d7d7d7;stroke-width:0.05291667;stroke-linecap:butt;stroke-linejoin:miter;stroke-miterlimit:4;stroke-dasharray:none;stroke-opacity:1" />
      <path
         inkscape:connector-curvature="0"
         id="path961"
         d="m 1765.9243,2671.1504 c -1.703,-0.3579 -3.4323,-1.4016 -4.4564,-2.6897 -0.6158,-0.7745 -1.1213,-1.7183 -1.464,-2.7335 -0.2876,-0.852 -0.3001,-0.9505 -0.3019,-2.3854 0,-1.4519 0.01,-1.5233 0.3056,-2.3854 0.7249,-2.0948 1.7764,-3.3914 3.9444,-4.8637 0.6184,-0.4199 0.9363,-0.7796 0.9363,-1.0594 0,-0.1055 -0.09,-0.3765 -0.1988,-0.6024 -0.3027,-0.6253 -0.1277,-0.6852 0.5873,-0.201 1.0209,0.6914 3.4468,2.5288 3.4468,2.6105 0,0.1547 -0.2361,0.1497 -0.9305,-0.02 -0.9241,-0.2253 -2.2366,-0.2386 -2.9606,-0.03 -2.0921,0.6033 -3.4806,2.6549 -3.26,4.817 0.135,1.3231 0.6015,2.227 1.7936,3.4747 1.3321,1.3943 2.8789,2.4001 4.6091,2.9971 0.7807,0.2694 1.0087,0.3071 1.8758,0.31 0.9561,0 1.0095,-0.01 1.7006,-0.3492 0.5344,-0.2642 0.8543,-0.5063 1.2745,-0.9649 0.655,-0.7148 1.2723,-1.8859 1.4268,-2.7068 0.1031,-0.5478 0.066,-2.229 -0.066,-2.9681 -0.034,-0.193 -0.025,-0.3507 0.02,-0.3506 0.045,2e-4 0.2718,0.1637 0.5034,0.3634 l 0.4209,0.363 v 1.3907 c 0,1.5984 -0.1282,2.1226 -0.8419,3.4713 -0.777,1.4684 -1.9924,2.7607 -3.3921,3.6069 -1.2054,0.7287 -1.9064,0.9308 -3.3421,0.9639 -0.6688,0.015 -1.4023,-0.011 -1.63,-0.059 z"
         style="opacity:1;fill:#d7d7d7;fill-opacity:1;stroke:#d7d7d7;stroke-width:0.05291667;stroke-linecap:butt;stroke-linejoin:miter;stroke-miterlimit:4;stroke-dasharray:none;stroke-opacity:1" />
      <path
         inkscape:connector-curvature="0"
         id="path963"
         d="m 1780.5394,2658.4112 c -1.1729,-1.5048 -2.4614,-3.2576 -2.4614,-3.3482 0,-0.2151 0.216,-0.1523 0.762,0.2216 1.349,0.9236 2.3621,1.2753 3.6745,1.2753 2.0379,0 3.6961,-1.2659 3.7149,-2.8359 0.01,-0.7495 -0.1489,-1.1232 -0.6737,-1.595 -0.8022,-0.7213 -1.539,-0.7696 -4.4842,-0.294 -0.7975,0.1288 -1.8499,0.2596 -2.3387,0.2906 -2.1655,0.1375 -3.7131,-0.6625 -4.5475,-2.3509 -0.8071,-1.6329 -0.4293,-3.5209 0.982,-4.9083 0.7514,-0.7388 1.6237,-1.1891 3.0588,-1.5792 1.3091,-0.3558 1.3404,-0.3965 1.1045,-1.4372 -0.042,-0.1842 -0.022,-0.2564 0.07,-0.2543 0.1108,0 2.9748,3.5088 3.0589,3.7449 0.017,0.048 -0.034,0.1124 -0.1138,0.143 -0.087,0.033 -0.4236,-0.1306 -0.8396,-0.4089 -0.9735,-0.6511 -1.6539,-0.8627 -2.7739,-0.8627 -1.0444,0 -1.6409,0.1503 -2.2821,0.575 -1.3167,0.8722 -1.623,2.3725 -0.6773,3.3175 0.685,0.6846 1.4383,0.7305 4.2702,0.26 1.9693,-0.3271 3.2935,-0.4339 4.0512,-0.3265 2.0744,0.294 3.6081,2.0512 3.6171,4.1441 0.01,1.3669 -0.4579,2.4252 -1.532,3.4958 -0.9114,0.9084 -1.4938,1.2521 -2.9817,1.7597 -1.2972,0.4425 -1.483,0.6083 -1.5621,1.3936 -0.075,0.7456 -0.2348,0.6844 -1.0956,-0.42 z"
         style="opacity:1;fill:#d7d7d7;fill-opacity:1;stroke:#d7d7d7;stroke-width:0.05291667;stroke-linecap:butt;stroke-linejoin:miter;stroke-miterlimit:4;stroke-dasharray:none;stroke-opacity:1" />
      <path
         inkscape:connector-curvature="0"
         id="path965"
         d="m 1796.6977,2648.8333 c -1.2612,-0.3389 -2.1813,-1.108 -2.7437,-2.2933 -0.1853,-0.3905 -0.9447,-2.5392 -1.6875,-4.7748 -0.7427,-2.2356 -1.4352,-4.2309 -1.5388,-4.4338 -0.3497,-0.6851 -0.6778,-0.8352 -1.4954,-0.6841 -0.5285,0.098 -0.7969,0.014 -0.5643,-0.1749 0.2164,-0.1762 6.7223,-2.2696 7.0536,-2.2696 0.3024,0 0.089,0.2132 -0.4595,0.4593 -0.674,0.3024 -1.0944,0.738 -1.0944,1.1338 0,0.3573 0.6994,2.638 1.9498,6.3581 1.0432,3.1035 1.3578,3.9182 1.6971,4.3947 0.3007,0.4223 1.2335,0.8438 1.8675,0.8438 0.6147,0 1.4401,-0.1979 1.985,-0.4758 0.5634,-0.2874 1.2699,-1.0402 1.5518,-1.6536 0.3452,-0.7509 0.3417,-1.8477 -0.01,-3.1558 -0.2785,-1.0354 -1.9757,-6.2038 -2.4153,-7.355 -0.4228,-1.1072 -0.9012,-1.4117 -1.9256,-1.2256 -0.5146,0.094 -0.839,0 -0.5844,-0.1641 0.13,-0.085 4.5945,-1.592 4.7163,-1.592 0.03,0 0.055,0.061 0.055,0.1344 0,0.074 -0.2198,0.2528 -0.4885,0.3975 -0.2686,0.1448 -0.5884,0.4106 -0.7106,0.5906 -0.3871,0.5706 -0.2748,1.1633 0.9521,5.0273 1.4481,4.5608 1.5078,4.8004 1.5089,6.0577 0,1.0113 -0.01,1.0403 -0.3501,1.6838 -0.48,0.8952 -0.9797,1.4503 -1.7989,1.9982 -1.5848,1.06 -3.9797,1.5737 -5.4696,1.1732 z"
         style="opacity:1;fill:#d7d7d7;fill-opacity:1;stroke:#d7d7d7;stroke-width:0.05291667;stroke-linecap:butt;stroke-linejoin:miter;stroke-miterlimit:4;stroke-dasharray:none;stroke-opacity:1" />
      <path
         inkscape:connector-curvature="0"
         id="path967"
         d="m 1793.887,2631.3176 v -1.9496 l 1.454,-0.4473 c 0.7997,-0.246 1.4685,-0.4315 1.4861,-0.4123 0.018,0.019 -0.4377,1.0215 -1.012,2.2274 -0.839,1.762 -1.0987,2.2257 -1.3224,2.3615 -0.6101,0.3706 -0.6057,0.3836 -0.6057,-1.7797 z"
         style="opacity:1;fill:#d7d7d7;fill-opacity:1;stroke:#d7d7d7;stroke-width:0.05291667;stroke-linecap:butt;stroke-linejoin:miter;stroke-miterlimit:4;stroke-dasharray:none;stroke-opacity:1" />
      <path
         inkscape:connector-curvature="0"
         id="path969"
         d="m 1814.5603,2645.203 c 0,-0.088 0.1631,-0.1537 0.4911,-0.1982 0.7423,-0.1008 1.1782,-0.307 1.354,-0.6407 0.1386,-0.2629 0.1548,-0.9307 0.1602,-6.6067 l 0.01,-6.3142 -1.0757,0.01 c -0.9037,0.01 -1.1524,0.04 -1.5546,0.2167 -0.8025,0.3533 -1.355,1.0973 -1.6831,2.2665 -0.118,0.4206 -0.196,0.5511 -0.3293,0.5511 -0.1651,0 -0.1748,-0.1086 -0.1748,-1.9645 v -1.9644 h 6.6417 6.6416 v 1.9644 c 0,1.7154 -0.019,1.9645 -0.1456,1.9645 -0.1431,0 -0.3056,-0.3144 -0.6512,-1.2602 -0.1997,-0.5466 -0.8663,-1.2956 -1.3992,-1.5722 -0.3043,-0.158 -0.5971,-0.2033 -1.5272,-0.2365 l -1.1507,-0.041 0.028,6.4001 c 0.026,6.0143 0.039,6.4158 0.1991,6.6609 0.2072,0.3161 0.5875,0.4819 1.3024,0.5681 0.3734,0.045 0.5379,0.1056 0.5379,0.1983 0,0.1136 -0.5744,0.1336 -3.8353,0.1336 -3.2331,0 -3.8354,-0.021 -3.8354,-0.1315 z"
         style="opacity:1;fill:#d7d7d7;fill-opacity:1;stroke:#d7d7d7;stroke-width:0.05291667;stroke-linecap:butt;stroke-linejoin:miter;stroke-miterlimit:4;stroke-dasharray:none;stroke-opacity:1" />
      <path
         inkscape:connector-curvature="0"
         id="path971"
         d="m 1837.6369,2647.9563 c -0.2474,-0.045 -0.8999,-0.2176 -1.4499,-0.3831 -1.3511,-0.4067 -6.343,-2.1217 -6.6745,-2.2932 -0.3455,-0.1786 -0.351,-0.3616 -0.01,-0.2808 0.1415,0.033 0.54,0.086 0.8857,0.1168 0.6201,0.055 0.6325,0.052 0.942,-0.2602 0.3487,-0.3519 0.3322,-0.3079 2.7019,-7.1919 0.7705,-2.2381 1.4239,-4.2829 1.4521,-4.544 0.047,-0.4318 0.025,-0.5043 -0.2333,-0.7991 -0.1566,-0.1783 -0.4985,-0.4243 -0.7598,-0.5467 -0.4441,-0.2081 -0.6375,-0.4712 -0.3462,-0.4712 0.1366,0 5.0717,1.7003 6.6531,2.2922 1.6394,0.6136 2.5264,1.1433 3.4333,2.0501 1.4389,1.4389 2.036,3.0623 1.9125,5.1992 -0.1311,2.2658 -1.1396,4.3498 -2.7847,5.754 -0.5448,0.465 -1.7816,1.1088 -2.4208,1.2602 -0.5701,0.1349 -2.7464,0.1993 -3.3029,0.098 z m 0.8268,-1.2277 c 0.6165,-0.2307 1.564,-1.0694 2.0997,-1.8589 1.2406,-1.8279 2.0923,-4.5453 2.0826,-6.6445 -0.01,-1.6815 -0.5031,-2.7877 -1.5712,-3.5093 -0.5611,-0.3791 -1.8515,-0.8857 -1.9656,-0.7717 -0.159,0.159 -4.0627,11.593 -4.0627,11.8997 0,0.8585 2.061,1.3921 3.4172,0.8847 z"
         style="opacity:1;fill:#d7d7d7;fill-opacity:1;stroke:#d7d7d7;stroke-width:0.05291667;stroke-linecap:butt;stroke-linejoin:miter;stroke-miterlimit:4;stroke-dasharray:none;stroke-opacity:1" />
      <path
         inkscape:connector-curvature="0"
         id="path973"
         d="m 1857.0437,2658.7934 c -1.0589,-0.176 -2.5139,-0.9082 -3.734,-1.879 -1.3466,-1.0716 -2.4825,-2.8015 -2.782,-4.2366 -0.2624,-1.2574 -0.1517,-2.9506 0.2728,-4.174 0.5866,-1.6903 2.273,-3.6921 3.75,-4.4511 1.334,-0.6855 1.9387,-0.8233 3.6015,-0.8205 1.3336,0 1.5054,0.023 2.1416,0.2526 1.3665,0.4942 3.3152,1.8894 4.2968,3.0764 0.5642,0.6822 1.1438,1.8133 1.3847,2.7022 0.252,0.9297 0.2311,2.726 -0.043,3.6871 -0.8717,3.0577 -3.6181,5.5178 -6.5329,5.8517 -0.9616,0.1102 -1.6556,0.1076 -2.3557,-0.01 z m -0.4632,-1.5909 c 0.6867,-0.1465 1.3979,-0.4754 2.0739,-0.959 1.9165,-1.3714 4.2637,-4.6007 4.924,-6.7748 0.2797,-0.9208 0.2414,-2.1004 -0.09,-2.7753 -0.3166,-0.6448 -0.9316,-1.2275 -1.6506,-1.564 -0.5724,-0.2679 -0.6584,-0.2819 -1.4687,-0.24 -1.3884,0.072 -2.4635,0.6835 -3.9628,2.255 -1.597,1.6739 -2.966,3.8493 -3.3927,5.3912 -0.2363,0.8538 -0.2542,1.9422 -0.042,2.5642 0.3004,0.8816 1.5246,1.9191 2.4887,2.1091 0.5637,0.111 0.57,0.111 1.1205,-0.01 z"
         style="opacity:1;fill:#d7d7d7;fill-opacity:1;stroke:#d7d7d7;stroke-width:0.05291667;stroke-linecap:butt;stroke-linejoin:miter;stroke-miterlimit:4;stroke-dasharray:none;stroke-opacity:1" />
      <path
         inkscape:connector-curvature="0"
         id="path975"
         d="m 1870.5375,2674.5351 c -1.1679,-0.4355 -2.4621,-1.5497 -3.4942,-3.0082 -0.968,-1.3678 -3.2388,-4.7129 -3.8028,-5.6018 -0.6211,-0.9789 -0.5437,-1.186 0.17,-0.455 0.6552,0.6711 0.9316,0.7364 1.6454,0.3889 0.9131,-0.4446 9.4959,-6.2546 9.9341,-6.7248 0.3189,-0.3421 0.3019,-0.8947 -0.049,-1.5876 -0.2008,-0.397 -0.2386,-0.5498 -0.1564,-0.632 0.06,-0.06 0.1259,-0.09 0.1474,-0.068 0.1378,0.1435 4.4028,6.5259 4.7153,7.0564 0.671,1.1389 0.8881,1.8338 0.8913,2.8531 0,0.7749 -0.029,0.956 -0.2486,1.4147 -0.5661,1.1849 -1.5415,1.89 -2.6227,1.8959 -0.7676,0 -1.431,-0.2376 -2.3287,-0.8489 -0.4095,-0.2788 -0.7586,-0.493 -0.7757,-0.4759 -0.017,0.017 0.077,0.3876 0.2099,0.8234 0.1876,0.6166 0.2435,1.01 0.2523,1.7745 0.01,0.8963 -0.011,1.0283 -0.2478,1.5099 -0.3051,0.6212 -0.8842,1.1851 -1.5799,1.5383 -0.678,0.3442 -1.9438,0.4141 -2.6602,0.147 z m -0.1312,-3.0287 c 0.8654,-0.2599 1.6344,-0.8574 2.1624,-1.6802 0.2571,-0.4007 0.308,-0.5781 0.3439,-1.1974 0.051,-0.8769 -0.083,-1.338 -0.6868,-2.3696 l -0.4236,-0.7238 -2.0822,1.4038 c -1.1452,0.772 -2.2576,1.5538 -2.4719,1.7372 -0.6735,0.5765 -0.6179,1.2025 0.1772,1.9947 0.9342,0.9306 1.8288,1.1813 2.981,0.8353 z m 6.1586,-4.6178 c 1.3591,-0.6071 2.0067,-1.6784 1.7764,-2.9387 -0.099,-0.5436 -0.7743,-1.9507 -0.9722,-2.0266 -0.064,-0.025 -1.195,0.6749 -2.5129,1.5544 -2.7374,1.827 -2.5742,1.5672 -1.623,2.584 1.0692,1.143 2.0686,1.391 3.3317,0.8269 z"
         style="opacity:1;fill:#d7d7d7;fill-opacity:1;stroke:#d7d7d7;stroke-width:0.05291667;stroke-linecap:butt;stroke-linejoin:miter;stroke-miterlimit:4;stroke-dasharray:none;stroke-opacity:1" />
      <path
         inkscape:connector-curvature="0"
         id="path977"
         d="m 1880.1349,2694.0829 c -3.6359,-0.8005 -5.872,-3.6729 -6.0536,-7.7762 -0.044,-0.9964 -0.022,-1.2873 0.1469,-1.9644 0.5399,-2.1607 1.9427,-3.8856 3.9891,-4.9054 1.3875,-0.6914 2.0876,-0.8477 3.7885,-0.8455 1.3806,0 1.4888,0.016 2.2632,0.291 1.8752,0.667 3.3801,1.9648 4.2158,3.636 0.3765,0.7528 0.8182,2.2552 0.9754,3.3175 0.5545,3.7468 -1.7704,7.1067 -5.6331,8.1408 -1.0762,0.2882 -2.659,0.3337 -3.6922,0.1062 z m 0.9094,-3.5187 c 2.6787,-0.3808 5.4194,-1.4483 6.5335,-2.5448 0.7316,-0.7201 1.0695,-1.455 1.0696,-2.3269 2e-4,-1.6399 -0.8192,-2.7789 -2.3853,-3.3159 -0.4685,-0.1606 -0.7944,-0.1926 -1.971,-0.1935 -1.8988,0 -3.0145,0.1885 -4.9045,0.8352 -2.8777,0.9846 -4.2612,2.2507 -4.3762,4.0049 -0.087,1.3193 0.4934,2.4736 1.5557,3.0965 0.9653,0.5661 2.5301,0.7214 4.4782,0.4445 z"
         style="opacity:1;fill:#d7d7d7;fill-opacity:1;stroke:#d7d7d7;stroke-width:0.05291667;stroke-linecap:butt;stroke-linejoin:miter;stroke-miterlimit:4;stroke-dasharray:none;stroke-opacity:1" />
      <path
         inkscape:connector-curvature="0"
         id="path979"
         d="m 1879.4501,2713.5747 c -1.1227,-0.1185 -2.0606,-0.2349 -2.0842,-0.2585 -0.054,-0.054 -0.2191,-8.3851 -0.2221,-11.2317 v -2.1362 l 0.6315,0.3488 c 0.7967,0.4401 4.0714,2.3795 9.2553,5.4816 2.2222,1.3297 4.0913,2.4176 4.1536,2.4176 0.1615,0 0.032,-3.3609 -0.1583,-4.0897 -0.3369,-1.2938 -1.2253,-2.2059 -2.6225,-2.6926 -0.5963,-0.2076 -0.8992,-0.4287 -0.7676,-0.5603 0.053,-0.053 3.3666,0.1831 3.9719,0.2827 l 0.2919,0.048 0.06,3.0616 c 0.033,1.6839 0.086,4.2976 0.1181,5.8081 l 0.059,2.7465 -0.223,-0.1371 c -1.7578,-1.0812 -13.9392,-8.3184 -13.9568,-8.292 -0.066,0.098 0.1253,4.4055 0.2202,4.968 0.3034,1.7987 1.6754,3.3021 3.5393,3.8781 0.781,0.2414 0.9856,0.3603 0.8889,0.5168 -0.073,0.1174 -0.9481,0.073 -3.1521,-0.1597 z"
         style="opacity:1;fill:#d7d7d7;fill-opacity:1;stroke:#d7d7d7;stroke-width:0.05291667;stroke-linecap:butt;stroke-linejoin:miter;stroke-miterlimit:4;stroke-dasharray:none;stroke-opacity:1" />
      <path
         inkscape:connector-curvature="0"
         id="rect981"
         d="m 1817.8317,2792.4845 v 7.0745 h -7.074 v 2.8531 h 7.074 v 7.074 h 2.853 v -7.074 h 7.0745 v -2.8531 h -7.0745 v -7.0745 z"
         style="opacity:1;vector-effect:none;fill:#d7d7d7;fill-opacity:1;fill-rule:evenodd;stroke:#000000;stroke-width:0.39687499;stroke-linecap:butt;stroke-linejoin:miter;stroke-miterlimit:4;stroke-dasharray:none;stroke-dashoffset:0;stroke-opacity:1" />
      <g
         transform="translate(-137.58336)"
         id="g1053">
        <path
           style="opacity:1;vector-effect:none;fill:none;fill-opacity:1;stroke:#000000;stroke-width:0.39687499;stroke-linecap:round;stroke-linejoin:round;stroke-miterlimit:4;stroke-dasharray:none;stroke-dashoffset:0;stroke-opacity:1"
           d="m 1940.2049,2664.8151 c -0.191,0.9022 0.1526,1.0161 -0.092,1.8345 -0.6803,2.2743 -4.2735,4.9964 -2.4544,13.7098 0.789,-0.6734 1.4662,-0.9639 2.6441,-2.745 0.3385,2.2185 0.02,4.8172 0.3655,6.5815 1.3766,-1.3352 2.5361,-2.8512 3.5388,-4.498 0,1.4256 0.3515,2.2733 0.5292,3.4066 4.2193,-4.0675 3.3422,-13.0228 3.1419,-16.3711"
           id="path1008"
           inkscape:connector-curvature="0"
           sodipodi:nodetypes="cscccccc" />
        <path
           style="opacity:1;vector-effect:none;fill:none;fill-opacity:1;stroke:#000000;stroke-width:0.39687499;stroke-linecap:round;stroke-linejoin:round;stroke-miterlimit:4;stroke-dasharray:none;stroke-dashoffset:0;stroke-opacity:1"
           d="m 1940.3026,2677.6144 c 1.9377,-2.4378 3.1421,-5.1098 3.8647,-10.3621"
           id="path1010"
           inkscape:connector-curvature="0"
           sodipodi:nodetypes="cc" />
        <path
           style="opacity:1;vector-effect:none;fill:none;fill-opacity:1;stroke:#000000;stroke-width:0.39687499;stroke-linecap:round;stroke-linejoin:round;stroke-miterlimit:4;stroke-dasharray:none;stroke-dashoffset:0;stroke-opacity:1"
           d="m 1942.5689,2673.7929 c 0.8454,1.6262 1.2121,3.7994 1.638,5.905"
           id="path1012"
           inkscape:connector-curvature="0"
           sodipodi:nodetypes="cc" />
        <path
           style="opacity:1;vector-effect:none;fill:none;fill-opacity:1;stroke:#000000;stroke-width:0.39687499;stroke-linecap:round;stroke-linejoin:round;stroke-miterlimit:4;stroke-dasharray:none;stroke-dashoffset:0;stroke-opacity:1"
           d="m 1963.8817,2666.2467 0.1872,2.5725 c 1.14,7.1979 3.4079,9.9725 5.1917,11.4592 0.6188,-6.4687 0.2595,-12.185 -1.0992,-16.5574 1.3162,5.5933 4.3881,11.7719 8.7698,15.084 0.013,-4.8251 -1.2053,-9.7132 -3.6248,-14.663"
           id="path1014"
           inkscape:connector-curvature="0"
           sodipodi:nodetypes="cccccc" />
        <path
           style="opacity:1;vector-effect:none;fill:none;fill-opacity:1;stroke:#000000;stroke-width:0.39687499;stroke-linecap:round;stroke-linejoin:round;stroke-miterlimit:4;stroke-dasharray:none;stroke-dashoffset:0;stroke-opacity:1"
           d="m 1969.5428,2675.4852 c 0.9275,2.212 2.0829,3.7988 3.0619,5.027 0.3498,-1.6431 0.7487,-3.2043 0.9218,-5.1418"
           id="path1016"
           inkscape:connector-curvature="0"
           sodipodi:nodetypes="ccc" />
        <path
           style="opacity:1;vector-effect:none;fill:#006d33;fill-opacity:1;stroke:#000000;stroke-width:0.39687499;stroke-linecap:round;stroke-linejoin:round;stroke-miterlimit:4;stroke-dasharray:none;stroke-dashoffset:0;stroke-opacity:1"
           d="m 1955.9071,2689.3288 c -2.514,-10.286 -2.7122,-20.6628 -7.542,-30.8579 -0.2478,-0.4281 -1.045,-0.7582 -1.5318,0.1052 -0.3023,0.5771 -0.4062,1.1825 -0.9121,1.7305 -1.5391,1.4115 -3.6867,0.4675 -5.801,3.8157 -0.6575,1.0413 -0.7559,2.4864 -0.2693,3.2324 1.9996,-2.9203 7.131,-1.4002 8.188,2.1026 1.1977,-2.1739 0.2836,-6.2719 -1.1588,-8.566 0.2793,-0.8677 0.7009,-1.2319 1.0207,-1.1318 1.15,0.3598 6.1484,19.2047 7.141,29.5459"
           id="path1018"
           inkscape:connector-curvature="0"
           sodipodi:nodetypes="ccccscccsc" />
        <path
           style="opacity:1;vector-effect:none;fill:none;fill-opacity:1;stroke:#000000;stroke-width:0.39687499;stroke-linecap:round;stroke-linejoin:round;stroke-miterlimit:4;stroke-dasharray:none;stroke-dashoffset:0;stroke-opacity:1"
           d="m 1940.4606,2665.2294 c 0.52,-1.0851 1.1287,-2.1639 2.935,-3.1571"
           id="path1020"
           inkscape:connector-curvature="0"
           sodipodi:nodetypes="cc" />
        <path
           style="opacity:1;vector-effect:none;fill:none;fill-opacity:1;stroke:#000000;stroke-width:0.39687499;stroke-linecap:round;stroke-linejoin:round;stroke-miterlimit:4;stroke-dasharray:none;stroke-dashoffset:0;stroke-opacity:1"
           d="m 1942.0625,2664.4694 c 0.4524,-0.894 0.9801,-1.782 2.5959,-2.5842"
           id="path1022"
           inkscape:connector-curvature="0"
           sodipodi:nodetypes="cc" />
        <path
           style="opacity:1;vector-effect:none;fill:none;fill-opacity:1;stroke:#000000;stroke-width:0.39687499;stroke-linecap:round;stroke-linejoin:round;stroke-miterlimit:4;stroke-dasharray:none;stroke-dashoffset:0;stroke-opacity:1"
           d="m 1939.911,2666.1181 c 2.043,-1.2898 3.7772,-0.9168 4.8994,-0.5028"
           id="path1024"
           inkscape:connector-curvature="0"
           sodipodi:nodetypes="cc" />
        <path
           style="opacity:1;vector-effect:none;fill:#006d33;fill-opacity:1;stroke:#000000;stroke-width:0.39687499;stroke-linecap:round;stroke-linejoin:round;stroke-miterlimit:4;stroke-dasharray:none;stroke-dashoffset:0;stroke-opacity:1"
           d="m 1964.1156,2669.1934 c 1.8614,-6.6646 6.7371,-5.7411 10.3367,-2.8999 0.9333,-2.9296 -5.1567,-6.3592 -6.782,-7.1094 -0.8694,-1.8267 -2.6944,-4.3926 -4.0458,-2.4322 -6.6787,9.6886 -5.6807,21.4234 -8.7698,32.5067 l 1.1693,-0.1169 c 1.551,-8.5454 2.6591,-21.9415 8.0097,-30.8346 0.3982,-0.6617 0.921,-1.1158 1.5786,0.1169 0.243,0.4556 0.2265,1.3155 0.078,1.7971 -0.7577,2.4568 -3.0862,3.0732 -1.5746,8.9723 z"
           id="path1026"
           inkscape:connector-curvature="0"
           sodipodi:nodetypes="cccsccsssc" />
        <path
           style="opacity:1;vector-effect:none;fill:none;fill-opacity:1;stroke:#000000;stroke-width:0.39687499;stroke-linecap:round;stroke-linejoin:round;stroke-miterlimit:4;stroke-dasharray:none;stroke-dashoffset:0;stroke-opacity:1"
           d="m 1965.6708,2661.8034 c -1.3053,2.0535 -1.2881,3.8608 -1.2862,5.6711"
           id="path1028"
           inkscape:connector-curvature="0"
           sodipodi:nodetypes="cc" />
        <path
           style="opacity:1;vector-effect:none;fill:none;fill-opacity:1;stroke:#000000;stroke-width:0.39687499;stroke-linecap:round;stroke-linejoin:round;stroke-miterlimit:4;stroke-dasharray:none;stroke-dashoffset:0;stroke-opacity:1"
           d="m 1969.0033,2663.6392 c 2.3038,-0.1728 3.9328,0.6341 5.2736,1.8592"
           id="path1030"
           inkscape:connector-curvature="0"
           sodipodi:nodetypes="cc" />
        <path
           style="opacity:1;vector-effect:none;fill:#006d33;fill-opacity:1;stroke:#000000;stroke-width:0.39687499;stroke-linecap:round;stroke-linejoin:round;stroke-miterlimit:4;stroke-dasharray:none;stroke-dashoffset:0;stroke-opacity:1"
           d="m 1955.4394,2684.7919 c 2.3257,-11.9211 5.7197,-23.9845 4.303,-35.4066 -4.8372,9.5925 -4.3813,16.2208 -5.0514,23.4797"
           id="path1032"
           inkscape:connector-curvature="0"
           sodipodi:nodetypes="ccc" />
        <path
           style="opacity:1;vector-effect:none;fill:none;fill-opacity:1;stroke:#000000;stroke-width:0.39687499;stroke-linecap:round;stroke-linejoin:round;stroke-miterlimit:4;stroke-dasharray:none;stroke-dashoffset:0;stroke-opacity:1"
           d="m 1957.9651,2653.3058 c 0.1606,8.3724 -1.5561,16.2797 -2.8443,22.6218"
           id="path1034"
           inkscape:connector-curvature="0"
           sodipodi:nodetypes="cc" />
        <path
           style="opacity:1;vector-effect:none;fill:#006d33;fill-opacity:1;stroke:#000000;stroke-width:0.39687499;stroke-linecap:round;stroke-linejoin:round;stroke-miterlimit:4;stroke-dasharray:none;stroke-dashoffset:0;stroke-opacity:1"
           d="m 1955.2861,2689.3222 c 2.3007,-11.2249 -0.3427,-27.563 -8.9296,-38.8276 4.157,12.1162 7.4122,24.8637 8.9296,38.8276 z"
           id="path1036"
           inkscape:connector-curvature="0"
           sodipodi:nodetypes="ccc" />
      </g>
      <g
         transform="translate(-164.04171)"
         id="g996">
        <path
           inkscape:transform-center-y="52.122095"
           inkscape:transform-center-x="19.050006"
           sodipodi:nodetypes="sscccsscs"
           inkscape:connector-curvature="0"
           id="path992"
           d="m 1953.2626,2773.9076 c -5.5808,-1.6193 -9.7504,-8.2537 -9.7504,-13.4786 v -70.7099 l 1.5876,-1.0584 74.6125,1.0584 v 70.7099 c 0,5.2249 -9.6888,6.9015 -15.2696,8.5208 -9.0436,2.624 -15.2704,7.0385 -22.0353,19.3507 -6.765,-12.3122 -20.1012,-11.7689 -29.1448,-14.3929 z"
           style="opacity:1;vector-effect:none;fill:#d7d7d7;fill-opacity:1;stroke:#000000;stroke-width:0.39687499;stroke-linecap:round;stroke-linejoin:round;stroke-miterlimit:4;stroke-dasharray:none;stroke-dashoffset:0;stroke-opacity:1" />
        <path
           style="opacity:1;vector-effect:none;fill:#005ca1;fill-opacity:1;stroke:#000000;stroke-width:0.39687499;stroke-linecap:round;stroke-linejoin:round;stroke-miterlimit:4;stroke-dasharray:none;stroke-dashoffset:0;stroke-opacity:1"
           d="m 1954.4293,2772.1944 c -5.5808,-1.6193 -9.3295,-7.5989 -9.3295,-12.8238 v -70.7099 h 38.1001 38.1 v 70.7099 c 0,5.2249 -3.7487,11.2045 -9.3295,12.8238 -9.0436,2.624 -22.0056,2.3146 -28.7705,14.6268 -6.765,-12.3122 -19.727,-12.0028 -28.7706,-14.6268 z"
           id="path988"
           inkscape:connector-curvature="0"
           sodipodi:nodetypes="sscccsscs"
           inkscape:transform-center-x="19.050006"
           inkscape:transform-center-y="52.122095" />
      </g>
      <path
         inkscape:transform-center-y="-26.037878"
         inkscape:transform-center-x="60.000355"
         sodipodi:nodetypes="ccccccccccc"
         inkscape:connector-curvature="0"
         id="path998"
         d="m 1773.5165,2774.7164 c -5.5653,-3.1559 -8.545,-8.3323 -9.4961,-15.2294 -1.2282,1.9882 -1.6368,3.6857 -1.4967,5.2385 -2.3645,-5.7152 -2.4288,-12.2146 -1.2628,-18.8024 -2.5163,1.961 -3.9573,3.2181 -5.332,5.0046 -0.858,-3.0741 -1.6327,-6.434 -2.0581,-10.9914 -2.099,4.2823 -2.9424,7.5422 -3.3675,10.3366 -1.9021,-0.3523 -3.8041,-0.1021 -5.7062,-5e-4 3.7596,4.3022 7.4497,6.6626 10.6172,13.8913 l -5.8933,-1.637 c 5.3463,7.7811 13.7957,11.4939 23.9955,12.1897 z"
         style="opacity:1;vector-effect:none;fill:#d7d7d7;fill-opacity:1;stroke:#000000;stroke-width:0.39687499;stroke-linecap:round;stroke-linejoin:round;stroke-miterlimit:4;stroke-dasharray:none;stroke-dashoffset:0;stroke-opacity:1" />
      <path
         inkscape:transform-center-y="8.2084712"
         inkscape:transform-center-x="32.159906"
         sodipodi:nodetypes="ccccccccccc"
         inkscape:connector-curvature="0"
         id="path1000"
         d="m 1807.7524,2806.0253 c -4.0105,-9.3 -10.2514,-16.8101 -19.2468,-21.0006 l 2.1048,4.4199 c -5.4659,-5.3715 -11.6635,-12.1226 -22.9184,-12.3245 1.7574,1.5874 3.7036,2.5766 5.1216,5.2385 -2.457,0.6854 -4.5458,1.7917 -6.5715,2.97 3.2728,0.072 6.1784,1.0741 8.419,2.2918 -1.9699,1.5227 -3.257,3.6178 -3.2974,6.7587 10.1334,-2.4896 17.4647,-1.3883 23.9005,1.4031 -2.3113,0.4537 -4.6843,1.0012 -6.6884,2.8063 9.9991,0.4852 15.51,4.8297 19.1766,7.4368 z"
         style="opacity:1;vector-effect:none;fill:#d7d7d7;fill-opacity:1;stroke:#000000;stroke-width:0.39687499;stroke-linecap:round;stroke-linejoin:round;stroke-miterlimit:4;stroke-dasharray:none;stroke-dashoffset:0;stroke-opacity:1" />
      <path
         style="opacity:1;vector-effect:none;fill:#d7d7d7;fill-opacity:1;stroke:#000000;stroke-width:0.39687499;stroke-linecap:round;stroke-linejoin:round;stroke-miterlimit:4;stroke-dasharray:none;stroke-dashoffset:0;stroke-opacity:1"
         d="m 1864.7978,2774.7164 c 5.5653,-3.1559 8.545,-8.3323 9.4961,-15.2294 1.2282,1.9882 1.6368,3.6857 1.4967,5.2385 2.3645,-5.7152 2.4288,-12.2146 1.2628,-18.8024 2.5163,1.961 3.9573,3.2181 5.332,5.0046 0.858,-3.0741 1.6327,-6.434 2.0581,-10.9914 2.099,4.2823 2.9424,7.5422 3.3675,10.3366 1.9021,-0.3523 3.8041,-0.1021 5.7062,-5e-4 -3.7596,4.3022 -7.4497,6.6626 -10.6172,13.8913 l 5.8933,-1.637 c -5.3463,7.7811 -13.7957,11.4939 -23.9955,12.1897 z"
         id="path1004"
         inkscape:connector-curvature="0"
         sodipodi:nodetypes="ccccccccccc"
         inkscape:transform-center-x="-60.000341"
         inkscape:transform-center-y="-26.037878" />
      <path
         style="opacity:1;vector-effect:none;fill:#d7d7d7;fill-opacity:1;stroke:#000000;stroke-width:0.39687499;stroke-linecap:round;stroke-linejoin:round;stroke-miterlimit:4;stroke-dasharray:none;stroke-dashoffset:0;stroke-opacity:1"
         d="m 1830.5619,2806.0253 c 4.0105,-9.3 10.2514,-16.8101 19.2468,-21.0006 l -2.1048,4.4199 c 5.4659,-5.3715 11.6635,-12.1226 22.9184,-12.3245 -1.7574,1.5874 -3.7036,2.5766 -5.1216,5.2385 2.457,0.6854 4.5458,1.7917 6.5715,2.97 -3.2728,0.072 -6.1784,1.0741 -8.419,2.2918 1.9699,1.5227 3.257,3.6178 3.2974,6.7587 -10.1334,-2.4896 -17.4647,-1.3883 -23.9005,1.4031 2.3113,0.4537 4.6843,1.0012 6.6884,2.8063 -9.9991,0.4852 -15.51,4.8297 -19.1766,7.4368 z"
         id="path1006"
         inkscape:connector-curvature="0"
         sodipodi:nodetypes="ccccccccccc"
         inkscape:transform-center-x="-32.159892"
         inkscape:transform-center-y="8.2084712" />
      <g
         transform="translate(-291.04168)"
         id="g1336">
        <path
           style="opacity:1;vector-effect:none;fill:#d7d7d7;fill-opacity:1;stroke:#000000;stroke-width:0.26458332;stroke-linecap:round;stroke-linejoin:round;stroke-miterlimit:4;stroke-dasharray:none;stroke-dashoffset:0;stroke-opacity:1"
           d="m 2084.7169,2745.3151 c 6.4066,-29.0372 17.4195,-44.0713 30.0277,-54.2558 -2.1962,5.4257 -2.0226,10.0219 -1.7773,14.593 -9.255,6.3065 -18.0591,16.8046 -23.8539,41.4401"
           id="path1216"
           inkscape:connector-curvature="0"
           sodipodi:nodetypes="cccc" />
        <path
           style="opacity:1;vector-effect:none;fill:#000000;fill-opacity:1;stroke:#000000;stroke-width:0.26458332;stroke-linecap:round;stroke-linejoin:round;stroke-miterlimit:4;stroke-dasharray:none;stroke-dashoffset:0;stroke-opacity:1"
           d="m 2075.6665,2745.2683 c 1.2367,2.9837 4.738,0.7697 3.6014,-1.2161 z"
           id="path1214"
           inkscape:connector-curvature="0"
           sodipodi:nodetypes="ccc" />
        <path
           style="opacity:1;vector-effect:none;fill:#000000;fill-opacity:1;stroke:#000000;stroke-width:0.26458332;stroke-linecap:round;stroke-linejoin:round;stroke-miterlimit:4;stroke-dasharray:none;stroke-dashoffset:0;stroke-opacity:1"
           d="m 2087.2426,2745.9231 c 4.1832,-22.4853 14.0369,-35.6809 23.9473,-48.7834 l 0.1403,7.9981 c -16.2271,12.0341 -20.7655,31.8341 -23.1522,41.2062"
           id="path1218"
           inkscape:connector-curvature="0"
           sodipodi:nodetypes="cccc" />
        <path
           style="opacity:1;vector-effect:none;fill:#d7d7d7;fill-opacity:1;stroke:#000000;stroke-width:0.26458332;stroke-linecap:round;stroke-linejoin:round;stroke-miterlimit:4;stroke-dasharray:none;stroke-dashoffset:0;stroke-opacity:1"
           d="m 2079.3381,2744.0522 c -0.2138,2.5997 -2.8196,2.4884 -3.6232,1.2156 -0.2223,-1.6861 0.5612,-2.5209 1.4293,-2.9913 0.7581,-0.4108 2.3812,-0.457 3.9048,0.077 5.0665,1.7757 11.5502,5.9932 14.8464,6.165 -0.4309,-3.2723 3.2445,-2.8706 3.5943,-1.3787 0.5621,2.3976 -1.1964,5.0085 -5.931,3.0315 -4.4055,-1.8396 -11.6819,-5.4522 -14.2206,-6.1191 z"
           id="path1212"
           inkscape:connector-curvature="0"
           sodipodi:nodetypes="ccsscssc" />
        <path
           style="opacity:1;vector-effect:none;fill:#d7d7d7;fill-opacity:1;stroke:#000000;stroke-width:0.26458332;stroke-linecap:round;stroke-linejoin:round;stroke-miterlimit:4;stroke-dasharray:none;stroke-dashoffset:0;stroke-opacity:1"
           d="m 2118.7206,2751.8632 c -1.2044,0.4769 -2.3327,1.2909 -3.2272,2.7595 0.6111,5.8647 2.837,10.2223 6.1271,13.4704 1.149,-0.9894 2.2122,-2.0679 2.8063,-3.1805"
           id="path1080"
           inkscape:connector-curvature="0"
           sodipodi:nodetypes="cccc" />
        <path
           style="opacity:1;vector-effect:none;fill:#000000;fill-opacity:1;stroke:#000000;stroke-width:0.26458332;stroke-linecap:round;stroke-linejoin:round;stroke-miterlimit:4;stroke-dasharray:none;stroke-dashoffset:0;stroke-opacity:1"
           d="m 2118.8656,2752.3426 c -0.9312,0.6854 -1.8813,1.2855 -2.7286,2.3482 1.5218,4.7333 3.4901,8.4398 5.4405,12.1874 l 2.0836,-2.6128"
           id="path1082"
           inkscape:connector-curvature="0"
           sodipodi:nodetypes="cccc" />
        <path
           style="opacity:1;vector-effect:none;fill:#d7d7d7;fill-opacity:1;stroke:#000000;stroke-width:0.26458332;stroke-linecap:round;stroke-linejoin:round;stroke-miterlimit:4;stroke-dasharray:none;stroke-dashoffset:0;stroke-opacity:1"
           d="m 2118.171,2754.6908 c -0.3938,0.3323 -0.7306,0.693 -0.9922,1.0914 0.5892,2.2061 1.4721,3.8246 2.3151,5.5232 0.5803,-0.3403 0.9501,-0.891 1.3891,-1.3726"
           id="path1086"
           inkscape:connector-curvature="0"
           sodipodi:nodetypes="cccc" />
        <path
           style="opacity:1;vector-effect:none;fill:#d7d7d7;fill-opacity:1;stroke:#000000;stroke-width:0.26458332;stroke-linecap:round;stroke-linejoin:round;stroke-miterlimit:4;stroke-dasharray:none;stroke-dashoffset:0;stroke-opacity:1"
           d="m 2123.165,2763.3228 -0.7937,0.678 c -1.1477,-3.502 -2.7013,-6.7719 -4.4649,-9.9219 l 1.8025,-1.3063 4.1011,9.8888"
           id="path1084"
           inkscape:connector-curvature="0"
           sodipodi:nodetypes="ccccc" />
        <path
           style="opacity:1;vector-effect:none;fill:#d7d7d7;fill-opacity:1;stroke:#000000;stroke-width:0.26458332;stroke-linecap:round;stroke-linejoin:round;stroke-miterlimit:4;stroke-dasharray:none;stroke-dashoffset:0;stroke-opacity:1"
           d="m 2094.7556,2752.8222 c 7.2064,-0.075 12.702,1.7228 18.0909,3.638 l -2.4143,12.9646 c -6.0798,-1.8764 -12.2873,-4.7099 -18.7193,-9.2274"
           id="path1055"
           inkscape:connector-curvature="0"
           sodipodi:nodetypes="cccc" />
        <path
           style="opacity:1;vector-effect:none;fill:#000000;fill-opacity:1;stroke:#000000;stroke-width:0.26458332;stroke-linecap:round;stroke-linejoin:round;stroke-miterlimit:4;stroke-dasharray:none;stroke-dashoffset:0;stroke-opacity:1"
           d="m 2095.4832,2753.3844 c 5.5552,0.6418 11.0695,1.8168 16.5365,3.605 l -0.7607,3.7041 c -5.2929,-2.4608 -10.7258,-4.5718 -16.3711,-6.1515 l -0.5953,1.819 c 6.8698,3.8523 12.3895,6.5655 16.4372,8.0367 l -1.2237,4.0349 c -5.488,-2.6618 -10.8703,-4.8304 -16.6026,-8.632"
           id="path1057"
           inkscape:connector-curvature="0"
           sodipodi:nodetypes="cccccccc" />
        <path
           style="opacity:1;vector-effect:none;fill:#d7d7d7;fill-opacity:1;stroke:#000000;stroke-width:0.26458332;stroke-linecap:round;stroke-linejoin:round;stroke-miterlimit:4;stroke-dasharray:none;stroke-dashoffset:0;stroke-opacity:1"
           d="m 2115.353,2754.6227 c 1.6705,7.5436 4.621,10.4599 7.3901,14.0317 -4.4713,4.1254 -9.2624,4.2009 -14.2624,1.6303 2.1089,-5.8702 2.3426,-10.5715 3.0096,-14.6844 0.2597,-1.6011 2.2296,-1.1309 3.8627,-0.9776 z"
           id="path1063"
           inkscape:connector-curvature="0"
           sodipodi:nodetypes="cccsc" />
        <path
           style="opacity:1;vector-effect:none;fill:#000000;fill-opacity:1;stroke:#000000;stroke-width:0.26458332;stroke-linecap:round;stroke-linejoin:round;stroke-miterlimit:4;stroke-dasharray:none;stroke-dashoffset:0;stroke-opacity:1"
           d="m 2113.607,2753.4838 -0.5788,0.033 c -0.4561,0.7 -1.2081,1.4 -1.1906,2.1001 0.14,5.6114 -0.6854,10.0899 -1.5379,14.5361 3.4413,1.3457 7.3772,1.0859 10.1534,-1.2568 -2.2511,-2.944 -4.6648,-5.2881 -5.5563,-13.2457 -0.531,-1.0253 -0.8796,-1.5033 -1.2898,-2.1663 z m -0.8951,4.0235 c 0.3125,0.024 0.6709,0.3304 0.6765,0.6816 0.032,3.1416 0.2301,4.7105 0.3979,6.8642 0.078,0.9988 -2.1785,1.3984 -2.0815,0.3504 0.217,-2.3491 0.5493,-4.2642 0.5493,-7.3313 -5e-4,-0.4324 0.2148,-0.5839 0.4578,-0.5649 z m 1.678,0.1561 c 0.1971,-0.01 0.3998,0.1304 0.402,0.3271 0.033,2.9011 0.765,4.3596 1.2511,6.3257 0.1578,0.6383 -1.6295,1.6363 -1.6722,0.7953 l -0.3509,-6.9107 c -0.019,-0.3796 0.1729,-0.5305 0.37,-0.5374 z"
           id="path1065"
           inkscape:connector-curvature="0" />
        <path
           style="opacity:1;vector-effect:none;fill:#d7d7d7;fill-opacity:1;stroke:#000000;stroke-width:0.26458332;stroke-linecap:round;stroke-linejoin:round;stroke-miterlimit:4;stroke-dasharray:none;stroke-dashoffset:0;stroke-opacity:1"
           d="m 2113.0282,2753.5332 c 0.2625,0.5679 0.4139,1.4317 0.5457,2.3482 0.266,-0.6684 0.3747,-1.4028 0.3803,-1.8108"
           id="path1067"
           inkscape:connector-curvature="0"
           sodipodi:nodetypes="ccc" />
        <path
           style="opacity:1;vector-effect:none;fill:#d7d7d7;fill-opacity:1;stroke:#000000;stroke-width:0.26458332;stroke-linecap:round;stroke-linejoin:round;stroke-miterlimit:4;stroke-dasharray:none;stroke-dashoffset:0;stroke-opacity:1"
           d="m 2121.6437,2748.1589 c -1.4489,0.1594 -2.8723,0.829 -4.2334,2.745 3.6102,5.9733 5.3284,11.1726 7.0446,16.3711 1.2889,-2.0073 2.757,-3.8355 4.3987,-5.4901"
           id="path1104"
           inkscape:connector-curvature="0"
           sodipodi:nodetypes="cccc" />
        <path
           style="opacity:1;vector-effect:none;fill:#000000;fill-opacity:1;stroke:#000000;stroke-width:0.26458332;stroke-linecap:round;stroke-linejoin:round;stroke-miterlimit:4;stroke-dasharray:none;stroke-dashoffset:0;stroke-opacity:1"
           d="m 2121.809,2748.655 c -0.9867,0.1193 -2.0858,0.5054 -3.7703,2.282 2.1816,2.7777 5.0695,8.4516 6.3831,14.3537 0.9779,-1.9357 2.1531,-3.477 3.5719,-4.531"
           id="path1106"
           inkscape:connector-curvature="0"
           sodipodi:nodetypes="cccc" />
        <path
           style="opacity:1;vector-effect:none;fill:#d7d7d7;fill-opacity:1;stroke:#000000;stroke-width:0.26458332;stroke-linecap:round;stroke-linejoin:round;stroke-miterlimit:4;stroke-dasharray:none;stroke-dashoffset:0;stroke-opacity:1"
           d="m 2121.6271,2750.722 c -0.6063,0.3846 -1.2127,0.6201 -1.819,1.3726 1.3142,1.9091 2.2237,3.9003 2.8774,5.9862 l 1.7859,-1.8852"
           id="path1110"
           inkscape:connector-curvature="0"
           sodipodi:nodetypes="cccc" />
        <path
           style="opacity:1;vector-effect:none;fill:#d7d7d7;fill-opacity:1;stroke:#000000;stroke-width:0.26458332;stroke-linecap:round;stroke-linejoin:round;stroke-miterlimit:4;stroke-dasharray:none;stroke-dashoffset:0;stroke-opacity:1"
           d="m 2122.1067,2749.0849 c -0.8542,0.055 -1.1827,0.461 -1.5214,0.8599 3.1345,4.5383 4.4081,8.1462 5.4571,11.6417 0.4308,-0.5984 0.7232,-1.2891 1.6536,-1.5544"
           id="path1108"
           inkscape:connector-curvature="0"
           sodipodi:nodetypes="cccc" />
        <path
           style="opacity:1;vector-effect:none;fill:#d7d7d7;fill-opacity:1;stroke:#000000;stroke-width:0.26458332;stroke-linecap:round;stroke-linejoin:round;stroke-miterlimit:4;stroke-dasharray:none;stroke-dashoffset:0;stroke-opacity:1"
           d="m 2125.2155,2744.8847 c -1.8327,-0.1109 -3.6281,-0.028 -5.0271,2.1166 3.495,4.7181 6.3036,10.1226 8.0367,16.6026 1.1069,-1.6067 2.441,-4.1983 3.3073,-4.7625"
           id="path1118"
           inkscape:connector-curvature="0"
           sodipodi:nodetypes="cccc" />
        <path
           style="opacity:1;vector-effect:none;fill:#000000;fill-opacity:1;stroke:#000000;stroke-width:0.26458332;stroke-linecap:round;stroke-linejoin:round;stroke-miterlimit:4;stroke-dasharray:none;stroke-dashoffset:0;stroke-opacity:1"
           d="m 2125.3477,2745.7115 c -1.2801,-0.035 -2.6068,0.151 -4.1341,1.2898 2.5721,3.2625 5.3514,8.5122 7.2099,14.3537 0.6009,-1.4812 1.4743,-2.622 2.3151,-3.8034"
           id="path1120"
           inkscape:connector-curvature="0"
           sodipodi:nodetypes="cccc" />
        <path
           style="opacity:1;vector-effect:none;fill:#d7d7d7;fill-opacity:1;stroke:#000000;stroke-width:0.26458332;stroke-linecap:round;stroke-linejoin:round;stroke-miterlimit:4;stroke-dasharray:none;stroke-dashoffset:0;stroke-opacity:1"
           d="m 2124.7073,2747.0924 c -0.5938,0.4126 -1.2424,0.6973 -1.6604,1.5201 1.1964,1.6811 2.2866,3.5921 3.1104,6.0804 0.7366,-0.8975 1.4111,-1.6502 1.7774,-1.6838"
           id="path1124"
           inkscape:connector-curvature="0"
           sodipodi:nodetypes="cccc" />
        <path
           style="opacity:1;vector-effect:none;fill:#d7d7d7;fill-opacity:1;stroke:#000000;stroke-width:0.26458332;stroke-linecap:round;stroke-linejoin:round;stroke-miterlimit:4;stroke-dasharray:none;stroke-dashoffset:0;stroke-opacity:1"
           d="m 2125.6428,2746.3207 c -0.5201,0.074 -0.9749,0.016 -1.7305,0.5612 2.3294,3.3905 3.9248,7.0103 5.2618,10.7109 l 1.3096,-0.7016"
           id="path1122"
           inkscape:connector-curvature="0"
           sodipodi:nodetypes="cccc" />
        <path
           style="opacity:1;vector-effect:none;fill:#d7d7d7;fill-opacity:1;stroke:#000000;stroke-width:0.26458332;stroke-linecap:round;stroke-linejoin:round;stroke-miterlimit:4;stroke-dasharray:none;stroke-dashoffset:0;stroke-opacity:1"
           d="m 2128.6362,2740.0766 c -1.927,0.6788 -3.8324,1.455 -5.636,2.6894 3.3192,5.3911 6.2123,11.3945 8.3488,18.0306 1.1688,-1.9887 1.9694,-4.8161 3.5079,-6.1271"
           id="path1132"
           inkscape:connector-curvature="0"
           sodipodi:nodetypes="cccc" />
        <path
           style="opacity:1;vector-effect:none;fill:#000000;fill-opacity:1;stroke:#000000;stroke-width:0.26458332;stroke-linecap:round;stroke-linejoin:round;stroke-miterlimit:4;stroke-dasharray:none;stroke-dashoffset:0;stroke-opacity:1"
           d="m 2129.0572,2741.2459 c -1.5195,0.3206 -3.0109,0.515 -4.7708,1.9176 3.2093,4.3563 5.2298,9.4691 7.086,14.6865 0.7216,-1.4845 1.3629,-3.0024 2.8063,-4.1861"
           id="path1134"
           inkscape:connector-curvature="0"
           sodipodi:nodetypes="cccc" />
        <path
           style="opacity:1;vector-effect:none;fill:#d7d7d7;fill-opacity:1;stroke:#000000;stroke-width:0.26458332;stroke-linecap:round;stroke-linejoin:round;stroke-miterlimit:4;stroke-dasharray:none;stroke-dashoffset:0;stroke-opacity:1"
           d="m 2128.7532,2743.7716 c -0.8019,0.354 -1.5406,0.4234 -2.4556,1.2862 1.4534,2.0109 2.317,4.243 3.2975,6.4312 0.8845,-1.0128 1.4238,-1.3354 1.941,-1.6137"
           id="path1138"
           inkscape:connector-curvature="0"
           sodipodi:nodetypes="cccc" />
        <path
           style="opacity:1;vector-effect:none;fill:#d7d7d7;fill-opacity:1;stroke:#000000;stroke-width:0.26458332;stroke-linecap:round;stroke-linejoin:round;stroke-miterlimit:4;stroke-dasharray:none;stroke-dashoffset:0;stroke-opacity:1"
           d="m 2129.5015,2742.0176 -2.1281,0.2105 c 2.0535,3.8577 3.6216,7.6075 5.1215,11.3422 0.382,-0.4842 0.7639,-0.9362 1.1459,-1.0523"
           id="path1136"
           inkscape:connector-curvature="0"
           sodipodi:nodetypes="cccc" />
        <path
           style="opacity:1;vector-effect:none;fill:#d7d7d7;fill-opacity:1;stroke:#000000;stroke-width:0.26458332;stroke-linecap:round;stroke-linejoin:round;stroke-miterlimit:4;stroke-dasharray:none;stroke-dashoffset:0;stroke-opacity:1"
           d="m 2131.5361,2736.3348 c -1.6164,0.379 -3.076,1.1499 -4.4433,2.1515 3.1288,5.9545 5.8746,12.6535 8.0682,19.8548 0.2151,-1.4821 1.3842,-4.6897 2.7595,-5.0514"
           id="path1146"
           inkscape:connector-curvature="0"
           sodipodi:nodetypes="cccc" />
        <path
           style="opacity:1;vector-effect:none;fill:#000000;fill-opacity:1;stroke:#000000;stroke-width:0.26458332;stroke-linecap:round;stroke-linejoin:round;stroke-miterlimit:4;stroke-dasharray:none;stroke-dashoffset:0;stroke-opacity:1"
           d="m 2132.2143,2737.2001 c -1.3024,0.3059 -2.5719,0.9414 -3.8119,1.8709 2.4968,4.4282 4.6983,9.7127 6.5715,15.9493 0.2175,-2.0338 1.2253,-2.8328 2.4321,-3.3208"
           id="path1148"
           inkscape:connector-curvature="0"
           sodipodi:nodetypes="cccc" />
        <path
           style="opacity:1;vector-effect:none;fill:#d7d7d7;fill-opacity:1;stroke:#000000;stroke-width:0.26458332;stroke-linecap:round;stroke-linejoin:round;stroke-miterlimit:4;stroke-dasharray:none;stroke-dashoffset:0;stroke-opacity:1"
           d="m 2132.3312,2740.1935 c -0.5983,0.218 -1.2107,0.5494 -1.8709,1.2629 1.0742,2.3285 2.1574,4.6636 2.8064,6.6884 0.6393,-0.6868 1.2227,-1.0377 1.8007,-1.3564"
           id="path1152"
           inkscape:connector-curvature="0"
           sodipodi:nodetypes="cccc" />
        <path
           style="opacity:1;vector-effect:none;fill:#d7d7d7;fill-opacity:1;stroke:#000000;stroke-width:0.26458332;stroke-linecap:round;stroke-linejoin:round;stroke-miterlimit:4;stroke-dasharray:none;stroke-dashoffset:0;stroke-opacity:1"
           d="m 2132.1208,2737.7614 -1.0758,0.6314 c 1.8071,3.7972 3.5843,7.6509 4.8409,12.4881 l 1.029,-0.7015"
           id="path1150"
           inkscape:connector-curvature="0"
           sodipodi:nodetypes="cccc" />
        <path
           style="opacity:1;vector-effect:none;fill:#d7d7d7;fill-opacity:1;stroke:#000000;stroke-width:0.26458332;stroke-linecap:round;stroke-linejoin:round;stroke-miterlimit:4;stroke-dasharray:none;stroke-dashoffset:0;stroke-opacity:1"
           d="m 2135.2035,2733.1769 c -1.4986,0.8437 -3.1225,1.412 -5.0602,1.2898 4.3524,8.6453 6.755,16.233 7.4084,20.6044 0.9716,-1.1709 2.019,-3.0233 2.9104,-3.4726"
           id="path1160"
           inkscape:connector-curvature="0"
           sodipodi:nodetypes="cccc" />
        <path
           style="opacity:1;vector-effect:none;fill:#000000;fill-opacity:1;stroke:#000000;stroke-width:0.26458332;stroke-linecap:round;stroke-linejoin:round;stroke-miterlimit:4;stroke-dasharray:none;stroke-dashoffset:0;stroke-opacity:1"
           d="m 2135.5011,2734.4336 c -1.3491,0.4759 -2.518,1.6285 -4.101,0.9922 3.8005,7.6224 5.5258,13.6459 6.2838,17.4956 0.5065,-1.7102 1.2587,-2.8064 2.1167,-3.638"
           id="path1162"
           inkscape:connector-curvature="0"
           sodipodi:nodetypes="cccc" />
        <path
           style="opacity:1;vector-effect:none;fill:#d7d7d7;fill-opacity:1;stroke:#000000;stroke-width:0.26458332;stroke-linecap:round;stroke-linejoin:round;stroke-miterlimit:4;stroke-dasharray:none;stroke-dashoffset:0;stroke-opacity:1"
           d="m 2135.6169,2737.3771 -1.8686,0.2977 c 1.2738,2.4787 2.2314,5.1946 2.9765,8.0698 l 1.8025,-1.0088"
           id="path1166"
           inkscape:connector-curvature="0"
           sodipodi:nodetypes="cccc" />
        <path
           style="opacity:1;vector-effect:none;fill:#d7d7d7;fill-opacity:1;stroke:#000000;stroke-width:0.26458332;stroke-linecap:round;stroke-linejoin:round;stroke-miterlimit:4;stroke-dasharray:none;stroke-dashoffset:0;stroke-opacity:1"
           d="m 2135.6334,2735.6243 c -0.2888,0.1718 -0.6651,0.2911 -1.1741,0.3307 2.3149,4.6827 2.8742,6.7495 3.82,9.5912 l 0.6614,-0.3308"
           id="path1164"
           inkscape:connector-curvature="0"
           sodipodi:nodetypes="cccc" />
        <path
           style="opacity:1;vector-effect:none;fill:#d7d7d7;fill-opacity:1;stroke:#000000;stroke-width:0.26458332;stroke-linecap:round;stroke-linejoin:round;stroke-miterlimit:4;stroke-dasharray:none;stroke-dashoffset:0;stroke-opacity:1"
           d="m 2142.0598,2723.9869 c -2.6416,1.976 -5.4346,4.5577 -8.3254,7.5304 3.401,8.1537 5.2097,15.5993 6.4078,21.4684 1.4549,-0.2472 2.8651,-0.61 3.2741,-2.1048 2.6788,-9.7917 2.5714,-18.8475 -1.3565,-26.894 z"
           id="path1174"
           inkscape:connector-curvature="0"
           sodipodi:nodetypes="cccsc" />
        <path
           inkscape:connector-curvature="0"
           style="opacity:1;vector-effect:none;fill:#000000;fill-opacity:1;stroke:#000000;stroke-width:0.26458332;stroke-linecap:round;stroke-linejoin:round;stroke-miterlimit:4;stroke-dasharray:none;stroke-dashoffset:0;stroke-opacity:1"
           d="m 2141.2647,2726.4193 c -2.0066,1.3321 -3.9957,2.928 -5.9402,5.1914 0.2118,0.5996 0.4135,1.1947 0.6165,1.7901 1.1238,-1.4461 2.4456,-2.4962 3.8504,-3.3802 1.4639,4.0497 1.6949,7.6453 2.0113,11.2722 -0.8982,0.9085 -1.8251,1.6888 -2.8174,2.1735 0.688,2.6511 1.266,5.2499 1.7182,7.7887 0.5655,0.1757 1.366,-0.05 1.45,-0.4677 2.1256,-10.5623 1.4321,-20.0544 -0.8888,-24.368 z"
           id="path1176" />
        <path
           sodipodi:nodetypes="ccscc"
           inkscape:connector-curvature="0"
           id="path1180"
           d="m 2135.3247,2731.6109 c 2.4173,6.8454 4.2705,13.4222 5.3788,19.6442 0.5655,0.1757 1.3658,-0.05 1.4499,-0.4677 2.1255,-10.5623 1.4322,-20.0547 -0.8887,-24.3683 -2.0066,1.3321 -3.9955,2.9284 -5.94,5.1918 z"
           style="opacity:1;vector-effect:none;fill:none;fill-opacity:1;stroke:#000000;stroke-width:0.26458332;stroke-linecap:round;stroke-linejoin:round;stroke-miterlimit:4;stroke-dasharray:none;stroke-dashoffset:0;stroke-opacity:1" />
        <path
           style="opacity:1;vector-effect:none;fill:#000000;fill-opacity:1;stroke:#000000;stroke-width:0.26458332;stroke-linecap:round;stroke-linejoin:round;stroke-miterlimit:4;stroke-dasharray:none;stroke-dashoffset:0;stroke-opacity:1"
           d="m 2080.9751,2760.6096 -1.8954,-1.0758 c -0.4326,-0.6558 -0.5223,-1.2653 -0.2088,-2.8531 -0.5475,-1.6011 -0.048,-2.6999 0.9588,-3.5547 -0.2016,-0.1358 -0.6652,-2.1526 0.8185,-3.1805 -0.1312,-0.7924 -0.526,-2.0916 1.5435,-3.1337 l -0.094,-2.058 c 0.6368,-0.5624 1.4784,-0.8688 2.362,-1.1226 l 0.6161,0.3332 0.082,-0.7825 c 1.0259,2.0241 3.265,2.1482 6.4818,4.3315 l 2.7127,2.1047 1.2161,3.3676 -1.2628,6.8755 c -1.8316,1.1774 -4.1283,2.4374 -7.1328,1.7773 -0.3009,0.3602 -0.731,0.4803 -1.4031,0.6549 -0.8873,1.2009 -1.7658,2.154 -3.087,2.5491 -0.078,2.2592 -4.1989,1.3537 -2.5725,-0.3509 z"
           id="path1188"
           inkscape:connector-curvature="0"
           sodipodi:nodetypes="ccccccccccccccccccc" />
        <path
           style="opacity:1;vector-effect:none;fill:#d7d7d7;fill-opacity:1;stroke:#000000;stroke-width:0.26458332;stroke-linecap:round;stroke-linejoin:round;stroke-miterlimit:4;stroke-dasharray:none;stroke-dashoffset:0;stroke-opacity:1"
           d="m 2095.2676,2752.3591 c 0.5755,0.1246 0.775,0.6252 0.645,1.4553 -0.7822,1.3209 -1.0602,2.6877 -1.3726,4.0514 -0.8444,1.346 -1.7514,2.6535 -3.7207,3.3073 -2.2839,-0.2866 -2.481,-1.2191 -2.6304,-2.3168 -0.2854,-2.0967 1.8739,-3.9524 5.0447,-3.4048 0.3453,0.103 0.7315,0.4716 0.9096,-0.5127 0.1307,-0.8773 0.3817,-1.7461 1.1244,-2.5797 z"
           id="path1190"
           inkscape:connector-curvature="0"
           sodipodi:nodetypes="ccccsccc" />
        <path
           style="opacity:1;vector-effect:none;fill:#d7d7d7;fill-opacity:1;stroke:#000000;stroke-width:0.26458332;stroke-linecap:round;stroke-linejoin:round;stroke-miterlimit:4;stroke-dasharray:none;stroke-dashoffset:0;stroke-opacity:1"
           d="m 2082.7291,2747.5601 c 2.4911,0.6275 3.9326,3.0141 5.8231,2.4322 l 0.7249,1.6838 c -0.8818,0.6654 -1.1141,1.0226 -1.658,1.0999 -0.2731,0.039 -0.7172,-0.1099 -1.1813,-0.1784 -0.3831,-0.057 -0.796,-0.021 -1.004,-0.058 -0.8501,-0.154 -2.5234,-1.4974 -3.8273,-2.4066 -1.1993,-0.654 -0.8286,-2.8785 1.1226,-2.5725 z"
           id="path1194"
           inkscape:connector-curvature="0"
           sodipodi:nodetypes="cccssscc" />
        <path
           style="opacity:1;vector-effect:none;fill:#d7d7d7;fill-opacity:1;stroke:#000000;stroke-width:0.26458332;stroke-linecap:round;stroke-linejoin:round;stroke-miterlimit:4;stroke-dasharray:none;stroke-dashoffset:0;stroke-opacity:1"
           d="m 2083.2201,2748.4839 c -0.8736,0.8322 -0.5674,2.1423 -0.093,2.7595"
           id="path1196"
           inkscape:connector-curvature="0"
           sodipodi:nodetypes="cc" />
        <path
           style="opacity:1;vector-effect:none;fill:#d7d7d7;fill-opacity:1;stroke:#000000;stroke-width:0.26458332;stroke-linecap:round;stroke-linejoin:round;stroke-miterlimit:4;stroke-dasharray:none;stroke-dashoffset:0;stroke-opacity:1"
           d="m 2094.3052,2749.8753 c 0.3339,2.2353 0.1455,4.1781 -1.0758,5.5425 -1.9554,-0.6101 -4.1227,-1.0912 -5.332,-6.2207 -0.3776,-0.3213 -0.6568,-0.6507 -1.754,-0.912 -3.0545,0.6141 -6.0559,-1.9426 -3.9289,-3.8119 2.0432,0.9584 3.4753,0.6038 4.7866,0.6762 1.6237,0.09 3.0621,0.56 5.2461,1.7325 0.699,0.9326 1.4174,1.7686 2.058,2.9934 z"
           id="path1192"
           inkscape:connector-curvature="0"
           sodipodi:nodetypes="cccccscc" />
        <path
           style="opacity:1;vector-effect:none;fill:#d7d7d7;fill-opacity:1;stroke:#000000;stroke-width:0.26458332;stroke-linecap:round;stroke-linejoin:round;stroke-miterlimit:4;stroke-dasharray:none;stroke-dashoffset:0;stroke-opacity:1"
           d="m 2080.5502,2753.0868 c -1.4594,-1.118 -0.135,-3.0809 1.3229,-2.2821 l 4.316,2.3647 c 0.8808,0.4826 2.2706,0.2567 2.5038,1.3317 0.3244,1.4954 -1.7578,1.8365 -3.033,1.3803 -0.6525,-0.2335 -1.4489,-0.3215 -2.0835,-0.6038 -1.0591,-0.4712 -1.9414,-1.3597 -3.0262,-2.1908 z"
           id="path1198"
           inkscape:connector-curvature="0"
           sodipodi:nodetypes="sssssss" />
        <path
           style="opacity:1;vector-effect:none;fill:#d7d7d7;fill-opacity:1;stroke:#000000;stroke-width:0.26458332;stroke-linecap:round;stroke-linejoin:round;stroke-miterlimit:4;stroke-dasharray:none;stroke-dashoffset:0;stroke-opacity:1"
           d="m 2082.2369,2751.9457 c -0.7069,0.9882 -0.4908,1.7714 -0.016,2.497"
           id="path1200"
           inkscape:connector-curvature="0"
           sodipodi:nodetypes="cc" />
        <path
           style="opacity:1;vector-effect:none;fill:#d7d7d7;fill-opacity:1;stroke:#000000;stroke-width:0.26458332;stroke-linecap:round;stroke-linejoin:round;stroke-miterlimit:4;stroke-dasharray:none;stroke-dashoffset:0;stroke-opacity:1"
           d="m 2079.759,2756.9146 c -1.4724,-1.1962 -0.3863,-3.8397 1.2161,-2.9233 1.615,0.9235 2.94,2.1355 4.8409,2.4555 2.7384,0.461 1.3813,2.8296 -0.1403,2.6894 -0.3454,-0.1024 -1.5844,-0.1037 -2.8019,-0.5669 -1.0539,-0.4011 -2.2162,-0.9246 -3.1148,-1.6547 z"
           id="path1202"
           inkscape:connector-curvature="0"
           sodipodi:nodetypes="ssscss" />
        <path
           style="opacity:1;vector-effect:none;fill:#d7d7d7;fill-opacity:1;stroke:#000000;stroke-width:0.26458332;stroke-linecap:round;stroke-linejoin:round;stroke-miterlimit:4;stroke-dasharray:none;stroke-dashoffset:0;stroke-opacity:1"
           d="m 2081.3727,2755.3243 c -0.8579,1.0825 -0.2838,2.0421 0.5145,2.7596"
           id="path1204"
           inkscape:connector-curvature="0"
           sodipodi:nodetypes="cc" />
        <path
           style="opacity:1;vector-effect:none;fill:#d7d6d7;fill-opacity:1;stroke:#000000;stroke-width:0.26458332;stroke-linecap:round;stroke-linejoin:round;stroke-miterlimit:4;stroke-dasharray:none;stroke-dashoffset:0;stroke-opacity:1"
           d="m 2079.0808,2759.5338 c -0.168,-0.5117 -0.2447,-1.0005 -0.1637,-1.4499 0.063,-0.349 0.6223,-0.9286 1.2994,-0.7418 0.5814,0.1604 1.3186,0.6691 2.0483,1.1026 0.9406,0.5588 1.8841,1.0623 2.6275,1.2645 2.7511,0.7483 2.1485,3.1044 -2.2334,2.4088 -1.1927,-0.5346 -2.3854,-1.1591 -3.5781,-2.5842 z"
           id="path1206"
           inkscape:connector-curvature="0"
           sodipodi:nodetypes="csssscc" />
        <path
           style="opacity:1;vector-effect:none;fill:none;fill-opacity:1;stroke:#000000;stroke-width:0.26458332;stroke-linecap:round;stroke-linejoin:round;stroke-miterlimit:4;stroke-dasharray:none;stroke-dashoffset:0;stroke-opacity:1"
           d="m 2081.1037,2759.1479 c -0.6249,1.1999 -0.1,1.8304 0.2222,2.2919"
           id="path1208"
           inkscape:connector-curvature="0"
           sodipodi:nodetypes="cc" />
        <path
           style="opacity:1;vector-effect:none;fill:#d7d7d7;fill-opacity:1;stroke:#000000;stroke-width:0.26458332;stroke-linecap:round;stroke-linejoin:round;stroke-miterlimit:4;stroke-dasharray:none;stroke-dashoffset:0;stroke-opacity:1"
           d="m 2080.5006,2761.2062 c -1.9814,-0.011 -2.3396,0.7685 -2.4309,1.604 -0.2029,1.8574 1.2598,2.1598 2.4143,2.1993 1.3727,0.047 2.4417,-2.5925 0.017,-3.8033 z"
           id="path1210"
           inkscape:connector-curvature="0"
           sodipodi:nodetypes="cssc" />
      </g>
    </g>
  </g>
</svg>
