<?xml version="1.0" encoding="UTF-8" standalone="no"?>
<!-- Created with Inkscape (http://www.inkscape.org/) -->

<svg
   xmlns:dc="http://purl.org/dc/elements/1.1/"
   xmlns:cc="http://creativecommons.org/ns#"
   xmlns:rdf="http://www.w3.org/1999/02/22-rdf-syntax-ns#"
   xmlns:svg="http://www.w3.org/2000/svg"
   xmlns="http://www.w3.org/2000/svg"
   xmlns:sodipodi="http://sodipodi.sourceforge.net/DTD/sodipodi-0.dtd"
   xmlns:inkscape="http://www.inkscape.org/namespaces/inkscape"
   width="169.80984mm"
   height="165.93866mm"
   viewBox="0 0 169.80985 165.93868"
   version="1.1"
   id="svg4892"
   inkscape:version="0.92.1 r15371"
   sodipodi:docname="HUN Etyek címer.svg">
  <sodipodi:namedview
     inkscape:lockguides="false"
     inkscape:bbox-nodes="true"
     inkscape:bbox-paths="true"
     inkscape:snap-bbox="true"
     inkscape:object-nodes="true"
     fit-margin-bottom="0"
     fit-margin-right="0"
     fit-margin-left="0"
     fit-margin-top="0"
     id="base"
     pagecolor="#ffffff"
     bordercolor="#666666"
     borderopacity="1.0"
     inkscape:pageopacity="0.0"
     inkscape:pageshadow="2"
     inkscape:zoom="0.75061741"
     inkscape:cx="-16.67129"
     inkscape:cy="200.71022"
     inkscape:document-units="mm"
     inkscape:current-layer="layer3"
     showgrid="false"
     showborder="true"
     showguides="true"
     inkscape:guide-bbox="true"
     inkscape:snap-global="false"
     inkscape:snap-center="true"
     inkscape:snap-to-guides="true"
     inkscape:window-width="1920"
     inkscape:window-height="1016"
     inkscape:window-x="-4"
     inkscape:window-y="-4"
     inkscape:window-maximized="1"
     inkscape:snap-text-baseline="true"
     inkscape:snap-intersection-paths="true"
     inkscape:object-paths="true"
     inkscape:snap-smooth-nodes="false"
     inkscape:snap-midpoints="true">
    <sodipodi:guide
       inkscape:locked="false"
       id="guide5213"
       orientation="1,0"
       position="1980.9598,-2.2582524" />
  </sodipodi:namedview>
  <defs
     id="defs4886" />
  <metadata
     id="metadata4889">
    <rdf:RDF>
      <cc:Work
         rdf:about="">
        <dc:format>image/svg+xml</dc:format>
        <dc:type
           rdf:resource="http://purl.org/dc/dcmitype/StillImage" />
        <dc:title></dc:title>
      </cc:Work>
    </rdf:RDF>
  </metadata>
  <g
     inkscape:label="RASZTER"
     id="layer2"
     inkscape:groupmode="layer"
     transform="translate(3066.7455,174.53042)" />
  <g
     inkscape:label="1"
     id="layer3"
     inkscape:groupmode="layer"
     transform="translate(3066.7455,174.53042)">
    <path
       style="fill:#000000;stroke-width:1"
       d="m -2456.7715,21.506776 c 0,-0.04381 0.038,-0.102947 0.084,-0.131395 0.048,-0.02967 0.062,0.0043 0.033,0.07967 -0.056,0.146676 -0.1169,0.173507 -0.1169,0.05172 z m 16.3406,-3.084966 c 0,-0.01758 0.067,-0.08425 0.1482,-0.148166 0.1343,-0.105309 0.1373,-0.10232 0.032,0.03197 -0.1106,0.141029 -0.1802,0.185885 -0.1802,0.116196 z m 3.6689,-6.271971 c 0,-0.0678 0.032,-0.103268 0.072,-0.07882 0.039,0.02445 0.05,0.07992 0.023,0.123275 -0.068,0.110777 -0.095,0.09831 -0.095,-0.04446 z m -100.1889,-4.1420286 c 0,-0.017577 0.067,-0.084252 0.1482,-0.1481666 0.1343,-0.1053084 0.1373,-0.1023197 0.032,0.03197 -0.1106,0.1410293 -0.1802,0.1858857 -0.1802,0.1161966 z m -2.8894,-1.1321965 c -0.1053,-0.1342898 -0.1024,-0.1372785 0.032,-0.03197 0.1411,0.1106085 0.1859,0.1801368 0.1162,0.1801368 -0.017,0 -0.084,-0.066675 -0.1481,-0.1481667 z m 128.6961,-48.0906659 c -0.062,-0.08149 -0.08,-0.119922 -0.039,-0.0854 0.041,0.03453 0.1347,0.01548 0.2088,-0.04233 0.1163,-0.09067 0.1204,-0.0866 0.03,0.02969 -0.058,0.07413 -0.08,0.159859 -0.049,0.1905 0.031,0.03064 0.035,0.05571 0.01,0.05571 -0.025,0 -0.097,-0.06668 -0.1595,-0.148167 z m -3.0728,-1.391327 c 0.024,-0.03957 0.08,-0.05001 0.1233,-0.02322 0.1108,0.06846 0.098,0.09517 -0.044,0.09517 -0.068,0 -0.1033,-0.03238 -0.079,-0.07194 z m 2.2005,-26.979061 c -0.024,-0.03881 0.01,-0.07056 0.076,-0.07056 0.066,0 0.1,0.03175 0.076,0.07056 -0.024,0.03881 -0.058,0.07055 -0.076,0.07055 -0.018,0 -0.052,-0.03175 -0.076,-0.07055 z m -13.3765,-13.32227 c 0.024,-0.03957 0.08,-0.05002 0.1233,-0.02323 0.1108,0.06846 0.098,0.09516 -0.044,0.09516 -0.068,0 -0.1033,-0.03237 -0.079,-0.07194 z m -124.5965,-1.626449 c 0,-0.0183 0.059,-0.05597 0.1314,-0.0837 0.075,-0.02891 0.1093,-0.01472 0.08,0.03327 -0.05,0.08045 -0.211,0.118995 -0.211,0.05042 z m 127.6386,-6.310875 c -0.027,-0.04335 -0.016,-0.09882 0.023,-0.123275 0.04,-0.02445 0.072,0.01101 0.072,0.07882 0,0.142762 -0.027,0.155235 -0.095,0.04446 z m -3.7919,-0.570099 c 0.059,-0.02358 0.081,-0.08361 0.05,-0.133398 -0.033,-0.05395 -0.016,-0.06577 0.043,-0.02925 0.1165,0.07204 0.046,0.221872 -0.099,0.212213 -0.072,-0.0048 -0.071,-0.01887 0.01,-0.04956 z m -119.4858,-3.922115 c -0.03,-0.04799 0,-0.06219 0.08,-0.03328 0.1466,0.05629 0.1735,0.116972 0.052,0.116972 -0.044,0 -0.103,-0.03766 -0.1314,-0.0837 z m 94.8458,-14.320142 c 0.057,-0.0579 0.1258,-0.0839 0.1518,-0.0578 0.026,0.0261 -0.021,0.0734 -0.1044,0.10521 -0.1207,0.0459 -0.1304,0.0362 -0.047,-0.0474 z m -56.2186,-3.302 c 0.057,-0.0579 0.1257,-0.0839 0.1518,-0.0578 0.026,0.0261 -0.021,0.0734 -0.1044,0.10521 -0.1207,0.0459 -0.1304,0.0362 -0.047,-0.0474 z m 54.4296,-3.36205 c -0.024,-0.0388 0.01,-0.0706 0.076,-0.0706 0.066,0 0.1,0.0318 0.076,0.0706 -0.024,0.0388 -0.058,0.0706 -0.076,0.0706 -0.018,0 -0.052,-0.0318 -0.076,-0.0706 z m -34.3411,-1.45344 c -0.076,-0.0493 -0.087,-0.0826 -0.026,-0.0834 0.055,-6.8e-4 0.1244,0.0368 0.1531,0.0834 0.065,0.10511 0.036,0.10511 -0.127,0 z m -9.9168,-5.56684 c -0.1053,-0.13428 -0.1023,-0.13728 0.032,-0.032 0.141,0.1106 0.1859,0.18013 0.1162,0.18013 -0.018,0 -0.084,-0.0667 -0.1482,-0.14817 z m 26.6421,-1.11598 c -0.027,-0.0434 -0.016,-0.0988 0.023,-0.12328 0.04,-0.0245 0.072,0.011 0.072,0.0788 0,0.14276 -0.027,0.15524 -0.095,0.0445 z"
       id="path4978"
       inkscape:connector-curvature="0" />
    <g
       id="g7595">
      <g
         transform="translate(-31.750001)"
         id="g5901">
        <path
           style="opacity:1;vector-effect:none;fill:none;fill-opacity:1;fill-rule:evenodd;stroke:#000000;stroke-width:3.17499995;stroke-linecap:round;stroke-linejoin:miter;stroke-miterlimit:4;stroke-dasharray:none;stroke-dashoffset:0;stroke-opacity:1"
           d="m -2950.1574,-40.222061 c -29.0099,0 -52.3644,-23.354697 -52.3644,-52.363874 v -80.092405 h 104.7267 v 80.092405 c 0,29.009177 -23.353,52.363874 -52.3623,52.363874 z"
           id="rect5883"
           inkscape:connector-curvature="0"
           sodipodi:nodetypes="ssccss" />
        <path
           sodipodi:nodetypes="ssccss"
           inkscape:connector-curvature="0"
           id="path5888"
           d="m -2950.1574,-40.222061 c -29.0099,0 -52.3644,-23.354697 -52.3644,-52.363874 v -80.092405 h 104.7267 v 80.092405 c 0,29.009177 -23.353,52.363874 -52.3623,52.363874 z"
           style="opacity:1;vector-effect:none;fill:#da251c;fill-opacity:1;fill-rule:evenodd;stroke:#000000;stroke-width:3.70416665;stroke-linecap:round;stroke-linejoin:miter;stroke-miterlimit:4;stroke-dasharray:none;stroke-dashoffset:0;stroke-opacity:1" />
        <path
           inkscape:connector-curvature="0"
           style="opacity:1;vector-effect:none;fill:#000000;fill-opacity:1;fill-rule:evenodd;stroke:#000000;stroke-width:0.50000006;stroke-linecap:round;stroke-linejoin:miter;stroke-miterlimit:4;stroke-dasharray:none;stroke-dashoffset:0;stroke-opacity:1"
           d="M -466.90625,-221.20117 V 81.509766 c 0,109.640984 88.27035,197.912114 197.91406,197.912114 53.54372,0 101.98016,-21.0599 137.53711,-55.3711 l -334.87109,-445.25195 z"
           transform="matrix(0.26458333,0,0,0.26458333,-2878.9864,-114.15223)"
           id="path5890" />
        <path
           style="opacity:1;vector-effect:none;fill:none;fill-opacity:1;fill-rule:evenodd;stroke:#d7d7d7;stroke-width:2.3812499;stroke-linecap:round;stroke-linejoin:miter;stroke-miterlimit:4;stroke-dasharray:none;stroke-dashoffset:0;stroke-opacity:1"
           d="m -2950.1574,-40.222061 c -29.0099,0 -52.3644,-23.354697 -52.3644,-52.363874 v -80.092405 h 104.7267 v 80.092405 c 0,29.009177 -23.353,52.363874 -52.3623,52.363874 z"
           id="path5895"
           inkscape:connector-curvature="0"
           sodipodi:nodetypes="ssccss" />
      </g>
      <g
         id="g5944">
        <g
           id="g5934"
           transform="translate(-148.1667,-47.625002)">
          <path
             inkscape:transform-center-y="-12.19322"
             inkscape:transform-center-x="69.281645"
             sodipodi:nodetypes="csccccc"
             inkscape:connector-curvature="0"
             id="path5920"
             d="m -2898.0207,12.495033 c -1.9648,1.261139 -3.1717,0.143339 -3.8774,-0.660916 -7.5835,-8.6428559 -14.4261,-26.967853 -16.3907,-36.350282 4.8301,3.037886 9.6979,5.831082 14.7605,7.358179 l 7.0938,-14.319808 c 1.6881,8.735935 4.6229,14.424551 7.3141,20.708646 l 1.4981,10.53056737"
             style="opacity:1;vector-effect:none;fill:#da251c;fill-opacity:1;stroke:#000000;stroke-width:0.39687499;stroke-linecap:round;stroke-linejoin:miter;stroke-miterlimit:4;stroke-dasharray:none;stroke-dashoffset:0;stroke-opacity:1" />
          <path
             inkscape:transform-center-y="-1.0042607"
             inkscape:transform-center-x="61.97624"
             sodipodi:nodetypes="cccc"
             inkscape:connector-curvature="0"
             id="path5918"
             d="m -2903.5372,-4.5340916 c -3.3962,1.960789 9.3615,14.5251013 5.5165,17.0291246 l 10.839,-7.314117 -9.5644,-13.7125803"
             style="opacity:1;vector-effect:none;fill:#000000;fill-opacity:1;stroke:#000000;stroke-width:0.39687499;stroke-linecap:round;stroke-linejoin:miter;stroke-miterlimit:4;stroke-dasharray:none;stroke-dashoffset:0;stroke-opacity:1" />
          <path
             inkscape:transform-center-y="8.6881001"
             inkscape:transform-center-x="34.965191"
             sodipodi:nodetypes="csscsc"
             inkscape:connector-curvature="0"
             id="path5916"
             d="m -2833.741,13.426765 c -15.2556,0 -32.4963,-6.0662782 -46.2424,-26.435232 -1.6291,-2.413938 -3.8536,-3.122184 -5.9819,-1.869348 l -17.5719,10.3437234 c 2.4582,-1.4192467 3.8057,2.128101 4.985,4.11256497 12.9373,21.77070763 33.8488,39.25630463 64.8112,39.25630463"
             style="opacity:1;vector-effect:none;fill:#d7d7d7;fill-opacity:1;stroke:#000000;stroke-width:0.39687499;stroke-linecap:round;stroke-linejoin:miter;stroke-miterlimit:4;stroke-dasharray:none;stroke-dashoffset:0;stroke-opacity:1" />
          <path
             style="opacity:1;vector-effect:none;fill:#da251c;fill-opacity:1;stroke:#000000;stroke-width:0.39687499;stroke-linecap:round;stroke-linejoin:miter;stroke-miterlimit:4;stroke-dasharray:none;stroke-dashoffset:0;stroke-opacity:1"
             d="m -2769.3271,12.495033 c 1.9648,1.261139 3.1717,0.143339 3.8774,-0.660916 7.5835,-8.6428559 14.4261,-26.967853 16.3907,-36.350282 -4.8301,3.037886 -9.6979,5.831082 -14.7605,7.358179 l -7.0938,-14.319808 c -1.6881,8.735935 -4.6229,14.424551 -7.3141,20.708646 l -1.4981,10.53056737"
             id="path5922"
             inkscape:connector-curvature="0"
             sodipodi:nodetypes="csccccc"
             inkscape:transform-center-x="-69.28167"
             inkscape:transform-center-y="-12.19322" />
          <path
             style="opacity:1;vector-effect:none;fill:#000000;fill-opacity:1;stroke:#000000;stroke-width:0.39687499;stroke-linecap:round;stroke-linejoin:miter;stroke-miterlimit:4;stroke-dasharray:none;stroke-dashoffset:0;stroke-opacity:1"
             d="m -2763.8106,-4.5340916 c 3.3962,1.960789 -9.3615,14.5251013 -5.5165,17.0291246 l -10.839,-7.314117 9.5644,-13.7125803"
             id="path5924"
             inkscape:connector-curvature="0"
             sodipodi:nodetypes="cccc"
             inkscape:transform-center-x="-61.976265"
             inkscape:transform-center-y="-1.0042607" />
          <path
             style="opacity:1;vector-effect:none;fill:#d7d7d7;fill-opacity:1;stroke:#000000;stroke-width:0.39687499;stroke-linecap:round;stroke-linejoin:miter;stroke-miterlimit:4;stroke-dasharray:none;stroke-dashoffset:0;stroke-opacity:1"
             d="m -2833.6068,13.426765 c 15.2556,0 32.4963,-6.0662782 46.2424,-26.435232 1.6291,-2.413938 3.8536,-3.122184 5.9819,-1.869348 l 17.5719,10.3437234 c -2.4582,-1.4192467 -3.8057,2.128101 -4.985,4.11256497 -12.9373,21.77070763 -33.8488,39.25630463 -64.8112,39.25630463"
             id="path5926"
             inkscape:connector-curvature="0"
             sodipodi:nodetypes="csscsc"
             inkscape:transform-center-x="-34.965216"
             inkscape:transform-center-y="8.6881001" />
        </g>
        <path
           style="fill:#000000;stroke-width:1"
           d="m -2980.3192,-14.792318 c -2.3168,-0.07836 -2.3918,-0.08626 -2.3918,-0.251968 0,-0.163686 0.036,-0.168846 0.8466,-0.119492 0.4657,0.02837 0.8467,0.0331 0.8467,0.0105 0,-0.0666 -5.0839,-6.80223 -5.1781,-6.860456 -0.047,-0.02924 -0.119,-0.02018 -0.1593,0.02014 -0.072,0.07239 -0.3489,6.558101 -0.2826,6.628548 0.019,0.02002 0.3595,0.05347 0.7569,0.07433 0.5674,0.02978 0.7172,0.06385 0.6974,0.158569 -0.031,0.149494 0.2026,0.142025 -2.396,0.07649 -2.4833,-0.06263 -2.8363,-0.09606 -2.8363,-0.268567 0,-0.09444 0.1663,-0.119558 0.7915,-0.119558 h 0.7914 l 0.052,-1.121835 c 0.1547,-3.351137 0.422,-12.258991 0.3695,-12.311548 -0.034,-0.03374 -0.4033,-0.0777 -0.8211,-0.09767 -0.6048,-0.02891 -0.7598,-0.06238 -0.7598,-0.164059 0,-0.112074 0.2777,-0.120916 2.2649,-0.07211 2.6324,0.06466 3.0691,0.103195 3.0691,0.270838 0,0.09348 -0.1637,0.119055 -0.762,0.119055 -0.4191,0 -0.7634,0.0095 -0.7652,0.02117 -0.028,0.180044 -0.2257,6.380134 -0.2043,6.402352 0.05,0.05159 5.2019,-4.715193 5.5979,-5.179094 0.3783,-0.44329 0.4454,-0.650628 0.26,-0.804459 -0.1213,-0.100692 -0.674,-0.237438 -1.2689,-0.313948 -0.2877,-0.03701 -0.4021,-0.08969 -0.4021,-0.185114 0,-0.118969 0.1944,-0.127362 1.7991,-0.07765 2.4937,0.07725 3.2809,0.138653 3.2809,0.255907 0,0.05812 -0.2952,0.137568 -0.7329,0.197247 -0.915,0.124772 -1.3763,0.347009 -2.367,1.140191 -1.08,0.86473 -4.5201,3.878649 -4.5201,3.960156 0,0.03703 1.4021,1.929029 3.1158,4.20445 l 3.1159,4.137131 0.7568,0.04233 c 0.6334,0.03543 0.7614,0.06649 0.785,0.1905 0.024,0.128683 -0.037,0.146218 -0.4648,0.133345 -0.2712,-0.0082 -1.5694,-0.05123 -2.8849,-0.09572 z m -16.9968,-1.670517 c -2.3749,-0.553155 -4.8229,-1.124544 -5.4399,-1.269752 -0.7906,-0.186075 -1.1218,-0.299614 -1.1218,-0.384604 0,-0.153697 0.1268,-0.151543 0.8571,0.01455 0.3268,0.07433 0.6092,0.120078 0.6276,0.101666 0.046,-0.04626 3.0026,-12.886938 3.0026,-13.041605 0,-0.08725 -0.2034,-0.168673 -0.6773,-0.271057 -0.5429,-0.117304 -0.6773,-0.176722 -0.6773,-0.299407 0,-0.179803 -0.686,-0.317991 5.6726,1.142762 2.3982,0.550928 4.3949,1.031411 4.4371,1.06774 0.045,0.03888 -0.024,0.746745 -0.1684,1.720738 -0.207,1.396631 -0.2674,1.654686 -0.3876,1.654686 -0.1239,0 -0.1418,-0.106953 -0.1384,-0.8255 0,-1.001609 -0.1177,-1.443007 -0.5313,-1.912864 -0.5773,-0.655819 -1.3195,-0.952986 -3.8464,-1.540027 -0.8382,-0.19473 -1.5306,-0.349675 -1.5388,-0.344323 -0.01,0.0054 -0.3397,1.417936 -0.737,3.139079 -0.4535,1.964821 -0.6904,3.149001 -0.6368,3.18216 0.2242,0.138573 1.7825,0.351859 2.3403,0.320336 0.872,-0.04927 1.2794,-0.398863 1.5935,-1.367474 0.1661,-0.511962 0.2148,-0.581564 0.3492,-0.498542 0.072,0.04438 -0.062,0.754739 -0.4869,2.592214 -0.3221,1.392099 -0.6026,2.54792 -0.6231,2.568492 -0.1344,0.134334 -0.1878,-0.167994 -0.1569,-0.886838 0.046,-1.07842 -0.066,-1.307122 -0.8315,-1.696712 -0.5389,-0.274119 -2.2356,-0.768216 -2.3264,-0.677463 -0.026,0.02614 -0.3494,1.356187 -0.7183,2.955661 -0.3689,1.599474 -0.705,3.050656 -0.7469,3.224849 -0.088,0.365515 -0.3007,0.273451 1.7165,0.74301 2.8063,0.653258 4.1129,0.667507 5.0249,0.0548 0.5243,-0.352231 0.9709,-1.008557 1.2185,-1.790587 0.1493,-0.471931 0.2386,-0.633617 0.3502,-0.63475 0.1125,-0.0011 0.1385,0.04586 0.1045,0.188981 -0.025,0.104775 -0.2292,0.9906 -0.454,1.9685 -0.3511,1.526902 -0.4316,1.78005 -0.5702,1.79251 -0.089,0.008 -2.1045,-0.438075 -4.4794,-0.991231 z m 33.9806,-1.738081 c -4.3142,-0.780727 -7.5782,-4.690521 -7.1035,-8.508951 0.121,-0.973311 0.1906,-1.179778 0.5737,-1.702316 0.182,-0.248195 0.5592,-0.775115 0.8383,-1.170931 2.2538,-3.19662 2.2624,-3.207668 2.4173,-3.124774 0.1777,0.09509 0.3091,-0.137862 -1.2141,2.151107 -1.2239,1.83931 -1.3183,2.100915 -1.2319,3.413633 0.1264,1.921344 1.2388,3.811382 3.0545,5.189753 0.7242,0.549725 1.7974,1.153798 1.8884,1.062833 0.1093,-0.10932 0.367,-1.315185 0.367,-1.717461 0,-0.56683 -1.5369,-6.669764 -1.8307,-7.269945 -0.1159,-0.236681 -0.342,-0.56942 -0.5024,-0.739419 -0.1603,-0.17 -0.2916,-0.328606 -0.2916,-0.352459 0,-0.02385 0.2621,-0.181066 0.5823,-0.349363 0.7611,-0.399905 1.5615,-1.066863 2.1145,-1.761757 0.4137,-0.519883 0.4598,-0.552883 0.6639,-0.475262 0.9756,0.370901 2.9793,0.59794 3.5397,0.401078 l 0.3386,-0.118972 v 1.206702 c 0,1.118655 -0.01,1.199258 -0.1437,1.104671 -0.079,-0.05612 -0.2925,-0.20808 -0.4743,-0.337693 l -0.3306,-0.23566 -1.4307,0.08667 c -0.7869,0.04767 -1.5128,0.08704 -1.6132,0.08749 -0.1211,5.08e-4 -0.2831,0.1407 -0.4812,0.416445 l -0.2986,0.415625 0.5996,1.891541 c 0.3298,1.040348 0.6144,1.908833 0.6325,1.929968 0.018,0.02113 0.4164,-0.02773 0.8851,-0.108589 1.698,-0.292941 1.667,-0.28093 2.2941,-0.886351 0.315,-0.304114 0.5727,-0.530985 0.5727,-0.504159 0,0.179982 0.2657,1.357313 0.375,1.661817 0.2054,0.572129 0.2147,0.563978 -0.6076,0.532395 -0.6442,-0.02474 -0.8988,0.01356 -1.948,0.293088 l -1.207,0.321547 0.054,0.299579 c 0.098,0.546077 0.4631,1.735044 0.6094,1.986667 0.079,0.136264 0.3033,0.331955 0.4979,0.434868 l 0.3538,0.187114 -0.3972,0.102542 c -1.2552,0.323991 -1.7888,0.615391 -2.1395,1.168384 -0.1361,0.214586 -0.2475,0.436786 -0.2475,0.493776 0,0.12006 0.573,0.318507 1.3375,0.463234 0.7572,0.143333 2.202,0.0547 2.8959,-0.17765 0.7415,-0.248319 1.4176,-0.670501 2.0078,-1.253687 0.4317,-0.426661 0.5262,-0.584343 0.7966,-1.329211 0.1687,-0.464818 0.3513,-1.035956 0.4057,-1.269195 0.1283,-0.549977 0.2068,-0.673762 0.368,-0.580612 0.1089,0.06297 0.055,0.36693 -0.3802,2.147683 l -0.5071,2.074333 -0.5199,0.53461 c -1.5754,1.619907 -3.8645,2.331257 -6.1633,1.915255 z m -12.008,-1.751364 c -0.5047,-0.25789 -0.8286,-0.689175 -0.9492,-1.26383 -0.086,-0.409459 -0.079,-0.526396 0.054,-0.872805 0.3259,-0.853256 0.9875,-1.284209 1.8603,-1.211821 0.5919,0.04908 1.0625,0.353231 1.3771,0.890042 0.4096,0.69905 0.2697,1.645173 -0.3255,2.200372 -0.5061,0.472051 -1.3788,0.583738 -2.0163,0.258042 z m -35.1838,-0.984162 c -0.045,-0.04186 -1.1578,-0.616235 -2.4733,-1.276386 -1.3155,-0.66015 -2.3919,-1.233728 -2.3919,-1.274616 0,-0.203227 0.2426,-0.148324 0.9431,0.213448 0.422,0.217987 0.7975,0.363987 0.8343,0.324444 0.037,-0.03954 0.562,-1.062495 1.1668,-2.273229 l 1.0998,-2.201333 0.2226,-4.275667 c 0.1225,-2.351617 0.2223,-4.430489 0.2217,-4.619714 l -9e-4,-0.344048 -0.7109,-0.370581 c -0.4702,-0.245147 -0.696,-0.408962 -0.6673,-0.483975 0.024,-0.06237 0.1057,-0.09249 0.1817,-0.06694 0.5136,0.172734 4.6678,2.365425 4.6678,2.463782 0,0.176856 -0.1121,0.150404 -0.7728,-0.182296 -0.3296,-0.165972 -0.6109,-0.289797 -0.6252,-0.275166 -0.014,0.01463 -0.1061,1.703 -0.2041,3.751934 -0.098,2.048933 -0.1874,3.887258 -0.1988,4.085167 -0.011,0.197908 6e-4,0.359833 0.027,0.359833 0.083,0 5.2765,-4.233276 5.5631,-4.53442 0.4826,-0.507007 0.3197,-0.831833 -0.7216,-1.43917 -0.013,-0.0074 1e-4,-0.07413 0.028,-0.148227 0.043,-0.110699 0.3335,0.01039 1.6318,0.679134 0.8691,0.447618 1.5906,0.821186 1.6033,0.830149 0.013,0.009 4e-4,0.07552 -0.027,0.147904 -0.044,0.113818 -0.1137,0.102686 -0.5179,-0.08235 -0.55,-0.25182 -0.8999,-0.227697 -1.3887,0.09574 -0.2916,0.192981 -2.6929,2.1263 -5.2847,4.254758 l -1.0148,0.833395 -1.2053,2.369713 c -0.6628,1.303343 -1.1968,2.395447 -1.1865,2.4269 0.01,0.03145 0.3426,0.227963 0.7384,0.43669 0.659,0.347516 0.8604,0.545767 0.6318,0.62196 -0.048,0.0161 -0.1245,-0.005 -0.1693,-0.04683 z m 58.0737,-0.828049 c -0.059,-0.234068 0.082,-0.882997 0.3112,-1.436507 0.1059,-0.255631 0.073,-0.336803 -1.018,-2.497667 -1.3237,-2.622298 -1.6042,-3.07428 -2.0914,-3.36957 -0.3655,-0.221492 -0.457,-0.345546 -0.2548,-0.345546 0.175,0 1.2406,-0.663452 1.7313,-1.077882 0.4765,-0.402404 1.2401,-1.400634 1.1889,-1.554154 -0.038,-0.115265 -2.8797,-1.269773 -3.8635,-1.56982 -0.3989,-0.121695 -1.0474,-0.284652 -1.441,-0.362126 l -0.7157,-0.140863 0.559,-0.36422 c 0.688,-0.448249 1.1944,-0.986654 1.4531,-1.545026 l 0.1964,-0.424039 0.2782,0.38737 c 0.3525,0.490798 0.4877,0.553435 3.8041,1.762169 2.665,0.971325 3.3487,1.179465 3.6315,1.105526 0.132,-0.03451 0.1503,0.02445 0.1503,0.483461 0,0.496624 0.047,0.616541 0.9403,2.398018 1.5002,2.992135 1.8079,3.537758 2.2412,3.974785 0.4436,0.447462 0.4634,0.482801 0.2702,0.482801 -0.2136,0 -1.3274,0.542837 -1.8701,0.911389 -0.7344,0.498727 -1.5236,1.383279 -1.8596,2.084322 -0.1575,0.328815 -0.2865,0.646545 -0.2865,0.706068 0,0.139983 -0.1877,0.135356 -0.762,-0.01878 -0.9244,-0.248118 -1.6726,-0.128906 -2.204,0.351144 l -0.3293,0.297543 z m 5.1312,-3.4023 c 0.024,-0.01577 -0.6598,-1.410581 -1.5204,-3.099576 l -1.5646,-3.0709 -0.806,-0.280053 c -0.4434,-0.154028 -0.8504,-0.295569 -0.9047,-0.314534 -0.054,-0.01897 -0.2031,0.149318 -0.3309,0.373962 -0.1278,0.224645 -0.3784,0.562063 -0.5571,0.749818 l -0.3247,0.341373 1.311,2.579627 c 0.7211,1.418795 1.4042,2.750564 1.5181,2.959488 l 0.2072,0.379861 0.5768,-0.01979 c 0.3871,-0.01328 0.7162,0.03052 1.0002,0.133083 l 0.4234,0.152873 0.4637,-0.428276 c 0.255,-0.235553 0.4836,-0.441181 0.508,-0.456954 z m 5.2737,-3.20711 c -0.2073,-0.316473 -0.2467,-1.19601 -0.069,-1.53982 l 0.1408,-0.272417 -0.407,-0.536189 c -2.474,-3.259127 -3.2143,-4.08633 -3.8454,-4.296698 l -0.3439,-0.114633 0.6212,-0.535217 c 1.2585,-1.084416 2.1244,-2.261373 2.4524,-3.333407 0.096,-0.314325 0.1841,-0.5715 0.1954,-0.5715 0.011,0 0.332,0.18717 0.7126,0.415931 0.8552,0.513989 1.7853,0.910323 2.7009,1.150925 0.3844,0.101008 0.7169,0.201726 0.739,0.223817 0.022,0.02209 -0.3781,1.269174 -0.8893,2.771295 -0.5113,1.502122 -0.928,2.757058 -0.9261,2.788748 0,0.03169 0.1134,0.186245 0.2479,0.343455 l 0.2444,0.285838 0.2813,-0.17309 c 0.5216,-0.32099 1.6167,-0.703442 2.1592,-0.754107 l 0.5389,-0.05032 0.093,-0.370018 c 0.1043,-0.414295 0.1555,-0.472678 0.3237,-0.368743 0.096,0.05943 0.06,0.351945 -0.2098,1.687748 l -0.3262,1.615856 h -0.5508 c -1.2093,0 -2.3637,0.474112 -3.2065,1.316871 l -0.534,0.533966 z m 1.7792,-7.313376 c -0.056,-0.05421 -1.0122,-0.464782 -3.2341,-1.38866 l -0.4589,-0.19078 -0.2059,0.244718 c -0.1211,0.143909 -0.1846,0.300256 -0.1542,0.379538 0.029,0.07415 0.7256,1.028652 1.5492,2.121115 l 1.4974,1.986296 0.5362,-1.544185 c 0.2949,-0.8493 0.5066,-1.572919 0.4703,-1.608042 z m -86.4846,4.004158 c -1.0567,-0.917214 -1.9235,-1.713039 -1.9261,-1.768499 -0.012,-0.240406 0.1769,-0.158622 0.7229,0.313501 0.5478,0.473689 0.5911,0.495152 0.7199,0.357315 0.075,-0.08066 0.7997,-0.910048 1.6095,-1.843096 0.8099,-0.933047 1.8344,-2.112189 2.2768,-2.620315 0.4424,-0.508126 1.7138,-1.973334 2.8255,-3.256018 l 2.0211,-2.332151 -0.4971,-0.452702 c -1.7358,-1.580502 -2.762,-2.036997 -3.644,-1.620894 -0.2629,0.124032 -0.6895,0.48189 -1.193,1.000892 -0.5871,0.605013 -0.8081,0.783585 -0.8805,0.711249 -0.072,-0.07234 -0.035,-0.16722 0.1489,-0.377923 1.9648,-2.252319 2.4391,-2.777342 2.4911,-2.757027 0.034,0.0132 0.9167,0.766955 1.9622,1.675005 1.0454,0.90805 3.1053,2.696153 4.5775,3.973561 l 2.6768,2.322561 -0.2429,0.302106 c -0.6736,0.837762 -2.399,2.757439 -2.4784,2.757439 -0.2111,0 -0.1219,-0.207139 0.3077,-0.714688 0.5679,-0.670891 0.9791,-1.341586 1.0701,-1.745435 0.091,-0.402343 -0.072,-1.029461 -0.384,-1.479722 -0.2441,-0.352299 -1.36,-1.447327 -1.9553,-1.91879 l -0.3293,-0.260864 -2.2857,2.634002 c -1.2572,1.448701 -2.9345,3.378037 -3.7274,4.287416 -0.7929,0.909378 -1.7569,2.015365 -2.1424,2.457748 l -0.7007,0.804334 0.5682,0.515693 c 0.3444,0.312586 0.5443,0.554347 0.5076,0.613834 -0.033,0.05398 -0.087,0.09611 -0.1192,0.09364 -0.032,-0.0025 -0.9231,-0.754952 -1.9798,-1.672167 z m 92.5197,-3.567057 c -0.322,-0.355814 -0.4604,-1.059882 -0.3108,-1.581366 0.073,-0.255038 0.029,-0.312199 -1.5778,-2.061691 -1.6771,-1.825738 -2.1785,-2.253049 -2.7509,-2.344576 -0.1752,-0.02802 -0.3186,-0.07609 -0.3186,-0.10681 0,-0.03072 0.1933,-0.24493 0.4294,-0.476012 0.914,-0.894354 1.7146,-2.428727 1.8266,-3.500726 l 0.052,-0.496501 0.5392,0.04328 c 0.6314,0.05068 1.1601,-0.114792 1.5996,-0.500675 l 0.2802,-0.245999 0.061,0.277568 c 0.115,0.522173 0.056,1.245508 -0.1337,1.63717 -0.2309,0.476985 -0.8529,1.026395 -1.2975,1.146126 -0.319,0.08588 -0.4949,0.07663 -1.0753,-0.05651 -0.1716,-0.03937 -0.2351,-0.0081 -0.308,0.151988 -0.086,0.188262 0.045,0.348001 1.984,2.417162 l 2.076,2.215579 0.3611,-0.317883 c 0.5073,-0.446581 1.1133,-0.756967 1.8342,-0.939558 l 0.6189,-0.156735 0.026,-0.391051 c 0.024,-0.356348 0.045,-0.391051 0.2424,-0.391051 0.2061,0 0.2143,0.01755 0.1679,0.359833 -0.027,0.197908 -0.074,0.952124 -0.1048,1.676034 l -0.056,1.316201 -0.8149,0.193715 c -1.4529,0.34536 -2.5805,1.093554 -3.009,1.996553 -0.078,0.164815 -0.1536,0.299664 -0.1675,0.299664 -0.014,0 -0.092,-0.07368 -0.1734,-0.163728 z m -100.0974,-3.740007 c -0.2238,-0.291371 -0.9154,-1.180052 -1.5368,-1.974849 -0.6215,-0.794796 -1.4278,-1.826083 -1.7918,-2.29175 -0.3641,-0.465667 -1.2425,-1.588552 -1.9519,-2.495301 -0.7095,-0.90675 -1.2938,-1.702748 -1.2985,-1.768888 -0.021,-0.287622 0.1994,-0.141825 0.619,0.410017 l 0.451,0.593256 0.392,-0.324776 c 0.2156,-0.178626 1.2492,-0.990492 2.297,-1.804147 1.0477,-0.813654 2.305,-1.793431 2.794,-2.177283 0.4889,-0.383851 1.4605,-1.142337 2.159,-1.685523 1.0749,-0.835923 2.8971,-2.267423 2.9915,-2.350132 0.015,-0.01358 -0.1708,-0.277852 -0.4139,-0.587276 -0.3324,-0.422918 -0.4181,-0.586684 -0.3451,-0.65964 0.1208,-0.120786 0.058,-0.188888 1.3784,1.504359 0.5808,0.745067 1.8749,2.402417 2.8757,3.683 1.0007,1.280584 1.9217,2.464392 2.0465,2.630686 l 0.2269,0.302353 -1.2614,1.154203 c -1.0611,0.970898 -1.2777,1.134551 -1.3641,1.030457 -0.084,-0.101441 -0.035,-0.196333 0.274,-0.52646 0.8125,-0.868642 1.0797,-1.620864 0.8678,-2.443104 -0.1819,-0.706271 -0.6298,-1.436409 -1.8592,-3.030967 l -1.0747,-1.393837 -0.7829,0.609168 c -0.4306,0.335042 -1.5672,1.218768 -2.5259,1.963835 -0.9586,0.745066 -1.7452,1.388526 -1.7481,1.429908 -0.01,0.110489 0.8733,1.166796 1.3046,1.564391 0.4216,0.388568 0.8731,0.604421 1.2617,0.603207 0.2794,-8.72e-4 1.0071,-0.306474 1.4059,-0.590412 0.1888,-0.134474 0.2551,-0.14678 0.3266,-0.06061 0.089,0.107665 0.06,0.133548 -2.018,1.765005 -1.9573,1.536922 -2.0556,1.606411 -2.145,1.516996 -0.066,-0.06588 0.042,-0.228768 0.3827,-0.577779 0.7221,-0.739796 0.8441,-1.061929 0.657,-1.735554 -0.082,-0.297131 -0.8331,-1.487368 -1.2898,-2.045302 l -0.202,-0.246819 -1.5067,1.178152 c -0.8286,0.647984 -1.9873,1.552307 -2.5749,2.009606 -0.5875,0.4573 -1.1016,0.864062 -1.1424,0.903916 -0.1008,0.09837 1.9389,2.676406 2.7497,3.475511 0.3643,0.359125 0.8844,0.76694 1.1876,0.931333 0.4923,0.266864 0.5988,0.291889 1.2168,0.286009 0.7497,-0.0071 1.318,-0.209526 2.0357,-0.724959 0.2927,-0.210154 0.4034,-0.250048 0.4804,-0.173028 0.1243,0.124281 0.2324,0.02542 -1.5001,1.372543 -0.7916,0.615567 -1.4847,1.155446 -1.5403,1.199732 -0.071,0.05693 -0.2202,-0.07467 -0.508,-0.449245 z m 107.114,-3.85281 c -0.1087,-0.219464 -0.1661,-0.522645 -0.1722,-0.909948 l -0.01,-0.580827 -1.8115,-1.412258 c -6.7423,-5.256485 -6.6022,-5.157954 -7.4493,-5.239352 l -0.3966,-0.0381 0.2417,-0.392319 c 0.318,-0.516256 0.4952,-1.222728 0.5588,-2.227731 l 0.052,-0.819412 0.314,0.480746 c 0.5645,0.864204 0.9969,1.258271 3.2222,2.93666 l 2.1963,1.656452 v -2.119684 c 0,-2.4169 -0.082,-2.224372 0.8335,-1.952217 0.6939,0.206219 1.8352,0.350223 2.2466,0.283462 l 0.3066,-0.04975 v 1.480587 1.480587 l 0.5857,0.05443 c 0.3221,0.02994 1.0555,0.192515 1.6298,0.36128 1.4819,0.435493 1.715,0.485884 1.9613,0.424057 0.2258,-0.05668 0.6876,-0.639907 0.7458,-0.94191 0.018,-0.09236 0.093,-0.179619 0.1671,-0.1939 0.1131,-0.02178 0.1443,0.111139 0.1935,0.82481 0.032,0.467926 0.13,1.126872 0.2174,1.464326 0.1469,0.567311 0.1484,0.621658 0.02,0.721116 -0.4487,0.347305 -1.5678,0.333028 -2.5828,-0.03295 -0.3352,-0.120838 -0.8723,-0.3142 -1.1937,-0.429693 -0.3438,-0.123587 -0.7967,-0.215667 -1.1006,-0.223789 l -0.5164,-0.0138 0.013,0.753195 0.014,0.753196 0.3769,0.376849 0.3768,0.376849 0.6096,-0.219878 c 1.0374,-0.374214 0.9804,-0.43741 0.9804,1.088049 v 1.307927 l -0.5682,0.128322 c -0.7514,0.169683 -1.3406,0.477504 -1.6484,0.86117 l -0.2507,0.312564 z m -0.1655,-7.712126 -0.054,-0.609671 -0.3953,-0.05173 c -0.2174,-0.02845 -0.7931,-0.124652 -1.2793,-0.213782 -0.4862,-0.08913 -0.8917,-0.153451 -0.9011,-0.142936 -0.01,0.01052 -0.031,0.567755 -0.047,1.23831 l -0.03,1.219189 1.3547,1.035462 1.3546,1.035462 0.026,-1.450318 c 0.014,-0.797675 0,-1.72467 -0.028,-2.059989 z"
           id="path5914"
           inkscape:connector-curvature="0" />
      </g>
      <g
         id="g6241"
         transform="translate(-121.70835)">
        <path
           sodipodi:nodetypes="cccc"
           inkscape:connector-curvature="0"
           id="path6204"
           d="m -2861.5773,-74.155086 c 1.1751,-7.459699 5.7565,-10.334049 11.2161,-12.026138 l 1.6201,3.240203 c -8.733,0.349957 -11.3465,5.888523 -11.0292,9.533674"
           style="opacity:1;vector-effect:none;fill:#d7d7d7;fill-opacity:1;stroke:#000000;stroke-width:0.39687499;stroke-linecap:round;stroke-linejoin:miter;stroke-miterlimit:4;stroke-dasharray:none;stroke-dashoffset:0;stroke-opacity:1" />
        <path
           style="opacity:1;vector-effect:none;fill:#d7d7d7;fill-opacity:1;fill-rule:evenodd;stroke:#000000;stroke-width:0.39687499;stroke-linecap:round;stroke-linejoin:miter;stroke-miterlimit:4;stroke-dasharray:none;stroke-dashoffset:0;stroke-opacity:1"
           d="m -2855.8178,-64.496788 a 4.3814425,4.3814425 0 0 1 -4.3815,4.381443 4.3814425,4.3814425 0 0 1 -4.3814,-4.381443 4.3814425,4.3814425 0 0 1 4.3814,-4.381443 4.3814425,4.3814425 0 0 1 4.3815,4.381443 z"
           id="path5946"
           inkscape:connector-curvature="0" />
        <path
           style="opacity:1;vector-effect:none;fill:#d7d7d7;fill-opacity:1;fill-rule:evenodd;stroke:#000000;stroke-width:0.39687499;stroke-linecap:round;stroke-linejoin:miter;stroke-miterlimit:4;stroke-dasharray:none;stroke-dashoffset:0;stroke-opacity:1"
           d="m -2855.8178,-48.217232 a 4.3814425,4.3814425 0 0 1 -4.3815,4.381443 4.3814425,4.3814425 0 0 1 -4.3814,-4.381443 4.3814425,4.3814425 0 0 1 4.3814,-4.381442 4.3814425,4.3814425 0 0 1 4.3815,4.381442 z"
           id="circle5948"
           inkscape:connector-curvature="0" />
        <path
           inkscape:transform-center-y="-6.6701987"
           inkscape:transform-center-x="13.381751"
           inkscape:connector-curvature="0"
           style="opacity:1;vector-effect:none;fill:#d7d7d7;fill-opacity:1;fill-rule:evenodd;stroke:#000000;stroke-width:0.39687499;stroke-linecap:round;stroke-linejoin:miter;stroke-miterlimit:4;stroke-dasharray:none;stroke-dashoffset:0;stroke-opacity:1"
           d="m -2869.1997,-72.527306 a 4.3814425,4.3814425 0 0 1 -4.3814,4.381443 4.3814425,4.3814425 0 0 1 -4.3814,-4.381443 4.3814425,4.3814425 0 0 1 4.3814,-4.381442 4.3814425,4.3814425 0 0 1 4.3814,4.381442 z"
           id="circle5950" />
        <path
           inkscape:transform-center-y="1.4331601"
           inkscape:transform-center-x="8.9211508"
           id="path5984"
           style="opacity:1;vector-effect:none;fill:#d7d7d7;fill-opacity:1;fill-rule:evenodd;stroke:#000000;stroke-width:0.39687499;stroke-linecap:round;stroke-linejoin:miter;stroke-miterlimit:4;stroke-dasharray:none;stroke-dashoffset:0;stroke-opacity:1"
           d="m -2864.7391,-64.423948 c 0,1.193943 -0.4808,2.295661 -1.2833,3.098145 -0.8024,0.802483 -1.9042,1.283295 -3.0981,1.283298 -1e-4,0 -2e-4,0 -3e-4,0 -2.4196,-1.83e-4 -4.3811,-1.961754 -4.3811,-4.381443 0,-9.8e-5 0,-1.97e-4 0,-2.95e-4 2e-4,-2.419652 1.9617,-4.381124 4.3814,-4.381147 2e-4,0 4e-4,0 6e-4,0 1.1938,1.62e-4 2.2954,0.481023 3.0977,1.283491 0.8024,0.802468 1.2831,1.904107 1.2831,3.097951 0,0 0,0 0,0 0,0 0,0 0,0"
           inkscape:connector-curvature="0" />
        <path
           inkscape:transform-center-y="9.5365189"
           inkscape:transform-center-x="4.4605003"
           id="path5986"
           style="opacity:1;vector-effect:none;fill:#d7d7d7;fill-opacity:1;fill-rule:evenodd;stroke:#000000;stroke-width:0.39687499;stroke-linecap:round;stroke-linejoin:miter;stroke-miterlimit:4;stroke-dasharray:none;stroke-dashoffset:0;stroke-opacity:1"
           d="m -2860.2784,-56.32059 c 0,1.177992 -0.4712,2.286074 -1.2833,3.098157 -0.8121,0.812082 -1.9202,1.283292 -3.0982,1.283286 -2e-4,0 -4e-4,0 -6e-4,0 -2.4195,-3.43e-4 -4.3808,-1.961852 -4.3808,-4.381443 0,-1.97e-4 0,-3.94e-4 0,-5.91e-4 3e-4,-2.419515 1.9618,-4.380828 4.3814,-4.380851 1e-4,0 2e-4,0 3e-4,0 1.1779,7.4e-5 2.2859,0.471308 3.098,1.283383 0.812,0.812075 1.2832,1.920117 1.2832,3.098059 0,0 0,0 0,0 0,0 0,0 0,0"
           inkscape:connector-curvature="0" />
        <path
           id="path6030"
           d="m -2851.199,-72.527306 a 4.3814425,4.3814425 0 0 0 4.3814,4.381443 4.3814425,4.3814425 0 0 0 4.3814,-4.381443 4.3814425,4.3814425 0 0 0 -4.3814,-4.381442 4.3814425,4.3814425 0 0 0 -4.3814,4.381442 z"
           style="opacity:1;vector-effect:none;fill:#d7d7d7;fill-opacity:1;fill-rule:evenodd;stroke:#000000;stroke-width:0.39687499;stroke-linecap:round;stroke-linejoin:miter;stroke-miterlimit:4;stroke-dasharray:none;stroke-dashoffset:0;stroke-opacity:1"
           inkscape:connector-curvature="0"
           inkscape:transform-center-x="-13.381751"
           inkscape:transform-center-y="-6.6701987" />
        <path
           inkscape:connector-curvature="0"
           d="m -2855.6596,-64.423948 c 0,1.193943 0.4808,2.295661 1.2833,3.098145 0.8024,0.802483 1.9042,1.283295 3.0981,1.283298 1e-4,0 2e-4,0 3e-4,0 2.4196,-1.83e-4 4.3811,-1.961754 4.3811,-4.381443 0,-9.8e-5 0,-1.97e-4 0,-2.95e-4 -2e-4,-2.419652 -1.9617,-4.381124 -4.3814,-4.381147 -2e-4,0 -4e-4,0 -6e-4,0 -1.1938,1.62e-4 -2.2954,0.481023 -3.0977,1.283491 -0.8024,0.802468 -1.2831,1.904107 -1.2831,3.097951 0,0 0,0 0,0 0,0 0,0 0,0"
           style="opacity:1;vector-effect:none;fill:#d7d7d7;fill-opacity:1;fill-rule:evenodd;stroke:#000000;stroke-width:0.39687499;stroke-linecap:round;stroke-linejoin:miter;stroke-miterlimit:4;stroke-dasharray:none;stroke-dashoffset:0;stroke-opacity:1"
           id="path6032"
           inkscape:transform-center-x="-8.9211511"
           inkscape:transform-center-y="1.4331601" />
        <path
           inkscape:connector-curvature="0"
           d="m -2860.1203,-56.32059 c 0,1.177992 0.4712,2.286074 1.2833,3.098157 0.8121,0.812082 1.9202,1.283292 3.0982,1.283286 2e-4,0 4e-4,0 6e-4,0 2.4195,-3.43e-4 4.3808,-1.961852 4.3808,-4.381443 0,-1.97e-4 0,-3.94e-4 0,-5.91e-4 -3e-4,-2.419515 -1.9618,-4.380828 -4.3814,-4.380851 -10e-5,0 -2e-4,0 -3e-4,0 -1.1779,7.4e-5 -2.2859,0.471308 -3.098,1.283383 -0.812,0.812075 -1.2832,1.920117 -1.2832,3.098059 0,0 0,0 0,0 0,0 0,0 0,0"
           style="opacity:1;vector-effect:none;fill:#d7d7d7;fill-opacity:1;fill-rule:evenodd;stroke:#000000;stroke-width:0.39687499;stroke-linecap:round;stroke-linejoin:miter;stroke-miterlimit:4;stroke-dasharray:none;stroke-dashoffset:0;stroke-opacity:1"
           id="path6034"
           inkscape:transform-center-x="-4.4605006"
           inkscape:transform-center-y="9.5365189" />
        <path
           inkscape:transform-center-y="-6.6701987"
           inkscape:transform-center-x="-13.381751"
           inkscape:connector-curvature="0"
           style="opacity:1;vector-effect:none;fill:#d7d7d7;fill-opacity:1;fill-rule:evenodd;stroke:#000000;stroke-width:0.39687499;stroke-linecap:round;stroke-linejoin:miter;stroke-miterlimit:4;stroke-dasharray:none;stroke-dashoffset:0;stroke-opacity:1"
           d="m -2860.1954,-72.527306 a 4.3814425,4.3814425 0 0 0 4.3814,4.381443 4.3814425,4.3814425 0 0 0 4.3814,-4.381443 4.3814425,4.3814425 0 0 0 -4.3814,-4.381442 4.3814425,4.3814425 0 0 0 -4.3814,4.381442 z"
           id="path6200" />
        <path
           id="path6202"
           d="m -2860.2033,-72.527306 a 4.3814425,4.3814425 0 0 1 -4.3814,4.381443 4.3814425,4.3814425 0 0 1 -4.3814,-4.381443 4.3814425,4.3814425 0 0 1 4.3814,-4.381442 4.3814425,4.3814425 0 0 1 4.3814,4.381442 z"
           style="opacity:1;vector-effect:none;fill:#d7d7d7;fill-opacity:1;fill-rule:evenodd;stroke:#000000;stroke-width:0.39687499;stroke-linecap:round;stroke-linejoin:miter;stroke-miterlimit:4;stroke-dasharray:none;stroke-dashoffset:0;stroke-opacity:1"
           inkscape:connector-curvature="0"
           inkscape:transform-center-x="13.381751"
           inkscape:transform-center-y="-6.6701987" />
      </g>
      <g
         id="g6249"
         transform="translate(-148.1667)">
        <path
           sodipodi:nodetypes="csccc"
           inkscape:connector-curvature="0"
           id="path6243"
           d="m -2860.0402,-86.284734 c -7.1759,-0.265433 -16.903,-0.964735 -16.9307,2.52996 -0.044,5.557868 31.9377,1.915042 41.032,-18.347836 -6.738,4.75492 -13.8299,8.60921 -21.8542,10.089953 -0.3375,2.000758 -0.8625,3.95985 -2.2471,5.727923 z"
           style="opacity:1;vector-effect:none;fill:#d7d7d7;fill-opacity:1;stroke:#000000;stroke-width:0.39687499;stroke-linecap:round;stroke-linejoin:miter;stroke-miterlimit:4;stroke-dasharray:none;stroke-dashoffset:0;stroke-opacity:1" />
        <path
           sodipodi:nodetypes="ccc"
           inkscape:connector-curvature="0"
           id="path6245"
           d="m -2863.0369,-82.40994 c 1.0467,-1.172203 2.0667,-2.410914 2.9967,-3.874794 1.1299,0.936654 2.1772,1.377516 3.2538,1.994176"
           style="opacity:1;vector-effect:none;fill:#d7d7d7;fill-opacity:1;stroke:#000000;stroke-width:0.39687499;stroke-linecap:round;stroke-linejoin:miter;stroke-miterlimit:4;stroke-dasharray:none;stroke-dashoffset:0;stroke-opacity:1" />
      </g>
      <g
         transform="translate(-127.00002)"
         id="g6406">
        <path
           style="opacity:1;vector-effect:none;fill:#d7d7d7;fill-opacity:1;stroke:#d7d7d7;stroke-width:1.05833328;stroke-linecap:round;stroke-linejoin:miter;stroke-miterlimit:4;stroke-dasharray:none;stroke-dashoffset:0;stroke-opacity:1"
           d="m -2896.0115,-143.21148 v 44.754872"
           id="path6357"
           inkscape:connector-curvature="0" />
        <path
           inkscape:connector-curvature="0"
           id="path6361"
           d="m -2898.6267,-143.21148 v 15.65071"
           style="opacity:1;vector-effect:none;fill:#d7d7d7;fill-opacity:1;stroke:#d7d7d7;stroke-width:1.05833328;stroke-linecap:round;stroke-linejoin:miter;stroke-miterlimit:4;stroke-dasharray:none;stroke-dashoffset:0;stroke-opacity:1"
           sodipodi:nodetypes="cc"
           inkscape:transform-center-x="2.5734048"
           inkscape:transform-center-y="9.7748026" />
        <path
           style="opacity:1;vector-effect:none;fill:#d7d7d7;fill-opacity:1;stroke:#d7d7d7;stroke-width:1.05833328;stroke-linecap:round;stroke-linejoin:miter;stroke-miterlimit:4;stroke-dasharray:none;stroke-dashoffset:0;stroke-opacity:1"
           d="m -2901.335,-143.21148 v 31.52571"
           id="path6363"
           inkscape:connector-curvature="0"
           sodipodi:nodetypes="cc"
           inkscape:transform-center-x="5.281705"
           inkscape:transform-center-y="17.712303" />
        <path
           inkscape:transform-center-y="9.7748026"
           inkscape:transform-center-x="-2.5733959"
           sodipodi:nodetypes="cc"
           style="opacity:1;vector-effect:none;fill:#d7d7d7;fill-opacity:1;stroke:#d7d7d7;stroke-width:1.05833328;stroke-linecap:round;stroke-linejoin:miter;stroke-miterlimit:4;stroke-dasharray:none;stroke-dashoffset:0;stroke-opacity:1"
           d="m -2893.4799,-143.21148 v 15.65071"
           id="path6381"
           inkscape:connector-curvature="0" />
        <path
           inkscape:transform-center-y="17.712303"
           inkscape:transform-center-x="-5.2816961"
           sodipodi:nodetypes="cc"
           inkscape:connector-curvature="0"
           id="path6383"
           d="m -2890.7716,-143.21148 v 31.52571"
           style="opacity:1;vector-effect:none;fill:#d7d7d7;fill-opacity:1;stroke:#d7d7d7;stroke-width:1.05833328;stroke-linecap:round;stroke-linejoin:miter;stroke-miterlimit:4;stroke-dasharray:none;stroke-dashoffset:0;stroke-opacity:1" />
        <path
           id="path6251"
           d="m -2901.1789,-131.96613 a 5.0859856,5.0859856 0 0 0 -0.7054,0.0548 5.0859856,5.0859856 0 0 0 -0.1483,1.19476 5.0859856,5.0859856 0 0 0 5.086,5.08599 5.0859856,5.0859856 0 0 0 0.7053,-0.0543 5.0859856,5.0859856 0 0 0 0.1484,-1.19528 5.0859856,5.0859856 0 0 0 -5.086,-5.08599 z"
           style="opacity:1;vector-effect:none;fill:#d7d7d7;fill-opacity:1;fill-rule:evenodd;stroke:#000000;stroke-width:0.39687499;stroke-linecap:round;stroke-linejoin:miter;stroke-miterlimit:4;stroke-dasharray:none;stroke-dashoffset:0;stroke-opacity:1"
           inkscape:connector-curvature="0"
           inkscape:transform-center-x="3.0095321"
           inkscape:transform-center-y="16.362564" />
        <path
           inkscape:connector-curvature="0"
           style="opacity:1;vector-effect:none;fill:#d7d7d7;fill-opacity:1;fill-rule:evenodd;stroke:#000000;stroke-width:0.39687499;stroke-linecap:round;stroke-linejoin:miter;stroke-miterlimit:4;stroke-dasharray:none;stroke-dashoffset:0;stroke-opacity:1"
           d="m -2901.179,-112.91601 a 5.0859856,5.0859856 0 0 0 -0.7054,0.0548 5.0859856,5.0859856 0 0 0 -0.1483,1.19476 5.0859856,5.0859856 0 0 0 5.086,5.086 5.0859856,5.0859856 0 0 0 0.7054,-0.0543 5.0859856,5.0859856 0 0 0 0.1483,-1.19528 5.0859856,5.0859856 0 0 0 -5.086,-5.08599 z"
           id="path6256"
           inkscape:transform-center-x="3.0095548"
           inkscape:transform-center-y="35.412695" />
        <path
           inkscape:connector-curvature="0"
           d="m -2901.1789,-119.26605 c -0.2361,0.002 -0.4718,0.0202 -0.7054,0.0548 -0.097,0.39098 -0.1463,0.79204 -0.1483,1.19476 0,1.34889 0.5358,2.64254 1.4897,3.59635 0.9538,0.95381 2.2474,1.48965 3.5963,1.48965 0.2361,-0.002 0.4718,-0.0198 0.7054,-0.0543 0.097,-0.39114 0.1464,-0.79238 0.1483,-1.19528 0,-1.34889 -0.5358,-2.64253 -1.4896,-3.59634 -0.9539,-0.95381 -2.2475,-1.48965 -3.5964,-1.48965 0,0 0,10e-6 0,10e-6"
           style="opacity:1;vector-effect:none;fill:#d7d7d7;fill-opacity:1;fill-rule:evenodd;stroke:#000000;stroke-width:0.39687499;stroke-linecap:round;stroke-linejoin:miter;stroke-miterlimit:4;stroke-dasharray:none;stroke-dashoffset:0;stroke-opacity:1"
           id="path6301" />
        <path
           inkscape:connector-curvature="0"
           d="m -2901.1789,-125.61609 c -0.2361,0.002 -0.4718,0.0202 -0.7054,0.0548 -0.097,0.39098 -0.1463,0.79204 -0.1483,1.19476 0,1.3489 0.5359,2.64254 1.4897,3.59635 0.9538,0.95381 2.2474,1.48965 3.5963,1.48965 0.2361,-0.002 0.4718,-0.0198 0.7054,-0.0543 0.097,-0.39115 0.1464,-0.79239 0.1483,-1.19528 0,-1.34889 -0.5358,-2.64253 -1.4896,-3.59634 -0.9539,-0.95381 -2.2475,-1.48966 -3.5964,-1.48965 0,0 0,0 0,0"
           style="opacity:1;vector-effect:none;fill:#d7d7d7;fill-opacity:1;fill-rule:evenodd;stroke:#000000;stroke-width:0.39687499;stroke-linecap:round;stroke-linejoin:miter;stroke-miterlimit:4;stroke-dasharray:none;stroke-dashoffset:0;stroke-opacity:1"
           id="path6303" />
        <path
           inkscape:transform-center-y="16.362563"
           inkscape:transform-center-x="-3.0095458"
           inkscape:connector-curvature="0"
           style="opacity:1;vector-effect:none;fill:#d7d7d7;fill-opacity:1;fill-rule:evenodd;stroke:#000000;stroke-width:0.39687499;stroke-linecap:round;stroke-linejoin:miter;stroke-miterlimit:4;stroke-dasharray:none;stroke-dashoffset:0;stroke-opacity:1"
           d="m -2890.9276,-131.96613 a 5.0859856,5.0859856 0 0 1 0.7054,0.0548 5.0859856,5.0859856 0 0 1 0.1483,1.19476 5.0859856,5.0859856 0 0 1 -5.086,5.08599 5.0859856,5.0859856 0 0 1 -0.7054,-0.0543 5.0859856,5.0859856 0 0 1 -0.1483,-1.19528 5.0859856,5.0859856 0 0 1 5.086,-5.08599 z"
           id="path6367" />
        <path
           inkscape:transform-center-y="35.412695"
           inkscape:transform-center-x="-3.0095459"
           id="path6369"
           d="m -2890.9276,-112.91601 a 5.0859856,5.0859856 0 0 1 0.7054,0.0548 5.0859856,5.0859856 0 0 1 0.1483,1.19476 5.0859856,5.0859856 0 0 1 -5.086,5.086 5.0859856,5.0859856 0 0 1 -0.7054,-0.0543 5.0859856,5.0859856 0 0 1 -0.1483,-1.19528 5.0859856,5.0859856 0 0 1 5.086,-5.08599 z"
           style="opacity:1;vector-effect:none;fill:#d7d7d7;fill-opacity:1;fill-rule:evenodd;stroke:#000000;stroke-width:0.39687499;stroke-linecap:round;stroke-linejoin:miter;stroke-miterlimit:4;stroke-dasharray:none;stroke-dashoffset:0;stroke-opacity:1"
           inkscape:connector-curvature="0" />
        <path
           id="path6373"
           style="opacity:1;vector-effect:none;fill:#d7d7d7;fill-opacity:1;fill-rule:evenodd;stroke:#000000;stroke-width:0.39687499;stroke-linecap:round;stroke-linejoin:miter;stroke-miterlimit:4;stroke-dasharray:none;stroke-dashoffset:0;stroke-opacity:1"
           d="m -2890.9276,-119.26605 c 0.2361,0.002 0.4718,0.0202 0.7054,0.0548 0.097,0.39098 0.1463,0.79204 0.1483,1.19476 0,1.34889 -0.5358,2.64254 -1.4897,3.59635 -0.9538,0.95381 -2.2474,1.48965 -3.5963,1.48965 -0.2361,-0.002 -0.4718,-0.0198 -0.7054,-0.0543 -0.097,-0.39114 -0.1464,-0.79238 -0.1483,-1.19528 0,-1.34889 0.5358,-2.64253 1.4896,-3.59634 0.9539,-0.95381 2.2475,-1.48965 3.5964,-1.48965 0,0 0,10e-6 0,10e-6"
           inkscape:connector-curvature="0" />
        <path
           id="path6375"
           style="opacity:1;vector-effect:none;fill:#d7d7d7;fill-opacity:1;fill-rule:evenodd;stroke:#000000;stroke-width:0.39687499;stroke-linecap:round;stroke-linejoin:miter;stroke-miterlimit:4;stroke-dasharray:none;stroke-dashoffset:0;stroke-opacity:1"
           d="m -2890.9276,-125.61609 c 0.2361,0.002 0.4718,0.0202 0.7054,0.0548 0.097,0.39098 0.1463,0.79204 0.1483,1.19476 0,1.3489 -0.5359,2.64254 -1.4897,3.59635 -0.9538,0.95381 -2.2474,1.48965 -3.5963,1.48965 -0.2361,-0.002 -0.4718,-0.0198 -0.7054,-0.0543 -0.097,-0.39115 -0.1464,-0.79239 -0.1483,-1.19528 0,-1.34889 0.5358,-2.64253 1.4896,-3.59634 0.9539,-0.95381 2.2475,-1.48966 3.5964,-1.48965 0,0 0,0 0,0"
           inkscape:connector-curvature="0" />
      </g>
      <g
         id="g6593"
         transform="translate(-148.1667)">
        <path
           style="opacity:1;vector-effect:none;fill:none;fill-opacity:1;stroke:#d7d7d7;stroke-width:1.05833328;stroke-linecap:round;stroke-linejoin:miter;stroke-miterlimit:4;stroke-dasharray:none;stroke-dashoffset:0;stroke-opacity:1"
           d="m -2867.3341,-97.023442 19.7527,-22.806038"
           id="path6418"
           inkscape:connector-curvature="0"
           sodipodi:nodetypes="cc" />
        <path
           style="opacity:1;vector-effect:none;fill:#d7d7d7;fill-opacity:1;fill-rule:evenodd;stroke:#000000;stroke-width:0.07937504;stroke-linecap:round;stroke-linejoin:miter;stroke-miterlimit:4;stroke-dasharray:none;stroke-dashoffset:0;stroke-opacity:1"
           d="m -2859.1178,-108.43593 a 1.6220222,1.6220222 0 0 1 -1.6221,1.62202 1.6220222,1.6220222 0 0 1 -1.6218,-1.62202 1.6220222,1.6220222 0 0 1 1.6218,-1.62201 1.6220222,1.6220222 0 0 1 1.6221,1.62201 z"
           id="path6420"
           inkscape:connector-curvature="0" />
        <path
           inkscape:connector-curvature="0"
           id="path6423"
           d="m -2847.9827,-121.29235 a 1.6220222,1.6220222 0 0 1 -1.6221,1.62202 1.6220222,1.6220222 0 0 1 -1.6218,-1.62202 1.6220222,1.6220222 0 0 1 1.6218,-1.62201 1.6220222,1.6220222 0 0 1 1.6221,1.62201 z"
           style="opacity:1;vector-effect:none;fill:#d7d7d7;fill-opacity:1;fill-rule:evenodd;stroke:#000000;stroke-width:0.07937504;stroke-linecap:round;stroke-linejoin:miter;stroke-miterlimit:4;stroke-dasharray:none;stroke-dashoffset:0;stroke-opacity:1" />
        <path
           id="path6487"
           style="opacity:1;vector-effect:none;fill:#d7d7d7;fill-opacity:1;fill-rule:evenodd;stroke:#000000;stroke-width:0.07937504;stroke-linecap:round;stroke-linejoin:miter;stroke-miterlimit:4;stroke-dasharray:none;stroke-dashoffset:0;stroke-opacity:1"
           d="m -2850.2097,-118.72107 c 0,0.4302 -0.1709,0.84278 -0.4751,1.14697 -0.3042,0.30419 -0.7168,0.47507 -1.147,0.47505 -0.8958,-1.2e-4 -1.6218,-0.72629 -1.6218,-1.62202 0,-0.89572 0.7261,-1.62188 1.6218,-1.62201 0.4302,-2e-5 0.8428,0.17086 1.147,0.47505 0.3042,0.30419 0.4751,0.71677 0.4751,1.14696 0,0 0,0 0,0"
           inkscape:connector-curvature="0" />
        <path
           id="path6489"
           style="opacity:1;vector-effect:none;fill:#d7d7d7;fill-opacity:1;fill-rule:evenodd;stroke:#000000;stroke-width:0.07937504;stroke-linecap:round;stroke-linejoin:miter;stroke-miterlimit:4;stroke-dasharray:none;stroke-dashoffset:0;stroke-opacity:1"
           d="m -2852.4367,-116.14978 c 0,0.4302 -0.1709,0.84278 -0.4751,1.14697 -0.3043,0.30419 -0.7168,0.47507 -1.147,0.47505 -0.8958,-1.2e-4 -1.6218,-0.72629 -1.6218,-1.62202 0,-0.89573 0.726,-1.62189 1.6218,-1.62201 0.4302,-2e-5 0.8427,0.17086 1.1469,0.47505 0.3043,0.30418 0.4752,0.71676 0.4752,1.14696 0,0 0,0 0,0"
           inkscape:connector-curvature="0" />
        <path
           id="path6491"
           style="opacity:1;vector-effect:none;fill:#d7d7d7;fill-opacity:1;fill-rule:evenodd;stroke:#000000;stroke-width:0.07937504;stroke-linecap:round;stroke-linejoin:miter;stroke-miterlimit:4;stroke-dasharray:none;stroke-dashoffset:0;stroke-opacity:1"
           d="m -2854.6638,-113.5785 c 0,0.4302 -0.1709,0.84278 -0.4751,1.14697 -0.3042,0.30419 -0.7168,0.47507 -1.147,0.47505 -0.8957,-1.2e-4 -1.6218,-0.72629 -1.6218,-1.62202 0,-0.89572 0.7261,-1.62189 1.6218,-1.62201 0.4302,-2e-5 0.8428,0.17086 1.147,0.47505 0.3042,0.30419 0.4751,0.71676 0.4751,1.14696 0,0 0,0 0,0"
           inkscape:connector-curvature="0" />
        <path
           id="path6493"
           style="opacity:1;vector-effect:none;fill:#d7d7d7;fill-opacity:1;fill-rule:evenodd;stroke:#000000;stroke-width:0.07937504;stroke-linecap:round;stroke-linejoin:miter;stroke-miterlimit:4;stroke-dasharray:none;stroke-dashoffset:0;stroke-opacity:1"
           d="m -2856.8908,-111.00721 c 0,0.4302 -0.1709,0.84278 -0.4751,1.14696 -0.3042,0.30419 -0.7168,0.47508 -1.147,0.47506 -0.8957,-1.3e-4 -1.6218,-0.72629 -1.6218,-1.62202 0,-0.89573 0.7261,-1.62189 1.6218,-1.62201 0.4302,-2e-5 0.8428,0.17086 1.147,0.47504 0.3042,0.30419 0.4751,0.71677 0.4751,1.14697 0,0 0,0 0,0"
           inkscape:connector-curvature="0" />
        <path
           inkscape:connector-curvature="0"
           id="path6574"
           d="m -2852.3318,-108.43593 a 1.6220222,1.6220222 0 0 1 -1.6221,1.62202 1.6220222,1.6220222 0 0 1 -1.6218,-1.62202 1.6220222,1.6220222 0 0 1 1.6218,-1.62201 1.6220222,1.6220222 0 0 1 1.6221,1.62201 z"
           style="opacity:1;vector-effect:none;fill:#d7d7d7;fill-opacity:1;fill-rule:evenodd;stroke:#000000;stroke-width:0.07937504;stroke-linecap:round;stroke-linejoin:miter;stroke-miterlimit:4;stroke-dasharray:none;stroke-dashoffset:0;stroke-opacity:1" />
        <path
           inkscape:connector-curvature="0"
           d="m -2845.6507,-116.14978 c 0,0.4302 -0.1709,0.84278 -0.4751,1.14697 -0.3043,0.30419 -0.7168,0.47507 -1.147,0.47505 -0.8958,-1.2e-4 -1.6218,-0.72629 -1.6218,-1.62202 0,-0.89573 0.726,-1.62189 1.6218,-1.62201 0.4302,-2e-5 0.8427,0.17086 1.1469,0.47505 0.3043,0.30418 0.4752,0.71676 0.4752,1.14696 0,0 0,0 0,0"
           style="opacity:1;vector-effect:none;fill:#d7d7d7;fill-opacity:1;fill-rule:evenodd;stroke:#000000;stroke-width:0.07937504;stroke-linecap:round;stroke-linejoin:miter;stroke-miterlimit:4;stroke-dasharray:none;stroke-dashoffset:0;stroke-opacity:1"
           id="path6576" />
        <path
           inkscape:connector-curvature="0"
           d="m -2847.8778,-113.5785 c 0,0.4302 -0.1709,0.84278 -0.4751,1.14697 -0.3042,0.30419 -0.7168,0.47507 -1.147,0.47505 -0.8957,-1.2e-4 -1.6218,-0.72629 -1.6218,-1.62202 0,-0.89572 0.7261,-1.62189 1.6218,-1.62201 0.4302,-2e-5 0.8428,0.17086 1.147,0.47505 0.3042,0.30419 0.4751,0.71676 0.4751,1.14696 0,0 0,0 0,0"
           style="opacity:1;vector-effect:none;fill:#d7d7d7;fill-opacity:1;fill-rule:evenodd;stroke:#000000;stroke-width:0.07937504;stroke-linecap:round;stroke-linejoin:miter;stroke-miterlimit:4;stroke-dasharray:none;stroke-dashoffset:0;stroke-opacity:1"
           id="path6578" />
        <path
           inkscape:connector-curvature="0"
           d="m -2850.1048,-111.00721 c 0,0.4302 -0.1709,0.84278 -0.4751,1.14696 -0.3042,0.30419 -0.7168,0.47508 -1.147,0.47506 -0.8957,-1.3e-4 -1.6218,-0.72629 -1.6218,-1.62202 0,-0.89573 0.7261,-1.62189 1.6218,-1.62201 0.4302,-2e-5 0.8428,0.17086 1.147,0.47504 0.3042,0.30419 0.4751,0.71677 0.4751,1.14697 0,0 0,0 0,0"
           style="opacity:1;vector-effect:none;fill:#d7d7d7;fill-opacity:1;fill-rule:evenodd;stroke:#000000;stroke-width:0.07937504;stroke-linecap:round;stroke-linejoin:miter;stroke-miterlimit:4;stroke-dasharray:none;stroke-dashoffset:0;stroke-opacity:1"
           id="path6580" />
      </g>
      <g
         transform="translate(-148.1667)"
         id="g6414">
        <path
           style="opacity:1;vector-effect:none;fill:#d7d7d7;fill-opacity:1;stroke:#000000;stroke-width:0.39687499;stroke-linecap:round;stroke-linejoin:miter;stroke-miterlimit:4;stroke-dasharray:none;stroke-dashoffset:0;stroke-opacity:1"
           d="m -2866.1206,-111.79602 c -4.0064,5.96978 -4.6463,11.651 -4.5823,17.271889 l 3.9214,-1.938681 c -0.2868,-4.998378 -0.1094,-10.099918 0.6609,-15.333208 z"
           id="path6410"
           inkscape:connector-curvature="0"
           sodipodi:nodetypes="cccc" />
        <path
           style="opacity:1;vector-effect:none;fill:#d7d7d7;fill-opacity:1;stroke:#000000;stroke-width:0.39687499;stroke-linecap:round;stroke-linejoin:miter;stroke-miterlimit:4;stroke-dasharray:none;stroke-dashoffset:0;stroke-opacity:1"
           d="m -2876.2106,-89.85367 4.1858,0.704975 c 7.0694,-7.556834 13.2365,-8.008303 19.3868,-8.327519 -6.9253,-3.621496 -18.5022,-1.323921 -23.5726,7.622544 z"
           id="path6408"
           inkscape:connector-curvature="0"
           sodipodi:nodetypes="cccc" />
      </g>
      <g
         transform="translate(-227.54175)"
         id="g7488">
        <g
           id="g6721">
          <path
             inkscape:transform-center-y="-33.29368"
             inkscape:transform-center-x="-5.3804242"
             sodipodi:nodetypes="cccc"
             inkscape:connector-curvature="0"
             id="path6674"
             d="m -2736.8631,-155.32824 h 10.7999 v 23.04387 h -10.839"
             style="opacity:1;vector-effect:none;fill:#000000;fill-opacity:1;stroke:#d7d7d7;stroke-width:0.39687499;stroke-linecap:round;stroke-linejoin:miter;stroke-miterlimit:4;stroke-dasharray:none;stroke-dashoffset:0;stroke-opacity:1" />
          <path
             inkscape:transform-center-y="-33.29368"
             inkscape:transform-center-x="-6.7022243"
             inkscape:connector-curvature="0"
             id="path6676"
             d="m -2730.1609,-155.32824 v 23.04387"
             style="opacity:1;vector-effect:none;fill:none;fill-opacity:1;stroke:#d7d7d7;stroke-width:0.39687499;stroke-linecap:round;stroke-linejoin:miter;stroke-miterlimit:4;stroke-dasharray:none;stroke-dashoffset:0;stroke-opacity:1" />
          <path
             style="opacity:1;vector-effect:none;fill:#000000;fill-opacity:1;stroke:#d7d7d7;stroke-width:0.39687499;stroke-linecap:round;stroke-linejoin:miter;stroke-miterlimit:4;stroke-dasharray:none;stroke-dashoffset:0;stroke-opacity:1"
             d="m -2736.8631,-155.32824 h -10.7999 v 23.04387 h 10.839"
             id="path6617"
             inkscape:connector-curvature="0"
             sodipodi:nodetypes="cccc"
             inkscape:transform-center-x="5.380376"
             inkscape:transform-center-y="-33.29368" />
          <path
             style="opacity:1;vector-effect:none;fill:none;fill-opacity:1;stroke:#d7d7d7;stroke-width:0.39687499;stroke-linecap:round;stroke-linejoin:miter;stroke-miterlimit:4;stroke-dasharray:none;stroke-dashoffset:0;stroke-opacity:1"
             d="m -2743.5653,-155.32824 v 23.04387"
             id="path6619"
             inkscape:connector-curvature="0"
             inkscape:transform-center-x="6.7021761"
             inkscape:transform-center-y="-33.29368" />
          <path
             style="opacity:1;vector-effect:none;fill:none;fill-opacity:1;stroke:#d7d7d7;stroke-width:0.39687499;stroke-linecap:round;stroke-linejoin:miter;stroke-miterlimit:4;stroke-dasharray:none;stroke-dashoffset:0;stroke-opacity:1"
             d="m -2743.5213,-142.33026 h 6.6582"
             id="path6621"
             inkscape:connector-curvature="0"
             inkscape:transform-center-x="3.3290758"
             inkscape:transform-center-y="-31.817635" />
          <path
             style="opacity:1;vector-effect:none;fill:none;fill-opacity:1;stroke:#d7d7d7;stroke-width:0.39687499;stroke-linecap:round;stroke-linejoin:miter;stroke-miterlimit:4;stroke-dasharray:none;stroke-dashoffset:0;stroke-opacity:1"
             d="m -2743.5607,-146.03138 h 2.3062"
             id="path6623"
             inkscape:connector-curvature="0"
             inkscape:transform-center-x="5.544476"
             inkscape:transform-center-y="-35.518755" />
          <path
             sodipodi:nodetypes="cc"
             inkscape:connector-curvature="0"
             id="path6638"
             d="m -2736.8631,-149.95861 v 6.22333"
             style="opacity:1;vector-effect:none;fill:none;fill-opacity:1;stroke:#000000;stroke-width:0.39687499;stroke-linecap:round;stroke-linejoin:miter;stroke-miterlimit:4;stroke-dasharray:none;stroke-dashoffset:0;stroke-opacity:1"
             inkscape:transform-center-x="-2.4528819e-005"
             inkscape:transform-center-y="-36.33432" />
          <path
             style="opacity:1;vector-effect:none;fill:#d7d7d7;fill-opacity:1;fill-rule:evenodd;stroke:#d7d7d7;stroke-width:0.39687499;stroke-linecap:round;stroke-linejoin:miter;stroke-miterlimit:4;stroke-dasharray:none;stroke-dashoffset:0;stroke-opacity:1"
             d="m -2732.477,-146.03142 c 0,-2.05421 -1.4288,-3.83214 -3.4339,-4.27829 v -1.50947 h -1.9048 v 1.51153 c -2.0047,0.44578 -3.4317,2.22263 -3.4345,4.27623"
             id="circle6646"
             inkscape:connector-curvature="0"
             sodipodi:nodetypes="cccccc" />
          <path
             inkscape:transform-center-y="-35.518755"
             inkscape:transform-center-x="-5.5445242"
             inkscape:connector-curvature="0"
             id="path6680"
             d="m -2730.1655,-146.03138 h -2.3062"
             style="opacity:1;vector-effect:none;fill:none;fill-opacity:1;stroke:#d7d7d7;stroke-width:0.39687499;stroke-linecap:round;stroke-linejoin:miter;stroke-miterlimit:4;stroke-dasharray:none;stroke-dashoffset:0;stroke-opacity:1" />
          <path
             style="opacity:1;vector-effect:none;fill:#000000;fill-opacity:1;stroke:#d7d7d7;stroke-width:0.39687499;stroke-linecap:round;stroke-linejoin:miter;stroke-miterlimit:4;stroke-dasharray:none;stroke-dashoffset:0;stroke-opacity:1"
             d="m -2736.8633,-133.63528 h -13.2101 l -0.3739,1.96659 c -0.8192,0.47093 -2.6965,1.75396 -3.0353,2.35735 -1.0688,1.90377 -1.8389,3.84266 -2.635,3.84266 h -2.7417 l -0.031,5.40105 h 22.0272 22.0272 l -0.031,-5.40105 h -2.7417 c -0.7961,0 -1.5662,-1.93889 -2.635,-3.84266 -0.3388,-0.60339 -2.2161,-1.88642 -3.0353,-2.35735 l -0.3739,-1.96659 h -13.2101"
             id="path6670"
             inkscape:connector-curvature="0"
             sodipodi:nodetypes="cccsscccccssccc"
             inkscape:transform-center-x="11.013577"
             inkscape:transform-center-y="-16.338828" />
          <path
             inkscape:transform-center-y="-47.481377"
             inkscape:transform-center-x="-6.0670243"
             sodipodi:nodetypes="ccsscsscsscsscsscsscsscsscsscsscc"
             inkscape:connector-curvature="0"
             id="path6672"
             d="m -2736.8469,-154.31619 h 12.1016 v -1.19941 c 0,-0.43151 -0.3473,-0.77876 -0.7788,-0.77876 h -1.3689 v -0.60668 c 0,-0.43151 -0.3473,-0.77876 -0.7788,-0.77876 h -1.929 v -0.51263 c 0,-0.43152 -0.3473,-0.77877 -0.7788,-0.77877 h -1.8671 v -0.48214 c 0,-0.43151 -0.3472,-0.77877 -0.7787,-0.77877 h -2.2485 v -0.66093 c 0,-0.43151 -0.3472,-0.77877 -0.7788,-0.77877 h -0.8104 -0.8105 c -0.4315,0 -0.7788,0.34726 -0.7788,0.77877 v 0.66093 h -2.2484 c -0.4315,0 -0.7788,0.34726 -0.7788,0.77877 v 0.48214 h -1.8671 c -0.4315,0 -0.7787,0.34725 -0.7787,0.77877 v 0.51263 h -1.9291 c -0.4315,0 -0.7788,0.34725 -0.7788,0.77876 v 0.60668 h -1.3689 c -0.4315,0 -0.7787,0.34725 -0.7787,0.77876 v 1.19941 h 12.1015"
             style="opacity:1;vector-effect:none;fill:#000000;fill-opacity:1;fill-rule:evenodd;stroke:#d7d7d7;stroke-width:0.39687499;stroke-linecap:round;stroke-linejoin:miter;stroke-miterlimit:4;stroke-dasharray:none;stroke-dashoffset:0;stroke-opacity:1" />
          <path
             inkscape:transform-center-y="-31.817635"
             inkscape:transform-center-x="-3.329124"
             inkscape:connector-curvature="0"
             id="path6678"
             d="m -2730.2049,-142.33026 h -6.6582"
             style="opacity:1;vector-effect:none;fill:none;fill-opacity:1;stroke:#d7d7d7;stroke-width:0.39687499;stroke-linecap:round;stroke-linejoin:miter;stroke-miterlimit:4;stroke-dasharray:none;stroke-dashoffset:0;stroke-opacity:1" />
          <path
             inkscape:transform-center-y="-36.33432"
             inkscape:transform-center-x="2.4528819e-005"
             style="opacity:1;vector-effect:none;fill:none;fill-opacity:1;stroke:#000000;stroke-width:0.5291667;stroke-linecap:round;stroke-linejoin:miter;stroke-miterlimit:4;stroke-dasharray:none;stroke-dashoffset:0;stroke-opacity:1"
             d="m -2736.8632,-149.95861 v 6.22333"
             id="path6682"
             inkscape:connector-curvature="0"
             sodipodi:nodetypes="cc" />
          <path
             inkscape:transform-center-y="-53.318777"
             inkscape:transform-center-x="-0.59909684"
             sodipodi:nodetypes="ccc"
             inkscape:connector-curvature="0"
             id="path6684"
             d="m -2736.8471,-161.67181 c 1.6872,-1.61211 1.4661,-3.02987 -0.016,-4.31918 -1.4821,1.28931 -1.7032,2.70707 -0.016,4.31918"
             style="opacity:1;vector-effect:none;fill:#000000;fill-opacity:1;stroke:#d7d7d7;stroke-width:0.39687499;stroke-linecap:round;stroke-linejoin:miter;stroke-miterlimit:4;stroke-dasharray:none;stroke-dashoffset:0;stroke-opacity:1" />
          <path
             style="opacity:1;vector-effect:none;fill:#000000;fill-opacity:1;fill-rule:evenodd;stroke:#d7d7d7;stroke-width:0.39687499;stroke-linecap:round;stroke-linejoin:miter;stroke-miterlimit:4;stroke-dasharray:none;stroke-dashoffset:0;stroke-opacity:1"
             d="m -2763.0028,-133.32005 v 13.25242 h 6.1779 v -13.25242 h -1.2309 v 1.60455 h -1.215 v -1.60455 h -1.2862 v 1.60455 h -1.2154 v -1.60455 z"
             id="rect6656"
             inkscape:connector-curvature="0"
             inkscape:transform-center-x="23.050718"
             inkscape:transform-center-y="-16.181215" />
          <path
             style="opacity:1;vector-effect:none;fill:#d7d7d7;fill-opacity:1;fill-rule:evenodd;stroke:none;stroke-width:0.39687499;stroke-linecap:round;stroke-linejoin:miter;stroke-miterlimit:4;stroke-dasharray:none;stroke-dashoffset:0;stroke-opacity:1"
             d="m -2761.1587,-126.4498 v -2.11493 c 0,-0.68957 0.5552,-1.24472 1.2447,-1.24472 0.6896,0 1.2448,0.55515 1.2448,1.24472 v 2.11493 z"
             id="rect6665"
             inkscape:connector-curvature="0"
             sodipodi:nodetypes="cssscc"
             inkscape:transform-center-x="23.050828"
             inkscape:transform-center-y="-17.616998" />
          <path
             inkscape:transform-center-y="-16.181213"
             inkscape:transform-center-x="-23.050726"
             inkscape:connector-curvature="0"
             id="path6686"
             d="m -2710.7234,-133.32005 v 13.25242 h -6.178 v -13.25242 h 1.231 v 1.60455 h 1.2149 v -1.60455 h 1.2862 v 1.60455 h 1.2154 v -1.60455 z"
             style="opacity:1;vector-effect:none;fill:#000000;fill-opacity:1;fill-rule:evenodd;stroke:#d7d7d7;stroke-width:0.39687499;stroke-linecap:round;stroke-linejoin:miter;stroke-miterlimit:4;stroke-dasharray:none;stroke-dashoffset:0;stroke-opacity:1" />
          <path
             inkscape:transform-center-y="-17.616998"
             inkscape:transform-center-x="-23.050876"
             sodipodi:nodetypes="cssscc"
             inkscape:connector-curvature="0"
             id="path6688"
             d="m -2712.5675,-126.4498 v -2.11493 c 0,-0.68957 -0.5552,-1.24472 -1.2447,-1.24472 -0.6896,0 -1.2448,0.55515 -1.2448,1.24472 v 2.11493 z"
             style="opacity:1;vector-effect:none;fill:#d7d7d7;fill-opacity:1;fill-rule:evenodd;stroke:none;stroke-width:0.39687499;stroke-linecap:round;stroke-linejoin:miter;stroke-miterlimit:4;stroke-dasharray:none;stroke-dashoffset:0;stroke-opacity:1" />
          <path
             style="opacity:1;vector-effect:none;fill:none;fill-opacity:1;fill-rule:evenodd;stroke:#000000;stroke-width:0.79374999;stroke-linecap:round;stroke-linejoin:miter;stroke-miterlimit:4;stroke-dasharray:none;stroke-dashoffset:0;stroke-opacity:1"
             id="path6625"
             sodipodi:type="arc"
             sodipodi:cx="-2736.8623"
             sodipodi:cy="-146.03142"
             sodipodi:rx="3.8846242"
             sodipodi:ry="3.8846242"
             sodipodi:start="2.9185437"
             sodipodi:end="0.13185118"
             sodipodi:open="true"
             d="m -2740.6507,-145.17212 a 3.8846242,3.8846242 0 0 1 1.505,-4.00196 3.8846242,3.8846242 0 0 1 4.2711,-0.19489 3.8846242,3.8846242 0 0 1 1.8632,3.84826" />
          <path
             style="opacity:1;vector-effect:none;fill:none;fill-opacity:1;stroke:#000000;stroke-width:0.5291667;stroke-linecap:round;stroke-linejoin:miter;stroke-miterlimit:4;stroke-dasharray:none;stroke-dashoffset:0;stroke-opacity:1"
             d="m -2733.9302,-148.52347 -3.7064,3.70637"
             id="path6642"
             inkscape:connector-curvature="0"
             sodipodi:nodetypes="cc" />
          <path
             style="opacity:1;vector-effect:none;fill:none;fill-opacity:1;stroke:#000000;stroke-width:0.5291667;stroke-linecap:round;stroke-linejoin:miter;stroke-miterlimit:4;stroke-dasharray:none;stroke-dashoffset:0;stroke-opacity:1"
             d="m -2739.796,-148.52347 4.0428,4.04283"
             id="path6644"
             inkscape:connector-curvature="0"
             sodipodi:nodetypes="cc" />
          <rect
             style="opacity:1;vector-effect:none;fill:#000000;fill-opacity:1;fill-rule:evenodd;stroke:#000000;stroke-width:0.07937502;stroke-linecap:round;stroke-linejoin:miter;stroke-miterlimit:4;stroke-dasharray:none;stroke-dashoffset:0;stroke-opacity:1"
             id="rect6695"
             width="1.6761277"
             height="1.7226868"
             x="-2737.7012"
             y="-151.6351" />
        </g>
        <path
           sodipodi:nodetypes="ccsssssssssssssssc"
           inkscape:connector-curvature="0"
           id="path6723"
           d="m -2755.8363,-116.15806 h 4.8246 c 0.5665,-0.15996 0.8285,-0.47699 1.0437,-1.00022 0.2598,-0.63167 -0.5462,-0.90931 -0.207,-1.55615 0.3317,-0.63258 1.2085,-0.69655 1.5082,-1.20955 0.4225,-0.72336 -0.404,-1.08912 -0.08,-1.91884 0.2088,-0.53465 1.143,-0.60503 1.458,-1.30493 0.3289,-0.73071 -0.3251,-1.09953 -0.057,-1.79075 0.3332,-0.85943 1.4237,-0.80203 1.5466,-1.66882 0.1951,-1.37654 -0.685,-2.72496 -2.3043,-2.72496 -0.8948,0 -2.1548,0.15373 -2.9552,1.27476 -0.939,1.31502 -0.2199,2.17936 -0.7115,3.2902 -0.3397,0.76772 -1.0967,0.43693 -1.3886,1.19339 -0.3145,0.81528 0.3134,1.37654 -0.069,2.05791 -0.2768,0.49375 -1.1443,0.39647 -1.3401,1.00429 -0.2993,0.92901 0.3755,1.27494 0,1.94835 -0.419,0.7533 -1.099,0.27441 -1.3246,0.98053 -0.1951,0.61091 -0.2391,1.24077 0.055,1.42479 z"
           style="opacity:1;vector-effect:none;fill:none;fill-opacity:1;stroke:#d7d7d7;stroke-width:0.3175;stroke-linecap:round;stroke-linejoin:miter;stroke-miterlimit:4;stroke-dasharray:none;stroke-dashoffset:0;stroke-opacity:1" />
        <path
           sodipodi:nodetypes="cssssssscssssssc"
           inkscape:connector-curvature="0"
           id="path6725"
           d="m -2754.7466,-116.15806 c -0.2512,-0.91864 0.055,-1.37669 0.5097,-1.67611 0.2896,-0.19056 0.6952,-0.20566 0.8766,-0.5934 0.2401,-0.51328 -0.3037,-1.23597 -0.085,-1.72641 0.2859,-0.6401 0.9901,-0.51087 1.2754,-1.01302 0.3942,-0.69398 -0.187,-1.03583 0.1287,-1.93081 0.3135,-0.88873 0.9384,-0.32185 1.2712,-1.07131 0.4028,-0.9069 -0.1471,-2.00397 0.6543,-3.07751 0.942,-1.26205 2.4429,-1.29665 3.2356,-0.60547 0.4433,0.8918 0.1528,1.33678 -0.2864,1.64264 -0.3653,0.25432 -0.7183,0.19552 -0.9986,0.75526 -0.4228,0.8441 0.3111,1.13275 -0.1091,2.038 -0.3779,0.81387 -1.1568,0.64578 -1.3841,1.22275 -0.325,0.82508 0.3896,1.1332 -0.05,1.90919 -0.3796,0.6704 -1.0963,0.62765 -1.3726,1.33399 -0.4426,1.13178 0.9713,1.32087 -0.6753,2.79221"
           style="opacity:1;vector-effect:none;fill:none;fill-opacity:1;stroke:#d7d7d7;stroke-width:0.3175;stroke-linecap:round;stroke-linejoin:miter;stroke-miterlimit:4;stroke-dasharray:none;stroke-dashoffset:0;stroke-opacity:1" />
        <path
           sodipodi:nodetypes="cssssssc"
           inkscape:connector-curvature="0"
           id="path6727"
           d="m -2746.7395,-127.68074 c -0.9434,0.0331 -1.638,0.26967 -2.1949,0.9516 -0.8215,1.00583 -0.059,2.09771 -0.4048,2.93448 -0.2536,0.61411 -1.3158,0.51806 -1.5151,1.10289 -0.3207,0.94135 0.3152,1.17027 -0.035,1.97183 -0.2637,0.60388 -0.9166,0.43236 -1.2612,1.15753 -0.3424,0.72071 0.2474,0.91356 -0.068,1.80339 -0.2468,0.69613 -1.0192,0.42861 -1.112,1.5698"
           style="opacity:1;vector-effect:none;fill:none;fill-opacity:1;stroke:#d7d7d7;stroke-width:0.3175;stroke-linecap:round;stroke-linejoin:miter;stroke-miterlimit:4;stroke-dasharray:none;stroke-dashoffset:0;stroke-opacity:1" />
        <path
           style="opacity:1;vector-effect:none;fill:none;fill-opacity:1;stroke:#d7d7d7;stroke-width:0.3175;stroke-linecap:round;stroke-linejoin:miter;stroke-miterlimit:4;stroke-dasharray:none;stroke-dashoffset:0;stroke-opacity:1"
           d="m -2730.217,-116.15806 h 4.8246 c 0.5665,-0.15996 0.8285,-0.47699 1.0437,-1.00022 0.2598,-0.63167 -0.5462,-0.90931 -0.207,-1.55615 0.3317,-0.63258 1.2085,-0.69655 1.5082,-1.20955 0.4225,-0.72336 -0.404,-1.08912 -0.08,-1.91884 0.2088,-0.53465 1.143,-0.60503 1.458,-1.30493 0.3289,-0.73071 -0.3251,-1.09953 -0.057,-1.79075 0.3332,-0.85943 1.4237,-0.80203 1.5466,-1.66882 0.1951,-1.37654 -0.685,-2.72496 -2.3043,-2.72496 -0.8948,0 -2.1548,0.15373 -2.9552,1.27476 -0.939,1.31502 -0.2199,2.17936 -0.7115,3.2902 -0.3397,0.76772 -1.0967,0.43693 -1.3886,1.19339 -0.3145,0.81528 0.3134,1.37654 -0.069,2.05791 -0.2768,0.49375 -1.1443,0.39647 -1.3401,1.00429 -0.2993,0.92901 0.3755,1.27494 0,1.94835 -0.419,0.7533 -1.099,0.27441 -1.3246,0.98053 -0.1951,0.61091 -0.2391,1.24077 0.055,1.42479 z"
           id="path6729"
           inkscape:connector-curvature="0"
           sodipodi:nodetypes="ccsssssssssssssssc" />
        <path
           style="opacity:1;vector-effect:none;fill:none;fill-opacity:1;stroke:#d7d7d7;stroke-width:0.3175;stroke-linecap:round;stroke-linejoin:miter;stroke-miterlimit:4;stroke-dasharray:none;stroke-dashoffset:0;stroke-opacity:1"
           d="m -2729.1273,-116.15806 c -0.2512,-0.91864 0.055,-1.37669 0.5097,-1.67611 0.2896,-0.19056 0.6952,-0.20566 0.8766,-0.5934 0.2401,-0.51328 -0.3037,-1.23597 -0.085,-1.72641 0.2859,-0.6401 0.9901,-0.51087 1.2754,-1.01302 0.3942,-0.69398 -0.187,-1.03583 0.1287,-1.93081 0.3135,-0.88873 0.9384,-0.32185 1.2712,-1.07131 0.4028,-0.9069 -0.1471,-2.00397 0.6543,-3.07751 0.942,-1.26205 2.4429,-1.29665 3.2356,-0.60547 0.4433,0.8918 0.1528,1.33678 -0.2864,1.64264 -0.3653,0.25432 -0.7183,0.19552 -0.9986,0.75526 -0.4228,0.8441 0.3111,1.13275 -0.1091,2.038 -0.3779,0.81387 -1.1568,0.64578 -1.3841,1.22275 -0.325,0.82508 0.3896,1.1332 -0.05,1.90919 -0.3796,0.6704 -1.0963,0.62765 -1.3726,1.33399 -0.4426,1.13178 0.9713,1.32087 -0.6753,2.79221"
           id="path6731"
           inkscape:connector-curvature="0"
           sodipodi:nodetypes="cssssssscssssssc" />
        <path
           style="opacity:1;vector-effect:none;fill:none;fill-opacity:1;stroke:#d7d7d7;stroke-width:0.3175;stroke-linecap:round;stroke-linejoin:miter;stroke-miterlimit:4;stroke-dasharray:none;stroke-dashoffset:0;stroke-opacity:1"
           d="m -2721.1202,-127.68074 c -0.9434,0.0331 -1.638,0.26967 -2.1949,0.9516 -0.8215,1.00583 -0.059,2.09771 -0.4048,2.93448 -0.2536,0.61411 -1.3158,0.51806 -1.5151,1.10289 -0.3207,0.94135 0.3152,1.17027 -0.035,1.97183 -0.2637,0.60388 -0.9166,0.43236 -1.2612,1.15753 -0.3424,0.72071 0.2474,0.91356 -0.068,1.80339 -0.2468,0.69613 -1.0192,0.42861 -1.112,1.5698"
           id="path6733"
           inkscape:connector-curvature="0"
           sodipodi:nodetypes="cssssssc" />
        <path
           inkscape:connector-curvature="0"
           d="m -2755.8368,-116.15806 c 0,0 4.8246,0 4.8246,0 0.5665,-0.15996 0.8285,-0.47699 1.0437,-1.00022 0.2598,-0.63167 -0.5462,-0.90931 -0.207,-1.55615 0.3317,-0.63258 1.2085,-0.69655 1.5082,-1.20955 0.4225,-0.72336 -0.404,-1.08912 -0.08,-1.91884 0.2088,-0.53465 1.143,-0.60503 1.458,-1.30493 0.3289,-0.73071 -0.3251,-1.09953 -0.057,-1.79075 0.3332,-0.85943 1.4237,-0.80203 1.5466,-1.66882 0.1951,-1.37654 -0.685,-2.72496 -2.3043,-2.72496 -0.8948,0 -2.1548,0.15373 -2.9552,1.27476 -0.939,1.31502 -0.2199,2.17936 -0.7115,3.2902 -0.3397,0.76772 -1.0967,0.43693 -1.3886,1.19339 -0.3145,0.81528 0.3134,1.37654 -0.069,2.05791 -0.2768,0.49375 -1.1443,0.39647 -1.3401,1.00429 -0.2993,0.92901 0.3755,1.27494 0,1.94835 -0.419,0.7533 -1.099,0.27441 -1.3246,0.98053 -0.1951,0.61091 -0.2391,1.24077 0.055,1.42479 0,0 0,0 0,0"
           style="opacity:1;vector-effect:none;fill:#000000;fill-opacity:1;stroke:#d7d7d7;stroke-width:0.3175;stroke-linecap:round;stroke-linejoin:miter;stroke-miterlimit:4;stroke-dasharray:none;stroke-dashoffset:0;stroke-opacity:1"
           id="path6836" />
        <path
           inkscape:connector-curvature="0"
           d="m -2749.432,-116.15806 c 0,0 4.8246,0 4.8246,0 0.5665,-0.15996 0.8285,-0.47699 1.0437,-1.00022 0.2598,-0.63167 -0.5462,-0.90931 -0.207,-1.55615 0.3317,-0.63258 1.2085,-0.69655 1.5082,-1.20955 0.4225,-0.72336 -0.404,-1.08912 -0.08,-1.91884 0.2088,-0.53465 1.143,-0.60503 1.458,-1.30493 0.3289,-0.73071 -0.3251,-1.09953 -0.057,-1.79075 0.3332,-0.85943 1.4237,-0.80203 1.5466,-1.66882 0.1951,-1.37654 -0.685,-2.72496 -2.3043,-2.72496 -0.8948,0 -2.1548,0.15373 -2.9552,1.27476 -0.939,1.31502 -0.2199,2.17936 -0.7115,3.2902 -0.3397,0.76772 -1.0967,0.43693 -1.3886,1.19339 -0.3145,0.81528 0.3134,1.37654 -0.069,2.05791 -0.2768,0.49375 -1.1443,0.39647 -1.3401,1.00429 -0.2993,0.92901 0.3755,1.27494 0,1.94835 -0.419,0.7533 -1.099,0.27441 -1.3246,0.98053 -0.1951,0.61091 -0.2391,1.24077 0.055,1.42479 0,0 0,0 0,0"
           style="opacity:1;vector-effect:none;fill:#000000;fill-opacity:1;stroke:#d7d7d7;stroke-width:0.3175;stroke-linecap:round;stroke-linejoin:miter;stroke-miterlimit:4;stroke-dasharray:none;stroke-dashoffset:0;stroke-opacity:1"
           id="path6838" />
        <path
           inkscape:connector-curvature="0"
           d="m -2743.0271,-116.15806 c 0,0 4.8245,0 4.8245,0 0.5665,-0.15996 0.8286,-0.47699 1.0438,-1.00022 0.2597,-0.63167 -0.5463,-0.90931 -0.2071,-1.55615 0.3317,-0.63258 1.2085,-0.69655 1.5082,-1.20955 0.4226,-0.72336 -0.404,-1.08912 -0.08,-1.91884 0.2087,-0.53465 1.143,-0.60503 1.4579,-1.30493 0.329,-0.73071 -0.325,-1.09953 -0.057,-1.79075 0.3332,-0.85943 1.4237,-0.80203 1.5467,-1.66882 0.195,-1.37654 -0.685,-2.72496 -2.3044,-2.72496 -0.8948,0 -2.1548,0.15373 -2.9552,1.27476 -0.9389,1.31502 -0.2199,2.17936 -0.7114,3.2902 -0.3397,0.76772 -1.0968,0.43693 -1.3887,1.19339 -0.3145,0.81528 0.3134,1.37654 -0.069,2.05791 -0.2768,0.49375 -1.1443,0.39647 -1.3401,1.00429 -0.2993,0.92901 0.3756,1.27494 0,1.94835 -0.4189,0.7533 -1.099,0.27441 -1.3245,0.98053 -0.1951,0.61091 -0.2392,1.24077 0.055,1.42479 0,0 0,0 0,0"
           style="opacity:1;vector-effect:none;fill:#000000;fill-opacity:1;stroke:#d7d7d7;stroke-width:0.3175;stroke-linecap:round;stroke-linejoin:miter;stroke-miterlimit:4;stroke-dasharray:none;stroke-dashoffset:0;stroke-opacity:1"
           id="path6840" />
        <path
           inkscape:connector-curvature="0"
           d="m -2736.6223,-116.15806 c 0,0 4.8246,0 4.8246,0 0.5665,-0.15996 0.8285,-0.47699 1.0437,-1.00022 0.2598,-0.63167 -0.5462,-0.90931 -0.207,-1.55615 0.3317,-0.63258 1.2085,-0.69655 1.5082,-1.20955 0.4225,-0.72336 -0.404,-1.08912 -0.08,-1.91884 0.2088,-0.53465 1.143,-0.60503 1.458,-1.30493 0.3289,-0.73071 -0.3251,-1.09953 -0.057,-1.79075 0.3332,-0.85943 1.4237,-0.80203 1.5466,-1.66882 0.1951,-1.37654 -0.685,-2.72496 -2.3043,-2.72496 -0.8948,0 -2.1548,0.15373 -2.9552,1.27476 -0.939,1.31502 -0.2199,2.17936 -0.7115,3.2902 -0.3397,0.76772 -1.0967,0.43693 -1.3886,1.19339 -0.3145,0.81528 0.3134,1.37654 -0.069,2.05791 -0.2768,0.49375 -1.1443,0.39647 -1.3401,1.00429 -0.2993,0.92901 0.3755,1.27494 0,1.94835 -0.419,0.7533 -1.099,0.27441 -1.3246,0.98053 -0.1951,0.61091 -0.2391,1.24077 0.055,1.42479 0,0 0,0 0,0"
           style="opacity:1;vector-effect:none;fill:#000000;fill-opacity:1;stroke:#d7d7d7;stroke-width:0.3175;stroke-linecap:round;stroke-linejoin:miter;stroke-miterlimit:4;stroke-dasharray:none;stroke-dashoffset:0;stroke-opacity:1"
           id="path6842" />
        <path
           inkscape:connector-curvature="0"
           d="m -2730.2175,-116.15806 c 0,0 4.8246,0 4.8246,0 0.5665,-0.15996 0.8285,-0.47699 1.0437,-1.00022 0.2598,-0.63167 -0.5462,-0.90931 -0.207,-1.55615 0.3317,-0.63258 1.2085,-0.69655 1.5082,-1.20955 0.4225,-0.72336 -0.404,-1.08912 -0.08,-1.91884 0.2088,-0.53465 1.143,-0.60503 1.458,-1.30493 0.3289,-0.73071 -0.3251,-1.09953 -0.057,-1.79075 0.3332,-0.85943 1.4237,-0.80203 1.5466,-1.66882 0.1951,-1.37654 -0.685,-2.72496 -2.3043,-2.72496 -0.8948,0 -2.1548,0.15373 -2.9552,1.27476 -0.939,1.31502 -0.2199,2.17936 -0.7115,3.2902 -0.3397,0.76772 -1.0967,0.43693 -1.3886,1.19339 -0.3145,0.81528 0.3134,1.37654 -0.069,2.05791 -0.2768,0.49375 -1.1443,0.39647 -1.3401,1.00429 -0.2993,0.92901 0.3755,1.27494 0,1.94835 -0.419,0.7533 -1.099,0.27441 -1.3246,0.98053 -0.1951,0.61091 -0.2391,1.24077 0.055,1.42479 0,0 0,0 0,0"
           style="opacity:1;vector-effect:none;fill:#000000;fill-opacity:1;stroke:#d7d7d7;stroke-width:0.3175;stroke-linecap:round;stroke-linejoin:miter;stroke-miterlimit:4;stroke-dasharray:none;stroke-dashoffset:0;stroke-opacity:1"
           id="path6844" />
        <g
           id="g7074"
           transform="translate(79.375004)"
           style="stroke:#d7d7d7;stroke-width:0.3175;stroke-miterlimit:4;stroke-dasharray:none;stroke-opacity:1">
          <path
             d="m -2834.1221,-116.15806 c -0.2512,-0.91864 0.055,-1.37669 0.5097,-1.67611 0.2896,-0.19056 0.6952,-0.20566 0.8766,-0.5934 0.2401,-0.51328 -0.3037,-1.23597 -0.085,-1.72641 0.2859,-0.6401 0.9901,-0.51087 1.2754,-1.01302 0.3942,-0.69398 -0.187,-1.03583 0.1287,-1.93081 0.3135,-0.88873 0.9384,-0.32185 1.2712,-1.07131 0.4028,-0.9069 -0.1471,-2.00397 0.6543,-3.07751 0.942,-1.26205 2.4429,-1.29665 3.2356,-0.60547 0.4433,0.8918 0.1528,1.33678 -0.2864,1.64264 -0.3653,0.25432 -0.7183,0.19552 -0.9986,0.75526 -0.4228,0.8441 0.3111,1.13275 -0.1091,2.038 -0.3779,0.81387 -1.1568,0.64578 -1.3841,1.22275 -0.325,0.82508 0.3896,1.1332 -0.05,1.90919 -0.3796,0.6704 -1.0963,0.62765 -1.3726,1.33399 -0.4426,1.13178 0.9713,1.32087 -0.6753,2.79221"
             style="opacity:1;vector-effect:none;fill:none;fill-opacity:1;stroke:#d7d7d7;stroke-width:0.3175;stroke-linecap:round;stroke-linejoin:miter;stroke-miterlimit:4;stroke-dasharray:none;stroke-dashoffset:0;stroke-opacity:1"
             id="path7064"
             inkscape:connector-curvature="0" />
          <path
             d="m -2827.7173,-116.15806 c -0.2512,-0.91864 0.055,-1.37669 0.5097,-1.67611 0.2896,-0.19056 0.6952,-0.20566 0.8766,-0.5934 0.2401,-0.51328 -0.3037,-1.23597 -0.085,-1.72641 0.2859,-0.6401 0.9901,-0.51087 1.2754,-1.01302 0.3942,-0.69398 -0.187,-1.03583 0.1287,-1.93081 0.3135,-0.88873 0.9384,-0.32185 1.2712,-1.07131 0.4028,-0.9069 -0.1471,-2.00397 0.6543,-3.07751 0.942,-1.26205 2.4429,-1.29665 3.2356,-0.60547 0.4433,0.8918 0.1528,1.33678 -0.2864,1.64264 -0.3653,0.25432 -0.7183,0.19552 -0.9986,0.75526 -0.4228,0.8441 0.3111,1.13275 -0.1091,2.038 -0.3779,0.81387 -1.1568,0.64578 -1.3841,1.22275 -0.325,0.82508 0.3896,1.1332 -0.05,1.90919 -0.3796,0.6704 -1.0963,0.62765 -1.3726,1.33399 -0.4426,1.13178 0.9713,1.32087 -0.6753,2.79221"
             style="opacity:1;vector-effect:none;fill:none;fill-opacity:1;stroke:#d7d7d7;stroke-width:0.3175;stroke-linecap:round;stroke-linejoin:miter;stroke-miterlimit:4;stroke-dasharray:none;stroke-dashoffset:0;stroke-opacity:1"
             id="path7066"
             inkscape:connector-curvature="0" />
          <path
             d="m -2821.3125,-116.15806 c -0.2512,-0.91864 0.055,-1.37669 0.5098,-1.67611 0.2895,-0.19056 0.6951,-0.20566 0.8766,-0.5934 0.2401,-0.51328 -0.3038,-1.23597 -0.085,-1.72641 0.2858,-0.6401 0.9901,-0.51087 1.2754,-1.01302 0.3941,-0.69398 -0.1871,-1.03583 0.1286,-1.93081 0.3136,-0.88873 0.9384,-0.32185 1.2712,-1.07131 0.4028,-0.9069 -0.1471,-2.00397 0.6544,-3.07751 0.942,-1.26205 2.4429,-1.29665 3.2356,-0.60547 0.4432,0.8918 0.1527,1.33678 -0.2865,1.64264 -0.3653,0.25432 -0.7183,0.19552 -0.9986,0.75526 -0.4228,0.8441 0.3111,1.13275 -0.109,2.038 -0.378,0.81387 -1.1569,0.64578 -1.3842,1.22275 -0.3249,0.82508 0.3896,1.1332 -0.05,1.90919 -0.3796,0.6704 -1.0962,0.62765 -1.3725,1.33399 -0.4427,1.13178 0.9712,1.32087 -0.6754,2.79221"
             style="opacity:1;vector-effect:none;fill:none;fill-opacity:1;stroke:#d7d7d7;stroke-width:0.3175;stroke-linecap:round;stroke-linejoin:miter;stroke-miterlimit:4;stroke-dasharray:none;stroke-dashoffset:0;stroke-opacity:1"
             id="path7068"
             inkscape:connector-curvature="0" />
          <path
             d="m -2814.9076,-116.15806 c -0.2512,-0.91864 0.055,-1.37669 0.5097,-1.67611 0.2896,-0.19056 0.6952,-0.20566 0.8766,-0.5934 0.2401,-0.51328 -0.3037,-1.23597 -0.085,-1.72641 0.2859,-0.6401 0.9901,-0.51087 1.2754,-1.01302 0.3942,-0.69398 -0.187,-1.03583 0.1287,-1.93081 0.3135,-0.88873 0.9384,-0.32185 1.2712,-1.07131 0.4028,-0.9069 -0.1471,-2.00397 0.6543,-3.07751 0.942,-1.26205 2.4429,-1.29665 3.2356,-0.60547 0.4433,0.8918 0.1528,1.33678 -0.2864,1.64264 -0.3653,0.25432 -0.7183,0.19552 -0.9986,0.75526 -0.4228,0.8441 0.3111,1.13275 -0.1091,2.038 -0.3779,0.81387 -1.1568,0.64578 -1.3841,1.22275 -0.325,0.82508 0.3896,1.1332 -0.05,1.90919 -0.3796,0.6704 -1.0963,0.62765 -1.3726,1.33399 -0.4426,1.13178 0.9713,1.32087 -0.6753,2.79221"
             style="opacity:1;vector-effect:none;fill:none;fill-opacity:1;stroke:#d7d7d7;stroke-width:0.3175;stroke-linecap:round;stroke-linejoin:miter;stroke-miterlimit:4;stroke-dasharray:none;stroke-dashoffset:0;stroke-opacity:1"
             id="path7070"
             inkscape:connector-curvature="0" />
          <path
             d="m -2808.5028,-116.15806 c -0.2512,-0.91864 0.055,-1.37669 0.5097,-1.67611 0.2896,-0.19056 0.6952,-0.20566 0.8766,-0.5934 0.2401,-0.51328 -0.3037,-1.23597 -0.085,-1.72641 0.2859,-0.6401 0.9901,-0.51087 1.2754,-1.01302 0.3942,-0.69398 -0.187,-1.03583 0.1287,-1.93081 0.3135,-0.88873 0.9384,-0.32185 1.2712,-1.07131 0.4028,-0.9069 -0.1471,-2.00397 0.6543,-3.07751 0.942,-1.26205 2.4429,-1.29665 3.2356,-0.60547 0.4433,0.8918 0.1528,1.33678 -0.2864,1.64264 -0.3653,0.25432 -0.7183,0.19552 -0.9986,0.75526 -0.4228,0.8441 0.3111,1.13275 -0.1091,2.038 -0.3779,0.81387 -1.1568,0.64578 -1.3841,1.22275 -0.325,0.82508 0.3896,1.1332 -0.05,1.90919 -0.3796,0.6704 -1.0963,0.62765 -1.3726,1.33399 -0.4426,1.13178 0.9713,1.32087 -0.6753,2.79221"
             style="opacity:1;vector-effect:none;fill:none;fill-opacity:1;stroke:#d7d7d7;stroke-width:0.3175;stroke-linecap:round;stroke-linejoin:miter;stroke-miterlimit:4;stroke-dasharray:none;stroke-dashoffset:0;stroke-opacity:1"
             id="path7072"
             inkscape:connector-curvature="0" />
        </g>
        <g
           id="g7314"
           transform="translate(79.375004)"
           style="stroke:#d7d7d7;stroke-width:0.3175;stroke-miterlimit:4;stroke-dasharray:none;stroke-opacity:1">
          <path
             id="path7304"
             style="opacity:1;vector-effect:none;fill:none;fill-opacity:1;stroke:#d7d7d7;stroke-width:0.3175;stroke-linecap:round;stroke-linejoin:miter;stroke-miterlimit:4;stroke-dasharray:none;stroke-dashoffset:0;stroke-opacity:1"
             d="m -2826.115,-127.68074 c -0.9434,0.0331 -1.638,0.26967 -2.1949,0.9516 -0.8215,1.00583 -0.059,2.09771 -0.4048,2.93448 -0.2536,0.61411 -1.3158,0.51806 -1.5151,1.10289 -0.3207,0.94135 0.3152,1.17027 -0.035,1.97183 -0.2637,0.60388 -0.9166,0.43236 -1.2612,1.15753 -0.3424,0.72071 0.2474,0.91356 -0.068,1.80339 -0.2468,0.69613 -1.0192,0.42861 -1.112,1.5698"
             inkscape:connector-curvature="0" />
          <path
             id="path7306"
             style="opacity:1;vector-effect:none;fill:none;fill-opacity:1;stroke:#d7d7d7;stroke-width:0.3175;stroke-linecap:round;stroke-linejoin:miter;stroke-miterlimit:4;stroke-dasharray:none;stroke-dashoffset:0;stroke-opacity:1"
             d="m -2819.7102,-127.68074 c -0.9434,0.0331 -1.638,0.26967 -2.1949,0.9516 -0.8215,1.00583 -0.059,2.09771 -0.4048,2.93448 -0.2536,0.61411 -1.3158,0.51806 -1.5151,1.10289 -0.3207,0.94135 0.3152,1.17027 -0.035,1.97183 -0.2637,0.60388 -0.9166,0.43236 -1.2612,1.15753 -0.3424,0.72071 0.2474,0.91356 -0.068,1.80339 -0.2468,0.69613 -1.0192,0.42861 -1.112,1.5698"
             inkscape:connector-curvature="0" />
          <path
             id="path7308"
             style="opacity:1;vector-effect:none;fill:none;fill-opacity:1;stroke:#d7d7d7;stroke-width:0.3175;stroke-linecap:round;stroke-linejoin:miter;stroke-miterlimit:4;stroke-dasharray:none;stroke-dashoffset:0;stroke-opacity:1"
             d="m -2813.3054,-127.68074 c -0.9434,0.0331 -1.638,0.26967 -2.1949,0.9516 -0.8215,1.00583 -0.059,2.09771 -0.4047,2.93448 -0.2536,0.61411 -1.3159,0.51806 -1.5152,1.10289 -0.3207,0.94135 0.3152,1.17027 -0.035,1.97183 -0.2638,0.60388 -0.9166,0.43236 -1.2613,1.15753 -0.3424,0.72071 0.2474,0.91356 -0.068,1.80339 -0.2467,0.69613 -1.0192,0.42861 -1.112,1.5698"
             inkscape:connector-curvature="0" />
          <path
             id="path7310"
             style="opacity:1;vector-effect:none;fill:none;fill-opacity:1;stroke:#d7d7d7;stroke-width:0.3175;stroke-linecap:round;stroke-linejoin:miter;stroke-miterlimit:4;stroke-dasharray:none;stroke-dashoffset:0;stroke-opacity:1"
             d="m -2806.9005,-127.68074 c -0.9434,0.0331 -1.638,0.26967 -2.1949,0.9516 -0.8215,1.00583 -0.059,2.09771 -0.4048,2.93448 -0.2536,0.61411 -1.3158,0.51806 -1.5151,1.10289 -0.3207,0.94135 0.3152,1.17027 -0.035,1.97183 -0.2637,0.60388 -0.9166,0.43236 -1.2612,1.15753 -0.3424,0.72071 0.2474,0.91356 -0.068,1.80339 -0.2468,0.69613 -1.0192,0.42861 -1.112,1.5698"
             inkscape:connector-curvature="0" />
          <path
             id="path7312"
             style="opacity:1;vector-effect:none;fill:none;fill-opacity:1;stroke:#d7d7d7;stroke-width:0.3175;stroke-linecap:round;stroke-linejoin:miter;stroke-miterlimit:4;stroke-dasharray:none;stroke-dashoffset:0;stroke-opacity:1"
             d="m -2800.4957,-127.68074 c -0.9434,0.0331 -1.638,0.26967 -2.1949,0.9516 -0.8215,1.00583 -0.059,2.09771 -0.4048,2.93448 -0.2536,0.61411 -1.3158,0.51806 -1.5151,1.10289 -0.3207,0.94135 0.3152,1.17027 -0.035,1.97183 -0.2637,0.60388 -0.9166,0.43236 -1.2612,1.15753 -0.3424,0.72071 0.2474,0.91356 -0.068,1.80339 -0.2468,0.69613 -1.0192,0.42861 -1.112,1.5698"
             inkscape:connector-curvature="0" />
        </g>
      </g>
    </g>
  </g>
</svg>
